<?xml version="1.0" encoding="UTF-8" standalone="no"?>
<!-- Created with Inkscape (http://www.inkscape.org/) -->

<svg
   xmlns:dc="http://purl.org/dc/elements/1.1/"
   xmlns:cc="http://creativecommons.org/ns#"
   xmlns:rdf="http://www.w3.org/1999/02/22-rdf-syntax-ns#"
   xmlns:svg="http://www.w3.org/2000/svg"
   xmlns="http://www.w3.org/2000/svg"
   xmlns:sodipodi="http://sodipodi.sourceforge.net/DTD/sodipodi-0.dtd"
   xmlns:inkscape="http://www.inkscape.org/namespaces/inkscape"
   width="100"
   height="100"
   viewBox="0 0 26.458333 26.458334"
   version="1.1"
   id="svg5070"
   inkscape:version="0.92.4 (5da689c313, 2019-01-14)"
   sodipodi:docname="11-physical-shot.svg">
  <defs
     id="defs5064" />
  <sodipodi:namedview
     id="base"
     pagecolor="#ffffff"
     bordercolor="#666666"
     borderopacity="1.0"
     inkscape:pageopacity="0.0"
     inkscape:pageshadow="2"
     inkscape:zoom="1.979899"
     inkscape:cx="89.333427"
     inkscape:cy="-80.90428"
     inkscape:document-units="px"
     inkscape:current-layer="layer3"
     showgrid="false"
     units="px"
     showguides="true"
     inkscape:guide-bbox="true"
     inkscape:snap-bbox="true"
     inkscape:snap-bbox-midpoints="true"
     fit-margin-top="0"
     fit-margin-left="0"
     fit-margin-right="0"
     fit-margin-bottom="0"
     inkscape:window-width="1920"
     inkscape:window-height="1027"
     inkscape:window-x="-8"
     inkscape:window-y="-8"
     inkscape:window-maximized="1" />
  <metadata
     id="metadata5067">
    <rdf:RDF>
      <cc:Work
         rdf:about="">
        <dc:format>image/svg+xml</dc:format>
        <dc:type
           rdf:resource="http://purl.org/dc/dcmitype/StillImage" />
        <dc:title></dc:title>
      </cc:Work>
    </rdf:RDF>
  </metadata>
  <g
     inkscape:groupmode="layer"
     id="layer3"
     inkscape:label="Physical Shot"
     style="display:inline"
     transform="translate(0,-1.3290405e-6)">
    <path
       style="display:inline;opacity:1;fill:#000000;fill-opacity:1;stroke:none;stroke-width:0.05435045"
       d="M 6.7631339,11.689228 C 5.918645,11.804181 5.084853,12.007906 4.2710871,12.26125 c -0.325477,0.101328 -0.6521999,0.212373 -0.9504649,0.377425 -0.1394985,0.0772 -0.313272,0.140859 -0.385675,0.282909 -0.084459,0.165695 -0.089709,0.393563 -0.0027,0.557933 0.06767,0.127828 0.233384,0.172339 0.360027,0.242203 0.2962479,0.163436 0.5517539,0.292694 0.9284118,0.410247 0.981977,0.306475 1.763424,0.550678 2.6722069,0.697747 1.0585239,0.171304 2.6656078,0.200289 3.2100191,0.210473 0.630058,0.01187 0.766485,0.743266 1.225034,0.778708 0,0 10.467673,0.0512 10.560409,-0.03084 0.137266,-0.122094 0.140422,-0.367583 0.252942,-0.458165 h 0.759777 l 0.327951,0.525115 h 0.360046 l -0.03736,-5.194032 -0.29702,0.0027 -0.331153,0.465383 -0.790892,0.0039 c -0.103922,-0.114875 -0.111125,-0.342636 -0.244314,-0.462098 -0.09181,-0.08205 -10.53925,-0.0722 -10.630135,-0.05777 -0.468053,0.184445 -0.7391,0.743831 -1.3447497,0.934459 -0.6193629,0.194939 -2.1087529,-6.4e-5 -3.1503119,0.141719 z"
       id="Selection"
       inkscape:connector-curvature="0" />
    <path
       style="display:inline;opacity:1;fill:#000000;fill-opacity:1;stroke:none;stroke-width:0.03621686"
       d="M 8.9204678,5.9157767 C 8.3577379,5.9923861 7.8021349,6.1281298 7.2598839,6.2969486 7.042992,6.3644798 6.825285,6.4384642 6.62653,6.5484485 6.53356,6.599886 6.4177759,6.6423079 6.369535,6.7369642 6.313255,6.847386 6.309744,6.9992188 6.367735,7.108747 6.412844,7.1939344 6.5232522,7.2235907 6.6076459,7.2701454 6.805052,7.3790516 6.9753109,7.4651797 7.226295,7.5435157 7.8806409,7.747736 8.4013809,7.9104625 9.0069508,8.0084641 c 0.705345,0.1141562 1.7762502,0.1334687 2.1390152,0.14025 0.419852,0.00781 0.510757,0.4952812 0.816311,0.5188968 0,0 6.923799,0.034125 6.985578,-0.020563 0.09147,-0.081359 0.09358,-0.2449406 0.168541,-0.3053015 h 0.557742 l 0.218469,0.349914 h 0.239923 l -0.02487,-3.4610842 -0.197907,0.00188 -0.220636,0.310111 -0.578458,0.00266 c -0.06927,-0.076547 -0.07406,-0.2283234 -0.162828,-0.307925 -0.06117,-0.054672 -6.971462,-0.048109 -7.032025,-0.038484 -0.311904,0.1229063 -0.492503,0.4956547 -0.896083,0.6226828 -0.412731,0.1298906 -1.4051933,-4.37e-5 -2.0992483,0.094437 z"
       id="path4870"
       inkscape:connector-curvature="0" />
    <path
       style="display:inline;opacity:1;fill:#000000;fill-opacity:1;stroke:none;stroke-width:0.04085739"
       d="m 8.9352888,19.131782 c -0.63482,0.08642 -1.2616229,0.239564 -1.8733468,0.430014 -0.244692,0.07617 -0.490297,0.159647 -0.7145131,0.283724 -0.1048734,0.05805 -0.2355059,0.10589 -0.2899169,0.212672 -0.0635,0.124562 -0.06745,0.295861 -0.00209,0.419421 0.05088,0.09609 0.17544,0.129547 0.27065,0.182079 0.2226868,0.122859 0.4147709,0.220026 0.6979229,0.308395 0.7381879,0.23039 1.3256399,0.413964 2.0088199,0.524525 0.7957129,0.128781 2.0038402,0.150562 2.4130772,0.15822 0.473648,0.0089 0.576201,0.558742 0.920908,0.585386 0,0 7.827855,0.03848 7.897545,-0.02319 0.103188,-0.09178 0.105547,-0.276325 0.19013,-0.344421 H 21.0668 l 0.246539,0.39475 h 0.270642 l -0.02809,-3.904562 -0.223283,0.002 -0.248892,0.349849 -0.635715,0.003 c -0.07813,-0.08634 -0.08353,-0.257573 -0.183672,-0.347379 -0.069,-0.06167 -7.881626,-0.05428 -7.949947,-0.04342 -0.351869,0.138656 -0.555606,0.559169 -1.010898,0.702469 -0.465614,0.146546 -1.5852571,-5e-5 -2.36823,0.106531 z"
       id="path4872"
       inkscape:connector-curvature="0" />
  </g>
</svg>
