<?xml version="1.0" encoding="UTF-8" standalone="no"?>
<!-- Created with Inkscape (http://www.inkscape.org/) -->

<svg
   xmlns:dc="http://purl.org/dc/elements/1.1/"
   xmlns:cc="http://creativecommons.org/ns#"
   xmlns:rdf="http://www.w3.org/1999/02/22-rdf-syntax-ns#"
   xmlns:svg="http://www.w3.org/2000/svg"
   xmlns="http://www.w3.org/2000/svg"
   xmlns:sodipodi="http://sodipodi.sourceforge.net/DTD/sodipodi-0.dtd"
   xmlns:inkscape="http://www.inkscape.org/namespaces/inkscape"
   width="100"
   height="100"
   viewBox="0 0 26.458333 26.458334"
   version="1.1"
   id="svg2317"
   inkscape:version="0.92.4 (5da689c313, 2019-01-14)"
   sodipodi:docname="03-in-fighter.svg">
  <defs
     id="defs2311" />
  <sodipodi:namedview
     id="base"
     pagecolor="#ffffff"
     bordercolor="#666666"
     borderopacity="1.0"
     inkscape:pageopacity="0.0"
     inkscape:pageshadow="2"
     inkscape:zoom="2.8"
     inkscape:cx="15.587224"
     inkscape:cy="43.963719"
     inkscape:document-units="px"
     inkscape:current-layer="layer1"
     showgrid="false"
     units="px"
     inkscape:window-width="1920"
     inkscape:window-height="1027"
     inkscape:window-x="-8"
     inkscape:window-y="-8"
     inkscape:window-maximized="1" />
  <metadata
     id="metadata2314">
    <rdf:RDF>
      <cc:Work
         rdf:about="">
        <dc:format>image/svg+xml</dc:format>
        <dc:type
           rdf:resource="http://purl.org/dc/dcmitype/StillImage" />
        <dc:title></dc:title>
      </cc:Work>
    </rdf:RDF>
  </metadata>
  <g
     inkscape:label="Layer 1"
     inkscape:groupmode="layer"
     id="layer1"
     transform="translate(0,-270.54165)">
    <path
       style="fill:#000000;fill-opacity:1;stroke:none;stroke-width:0.31224829"
       d="m 14.362634,274.21635 -0.09368,0.69319 0.665093,0.0405 0.08844,-0.33876 2.063964,-0.55537 0.413484,0.86278 -0.461337,0.73705 0.649479,0.61199 -0.025,1.05852 c 0,0 1.036666,1.18031 1.042907,1.18031 0.01567,0 -0.01243,3.75946 -0.01243,3.75946 l -2.023364,-1.65485 0.112416,-2.75402 h -0.821211 l -0.04062,2.10768 -1.617445,0.60576 -3.085016,-0.0375 -0.524575,-2.36372 -1.854759,-1.50191 -0.01875,-0.7619 0.85556,-0.48709 -1.033541,-2.59479 0.918009,-0.23419 0.946109,2.61978 0.883664,0.0119 0.48711,-0.20295 -0.215453,-0.76189 0.143632,-0.61513 -0.761885,-0.64322 1.202157,0.32161 -0.04062,-0.70569 0.446514,-0.21544 0.149882,0.66508 0.546438,-0.0468 0.184223,-1.15219 0.683824,0.0218 -0.234187,1.7361 0.380947,0.59328 z"
       id="path831"
       inkscape:connector-curvature="0"
       sodipodi:nodetypes="cccccccccsccccccccccccccccccccccccccccc" />
    <path
       style="fill:#000000;fill-opacity:1;stroke:none;stroke-width:0.31224829"
       d="m 3.2559584,281.11703 c 0,0 11.0473476,0.25293 11.0473476,0.25293 0,0 0.6807,-0.46838 0.6807,-0.46838 0,0 3.728245,2.79149 3.728245,2.79149 0,0 -1.658038,1.09288 -1.698632,1.13034 -0.03748,0.0405 -1.832898,-1.65803 -1.832898,-1.65803 0,0 -11.9247626,-2.04835 -11.9247626,-2.04835 z"
       id="path829"
       inkscape:connector-curvature="0" />
    <path
       style="fill:#000000;fill-opacity:1;stroke:none;stroke-width:0.31224829"
       d="m 11.452477,283.44016 2.419923,0.50585 -2.932008,4.14666 -0.06558,1.05852 -2.679089,2.32936 -0.35284,0.40905 0.0593,0.91801 0.46837,0.42777 v 1.56126 l -0.724413,0.83994 -2.9850933,0.0405 0.3492126,-1.2137 0.1782762,0.0136 0.7027678,-0.94796 0.037483,-0.48711 c 0,0 -0.7066439,-0.15634 -0.7104995,-0.17468 l 0.2472278,-1.03489 0.3170154,-0.0153 c 0.2048807,-0.19137 0.4097546,-0.22487 0.6146268,-0.31705 l 1.5612402,-2.59478 -0.115532,-1.28959 0.789989,-0.025 1.823531,-2.2763 0.99607,-1.87348 z"
       id="path827"
       inkscape:connector-curvature="0"
       sodipodi:nodetypes="cccccccccccccccsccccccccc" />
    <path
       style="fill:#000000;fill-opacity:1;stroke:none;stroke-width:0.31224829"
       d="m 18.693513,289.60707 c 0,0 -0.818087,0.78063 -0.839944,0.79934 -0.01875,0.0187 -0.156132,1.13034 -0.156132,1.13034 0,0 2.635375,0.78063 2.635375,0.80249 0,0.0187 2.070207,0.0967 2.070207,0.0967 l 0.799356,-0.60577 -0.572932,-0.76886 -0.148554,0.0399 -0.646168,-0.57618 -0.605759,-0.0405 0.118649,-0.68383 0.743146,-0.31225 0.05623,-1.3052 -1.579978,-0.0593 -0.07807,-1.46443 0.330977,-0.78063 -1.520644,-1.67988 -2.088945,1.30832 c -0.174859,1.4051 0.799355,2.41991 1.520652,2.88829"
       id="path825"
       inkscape:connector-curvature="0"
       sodipodi:nodetypes="cccsccccccccccccccc" />
  </g>
</svg>
