<?xml version="1.0" encoding="UTF-8" standalone="no"?>
<!-- Created with Inkscape (http://www.inkscape.org/) -->

<svg
   xmlns:dc="http://purl.org/dc/elements/1.1/"
   xmlns:cc="http://creativecommons.org/ns#"
   xmlns:rdf="http://www.w3.org/1999/02/22-rdf-syntax-ns#"
   xmlns:svg="http://www.w3.org/2000/svg"
   xmlns="http://www.w3.org/2000/svg"
   xmlns:sodipodi="http://sodipodi.sourceforge.net/DTD/sodipodi-0.dtd"
   xmlns:inkscape="http://www.inkscape.org/namespaces/inkscape"
   width="100"
   height="100"
   viewBox="0 0 26.458333 26.458334"
   version="1.1"
   id="svg2317"
   inkscape:version="0.92.4 (5da689c313, 2019-01-14)"
   sodipodi:docname="05-mid-shooter.svg">
  <defs
     id="defs2311" />
  <sodipodi:namedview
     id="base"
     pagecolor="#ffffff"
     bordercolor="#666666"
     borderopacity="1.0"
     inkscape:pageopacity="0.0"
     inkscape:pageshadow="2"
     inkscape:zoom="1.4"
     inkscape:cx="-141.52092"
     inkscape:cy="80.575822"
     inkscape:document-units="px"
     inkscape:current-layer="layer1"
     showgrid="false"
     units="px"
     inkscape:window-width="1920"
     inkscape:window-height="1027"
     inkscape:window-x="-8"
     inkscape:window-y="-8"
     inkscape:window-maximized="1"
     showguides="true"
     inkscape:guide-bbox="true" />
  <metadata
     id="metadata2314">
    <rdf:RDF>
      <cc:Work
         rdf:about="">
        <dc:format>image/svg+xml</dc:format>
        <dc:type
           rdf:resource="http://purl.org/dc/dcmitype/StillImage" />
        <dc:title></dc:title>
      </cc:Work>
    </rdf:RDF>
  </metadata>
  <g
     inkscape:label="Layer 1"
     inkscape:groupmode="layer"
     id="layer1"
     transform="translate(0,-270.54165)">
    <path
       style="fill:#000000;fill-opacity:1;stroke:none;stroke-width:0.31988594"
       d="m 11.242736,282.91335 c 0,0 -1.237962,0 -1.237962,0 0,0 0,-1.02684 0,-1.02684 0,0 1.708193,-1.78176 1.708193,-1.78176 0,0 0.918072,-0.12477 0.918072,-0.12477 0,0 -0.01282,-0.87649 -0.01282,-0.87649 0,0 -1.32113,-0.0415 -1.32113,-0.0543 0,-0.0163 -0.01282,-0.5726 -0.01282,-0.5726 0,0 0.332684,-0.1087 0.332684,-0.1087 0,0 -0.06083,-0.24631 -0.06083,-0.24631 0,0 -2.1400378,0.0609 -2.1400378,0.0415 0,-0.0224 -0.04478,-0.68776 -0.04478,-0.68776 0,0 1.6058308,-0.032 1.6058308,-0.032 0,0 1.378705,-1.22197 1.378705,-1.22197 0,0 0.09916,-0.57899 0.09916,-0.57899 0,0 -0.441442,-0.5534 -0.441442,-0.5534 0,0 -0.01282,-0.37747 -0.01282,-0.37747 0,0 0.454237,0.0511 0.454237,0.0511 0,0 0,-2.87897 0,-2.87897 0,0 0.822101,-0.0191 0.822101,-0.0191 0,0 0.01923,2.85979 0.01923,2.85979 0,0 0.598185,0.5182 0.598185,0.5182 0,0 0.582188,-0.0191 0.582188,-0.0191 0,0 0.399853,-0.92127 0.399853,-0.92127 0,0 -0.380661,-1.23797 -0.380661,-1.25716 0,-0.0224 0.70055,0.95966 0.70055,0.95966 0,0 0.09916,-0.2591 0.09916,-0.2591 0,0 0.818908,-0.88288 0.818908,-0.88288 0,0 0.281505,0 0.281505,0 0,0 0.300691,0.42223 0.300691,0.42223 0,0 0.07677,0.87968 0.07677,0.87968 0,0 1.202769,-1.78176 1.202769,-1.78176 0,0 0.738939,0.47985 0.738939,0.47985 0,0 -1.420296,1.9001 -1.420296,1.9001 0,0 -0.09916,0.84132 -0.09916,0.84132 0,0 2.098449,0.0608 2.098449,0.0608 0,0 0.62058,0.87649 0.62058,0.87649 0,0 -0.102357,1.08121 -0.07997,1.08121 0.01925,0 -1.141981,0.8605 -1.141981,0.8605 0,0 0,0.65897 0,0.65897 0,0 1.119592,-0.0608 1.119592,-0.0608 0,0 0.281498,-1.19958 0.281498,-1.19958 0,0 0.921277,0 0.921277,0 0,0 0.598189,0.63977 0.598189,0.63977 0,0 -0.07997,1.19958 -0.07997,1.19958 0,0 -0.559807,0.2815 -0.559807,0.2815 0,0 -1.100403,0.63977 -1.138798,0.65896 -0.0416,0.0191 -1.72098,0.0609 -1.72098,0.0609 0,0 0.02242,0.35828 0.02242,0.35828 0,0 0.658969,0.30068 0.658969,0.31987 0,0.0224 -0.102358,0.78053 -0.102358,0.78053 0,0 -0.73894,0.23992 -0.73894,0.23992 0,0 -0.05433,0.42225 -0.0256,0.42225 1.132397,0.26229 2.184825,0.87649 2.469522,1.83295 0,0 1.020438,-0.032 1.020438,-0.032 0,0 0.754927,0.5822 0.754927,0.5822 0,0 0.08638,1.59942 0.08638,1.59942 0,0 1.337123,0.11827 1.337123,0.11827 0,0 1.135593,1.07481 1.135593,1.07481 0,0 0.844497,2.15285 0.844497,2.15285 0,0 -1.164379,1.07481 -1.164379,1.07481 0,0 -1.513064,-0.52461 -1.513064,-0.52461 0,0 -2.092057,-1.62823 -2.092057,-1.62823 0,0 0,-0.72615 0,-0.72615 0,0 0.463836,-0.20471 0.463836,-0.20471 0,0 0,-0.78372 0,-0.78372 -0.684549,-0.13109 -1.637813,-0.92127 -2.005678,-1.77537 0,0 -2.181626,-1.07482 -2.181626,-1.07482 0,0 -0.706951,-0.10869 -0.687754,-0.10869 0.01917,0 -0.902079,0.70055 -0.921275,0.70055 -0.01918,0 -1.138793,-0.0191 -1.138793,-0.0191 0,0 -0.460639,-0.62058 -0.460639,-0.62058 0,0 -1.05882,0 -1.05882,0 0,0 -2.779805,2.81821 -2.779805,2.81821 -0.3998588,1.1004 -1.6378188,2.41833 -3.0581168,2.76061 0,0 -1.538646,1.79776 -1.538646,1.79776 0,0 -0.578998,1.9001 -0.578998,1.9001 0,0 -2.1624286,1.91933 -2.1400324,1.91933 0.019175,0 -1.5002698,-1.10042 -1.5002698,-1.10042 0,0 -0.019175,-1.43948 -0.019175,-1.43948 0,0 1.5194592,-2.65826 1.5194592,-2.65826 0,0 1.973697,-0.0163 1.973697,-0.0163 0,0 1.362709,-1.60584 1.362709,-1.60584 0.281505,-1.55783 1.72099,-2.87897 2.802207,-2.59747 0,0 2.3159678,-2.95895 2.3159678,-2.95895 0,0 0.06718,-0.38706 0.06718,-0.38706 z"
       id="path823"
       inkscape:connector-curvature="0" />
    <path
       style="fill:#000000;fill-opacity:1;stroke:none;stroke-width:0.31988594"
       d="m 7.7537002,274.18993 c -0.606705,0.004 -0.830833,0.28571 -1.095263,1.03908 l -1.400576,0.45511 -1.538824,0.25913 H 3.3001199 l -0.5182448,-0.27834 -1.6601901,0.0193 c -0.36787773,0.17911 -0.25269013,0.89568 -0.054329,1.126 l 1.912752,-0.0258 0.3486286,-0.28161 0.572603,0.009 0.3069256,0.30035 1.452612,0.0291 -0.01318,0.27177 h -1.448849 l -0.01923,0.28772 h 1.900096 l 0.0286,0.95028 c 0,0 -0.850497,0.65896 -0.869696,0.70054 -0.01918,0.0385 0.01917,0.56933 0.01917,0.56933 l 1.202394,0.0291 0.678505,-1.30829 0.0384,-0.97887 0.620399,0.0191 -0.04777,1.01074 -0.58245,1.28906 0.630242,-0.0191 0.911868,-1.64098 0.067,-1.21879 h 1.5416328 l 1.237991,-0.6396 v -0.92171 l -1.052426,-0.56277 -1.9014648,-0.001 c -0.355382,-0.40997 -0.566833,-0.50299 -0.848473,-0.48773 z m -0.03135,0.35392 c 0.47983,-0.0193 0.643976,0.37175 0.646205,0.8324 0.002,0.46152 -0.323067,0.77266 -0.660893,0.76843 -0.328735,-0.004 -0.615012,-0.377 -0.624171,-0.76366 -0.0094,-0.39787 0.159033,-0.81799 0.638859,-0.83717 z m -6.5400322,1.22557 c 0.1164226,-2.4e-4 0.2108679,0.21 0.2108606,0.46951 7.3e-6,0.25952 -0.094431,0.46981 -0.2108606,0.46952 -0.1162421,-2.3e-4 -0.21039493,-0.2104 -0.21038763,-0.46952 -7.3e-6,-0.25911 0.094142,-0.46924 0.21038763,-0.46951 z"
       id="path821"
       inkscape:connector-curvature="0"
       sodipodi:nodetypes="sccccccccccccccccccccccccccccccccccscsasccsccc" />
  </g>
</svg>
