<?xml version="1.0" encoding="UTF-8" standalone="no"?>
<!-- Created with Inkscape (http://www.inkscape.org/) -->

<svg
   xmlns:dc="http://purl.org/dc/elements/1.1/"
   xmlns:cc="http://creativecommons.org/ns#"
   xmlns:rdf="http://www.w3.org/1999/02/22-rdf-syntax-ns#"
   xmlns:svg="http://www.w3.org/2000/svg"
   xmlns="http://www.w3.org/2000/svg"
   xmlns:sodipodi="http://sodipodi.sourceforge.net/DTD/sodipodi-0.dtd"
   xmlns:inkscape="http://www.inkscape.org/namespaces/inkscape"
   version="1.1"
   id="svg815"
   width="100"
   height="100"
   viewBox="0 0 100 99.999996"
   sodipodi:docname="06-arm.svg"
   inkscape:version="0.92.4 (5da689c313, 2019-01-14)">
  <metadata
     id="metadata821">
    <rdf:RDF>
      <cc:Work
         rdf:about="">
        <dc:format>image/svg+xml</dc:format>
        <dc:type
           rdf:resource="http://purl.org/dc/dcmitype/StillImage" />
        <dc:title></dc:title>
      </cc:Work>
    </rdf:RDF>
  </metadata>
  <defs
     id="defs819" />
  <sodipodi:namedview
     pagecolor="#ffffff"
     bordercolor="#666666"
     borderopacity="1"
     objecttolerance="10"
     gridtolerance="10"
     guidetolerance="10"
     inkscape:pageopacity="0"
     inkscape:pageshadow="2"
     inkscape:window-width="1920"
     inkscape:window-height="1027"
     id="namedview817"
     showgrid="false"
     showguides="true"
     inkscape:guide-bbox="true"
     fit-margin-top="0"
     fit-margin-left="0"
     fit-margin-right="0"
     fit-margin-bottom="0"
     inkscape:zoom="3.5631552"
     inkscape:cx="-4.2556349"
     inkscape:cy="78.233817"
     inkscape:window-x="-8"
     inkscape:window-y="-8"
     inkscape:window-maximized="1"
     inkscape:current-layer="svg815" />
  <path
     style="fill:#000000;fill-opacity:1;fill-rule:evenodd;stroke:none;stroke-width:0.33764821px;stroke-linecap:butt;stroke-linejoin:miter;stroke-opacity:1"
     d="m 14.0702,51.029287 3.773644,-9.68221 6.813539,3.080094 -1.709307,4.041469 -5.446131,4.426527 z"
     id="path855"
     inkscape:connector-curvature="0"
     sodipodi:nodetypes="cccccc" />
  <path
     style="fill:#000000;fill-opacity:1;fill-rule:evenodd;stroke:none;stroke-width:0.33764821px;stroke-linecap:butt;stroke-linejoin:miter;stroke-opacity:1"
     d="m 19.374231,38.860678 7.668417,-9.389897 6.007665,5.149431 -7.2421,8.057233 z"
     id="path857"
     inkscape:connector-curvature="0" />
  <path
     style="fill:#000000;fill-opacity:1;fill-rule:evenodd;stroke:none;stroke-width:0.33764821px;stroke-linecap:butt;stroke-linejoin:miter;stroke-opacity:1"
     d="m 28.930454,27.159179 5.432795,6.000318 2.492487,1.636722 7.591706,-13.131613 -3.210998,-2.041803 -7.876744,2.686644 z"
     id="path859"
     inkscape:connector-curvature="0" />
  <path
     style="fill:#000000;fill-opacity:1;fill-rule:evenodd;stroke:none;stroke-width:0.33764821px;stroke-linecap:butt;stroke-linejoin:miter;stroke-opacity:1"
     d="m 56.174555,11.939602 -2.368615,3.529987 7.456373,4.521011 1.151363,-1.923433 15.714847,9.386428 -1.092414,1.824962 6.666664,4.0773 2.227027,-3.838103 z"
     id="path861"
     inkscape:connector-curvature="0"
     sodipodi:nodetypes="ccccccccc" />
  <path
     style="fill:#000000;fill-opacity:1;fill-rule:evenodd;stroke:none;stroke-width:0.33764821px;stroke-linecap:butt;stroke-linejoin:miter;stroke-opacity:1"
     d="m 51.234467,16.789739 -16.807233,28.174098 32.645047,19.757692 17.079076,-28.600778 -8.307569,-4.850343 -1.253809,2.094584 -15.733225,-9.355736 1.220365,-2.0387 z"
     id="path865"
     inkscape:connector-curvature="0"
     sodipodi:nodetypes="ccccccccc" />
  <path
     style="fill:#000000;fill-opacity:1;fill-rule:evenodd;stroke:none;stroke-width:0.33764821px;stroke-linecap:butt;stroke-linejoin:miter;stroke-opacity:1"
     d="M 63.412723,21.044491 75.2058,27.946126 73.668726,30.490678 61.934519,23.405966 Z"
     id="path871"
     inkscape:connector-curvature="0"
     sodipodi:nodetypes="ccccc" />
  <path
     inkscape:connector-curvature="0"
     id="path890"
     d="m 28.234392,56.296707 5.204625,-7.636823 6.05505,3.680642 -5.536406,7.867708 z"
     style="fill:#000000;fill-opacity:1;fill-rule:evenodd;stroke:none;stroke-width:0.33764821px;stroke-linecap:butt;stroke-linejoin:miter;stroke-opacity:1"
     sodipodi:nodetypes="ccccc" />
  <path
     sodipodi:nodetypes="ccccc"
     style="fill:#000000;fill-opacity:1;fill-rule:evenodd;stroke:none;stroke-width:0.33764821px;stroke-linecap:butt;stroke-linejoin:miter;stroke-opacity:1"
     d="m 45.433518,66.862559 4.493906,-8.442286 6.102429,3.538497 -4.304502,8.34151 z"
     id="path892"
     inkscape:connector-curvature="0" />
  <path
     inkscape:connector-curvature="0"
     id="path903"
     d="m 36.525982,62.219269 5.488904,-8.394908 5.770764,3.348973 -5.204735,8.862702 z"
     style="fill:#000000;fill-opacity:1;fill-rule:evenodd;stroke:none;stroke-width:0.33764821px;stroke-linecap:butt;stroke-linejoin:miter;stroke-opacity:1"
     sodipodi:nodetypes="ccccc" />
  <path
     inkscape:connector-curvature="0"
     id="path905"
     d="m 55.478184,70.273956 3.262021,-6.452309 5.486482,3.159456 -3.120001,6.30415 z"
     style="fill:#000000;fill-opacity:1;fill-rule:evenodd;stroke:none;stroke-width:0.33764821px;stroke-linecap:butt;stroke-linejoin:miter;stroke-opacity:1"
     sodipodi:nodetypes="ccccc" />
  <path
     sodipodi:nodetypes="ccccc"
     style="fill:#000000;fill-opacity:1;fill-rule:evenodd;stroke:none;stroke-width:0.33764821px;stroke-linecap:butt;stroke-linejoin:miter;stroke-opacity:1"
     d="m 23.401582,62.929982 3.593688,-4.841376 5.533856,3.728023 -3.546418,5.072255 z"
     id="path907"
     inkscape:connector-curvature="0" />
  <path
     inkscape:connector-curvature="0"
     id="path909"
     d="m 32.024832,69.468487 3.22277,-5.106024 6.046923,3.850531 -3.451661,5.309161 z"
     style="fill:#000000;fill-opacity:1;fill-rule:evenodd;stroke:none;stroke-width:0.33764821px;stroke-linecap:butt;stroke-linejoin:miter;stroke-opacity:1"
     sodipodi:nodetypes="ccccc" />
  <path
     sodipodi:nodetypes="ccccc"
     style="fill:#000000;fill-opacity:1;fill-rule:evenodd;stroke:none;stroke-width:0.33764821px;stroke-linecap:butt;stroke-linejoin:miter;stroke-opacity:1"
     d="m 41.406174,74.964631 2.930358,-5.931126 6.197182,3.254216 -3.262132,5.97249 z"
     id="path911"
     inkscape:connector-curvature="0" />
  <path
     inkscape:connector-curvature="0"
     id="path913"
     d="m 51.545595,78.328646 2.97774,-5.978501 5.486483,2.875165 -3.072617,5.782963 z"
     style="fill:#000000;fill-opacity:1;fill-rule:evenodd;stroke:none;stroke-width:0.33764821px;stroke-linecap:butt;stroke-linejoin:miter;stroke-opacity:1"
     sodipodi:nodetypes="ccccc" />
  <path
     inkscape:connector-curvature="0"
     id="path915"
     d="m 18.186598,72.46854 c -0.394032,-0.659625 -0.285448,-1.70042 0.1571,-2.328531 l 3.793624,-5.384283 5.533859,3.694511 -4.724094,5.339095 c -0.579472,0.654917 -1.307341,0.807098 -2.13913,0.537238 -0.940819,-0.305242 -2.116058,-1.01213 -2.621359,-1.85803 z"
     style="fill:#000000;fill-opacity:1;fill-rule:evenodd;stroke:none;stroke-width:0.33764821px;stroke-linecap:butt;stroke-linejoin:miter;stroke-opacity:1"
     sodipodi:nodetypes="ssccsss" />
  <path
     sodipodi:nodetypes="ssccsss"
     style="fill:#000000;fill-opacity:1;fill-rule:evenodd;stroke:none;stroke-width:0.33764821px;stroke-linecap:butt;stroke-linejoin:miter;stroke-opacity:1"
     d="m 27.299436,79.135659 c -0.226518,-0.82715 0.235855,-1.8342 0.626145,-2.496052 l 3.056555,-5.183265 5.634368,3.862023 -4.15454,4.903561 c -0.565292,0.667197 -1.943899,1.242632 -2.775689,0.972773 -0.94082,-0.305234 -2.126586,-1.108704 -2.386839,-2.05904 z"
     id="path917"
     inkscape:connector-curvature="0" />
  <path
     inkscape:connector-curvature="0"
     id="path919"
     d="m 38.333852,83.989534 c -0.394031,-0.659624 -0.0085,-2.132799 0.322936,-2.826029 l 2.064233,-4.318221 5.642493,3.138142 -3.550085,4.683895 c -0.571434,0.753939 -1.002739,0.928921 -1.952971,0.895959 -0.988505,-0.03429 -2.021304,-0.727844 -2.526606,-1.573746 z"
     style="fill:#000000;fill-opacity:1;fill-rule:evenodd;stroke:none;stroke-width:0.33764821px;stroke-linecap:butt;stroke-linejoin:miter;stroke-opacity:1"
     sodipodi:nodetypes="ssccsss" />
  <path
     sodipodi:nodetypes="csccsssc"
     style="fill:#000000;fill-opacity:1;fill-rule:evenodd;stroke:none;stroke-width:0.33764821px;stroke-linecap:butt;stroke-linejoin:miter;stroke-opacity:1"
     d="m 48.892376,86.872773 c -0.370345,-0.707005 -0.278613,-1.466989 -0.0087,-2.186386 l 1.851019,-4.766662 5.168694,2.591586 -2.815695,4.210092 c -0.486141,0.726889 -0.863572,1.212378 -1.810825,1.32238 -0.91452,0.1062 -1.927257,-0.298177 -2.384463,-1.17101 z"
     id="path921"
     inkscape:connector-curvature="0" />
</svg>
