<?xml version="1.0" encoding="UTF-8" standalone="no"?>
<!-- Created with Inkscape (http://www.inkscape.org/) -->

<svg
   xmlns:dc="http://purl.org/dc/elements/1.1/"
   xmlns:cc="http://creativecommons.org/ns#"
   xmlns:rdf="http://www.w3.org/1999/02/22-rdf-syntax-ns#"
   xmlns:svg="http://www.w3.org/2000/svg"
   xmlns="http://www.w3.org/2000/svg"
   xmlns:sodipodi="http://sodipodi.sourceforge.net/DTD/sodipodi-0.dtd"
   xmlns:inkscape="http://www.inkscape.org/namespaces/inkscape"
   version="1.1"
   id="svg1244"
   width="100"
   height="100"
   viewBox="0 0 100 100"
   sodipodi:docname="20-module.svg"
   inkscape:version="0.92.4 (5da689c313, 2019-01-14)">
  <metadata
     id="metadata1250">
    <rdf:RDF>
      <cc:Work
         rdf:about="">
        <dc:format>image/svg+xml</dc:format>
        <dc:type
           rdf:resource="http://purl.org/dc/dcmitype/StillImage" />
        <dc:title></dc:title>
      </cc:Work>
    </rdf:RDF>
  </metadata>
  <defs
     id="defs1248" />
  <sodipodi:namedview
     pagecolor="#ffffff"
     bordercolor="#666666"
     borderopacity="1"
     objecttolerance="10"
     gridtolerance="10"
     guidetolerance="10"
     inkscape:pageopacity="0"
     inkscape:pageshadow="2"
     inkscape:window-width="1920"
     inkscape:window-height="1027"
     id="namedview1246"
     showgrid="false"
     showguides="true"
     inkscape:guide-bbox="true"
     inkscape:snap-bbox="true"
     inkscape:object-paths="true"
     inkscape:snap-intersection-paths="true"
     inkscape:bbox-paths="true"
     inkscape:bbox-nodes="true"
     inkscape:snap-bbox-edge-midpoints="true"
     inkscape:snap-bbox-midpoints="true"
     inkscape:snap-smooth-nodes="true"
     inkscape:zoom="4.0000001"
     inkscape:cx="-45.798886"
     inkscape:cy="44.190683"
     inkscape:window-x="-8"
     inkscape:window-y="-8"
     inkscape:window-maximized="1"
     inkscape:current-layer="svg1244"
     fit-margin-top="0"
     fit-margin-left="0"
     fit-margin-right="0"
     fit-margin-bottom="0" />
  <path
     style="opacity:1;fill:#000000;fill-opacity:1;fill-rule:evenodd;stroke:none;stroke-width:1.79998815;stroke-linecap:round;stroke-linejoin:round;stroke-miterlimit:4;stroke-dasharray:none;stroke-dashoffset:0;stroke-opacity:1"
     d="m 65.960018,8.22774 v 9e-4 l -1.813167,4.454265 -9e-4,0.0081 a 22.91116,22.91116 0 0 0 -1.794716,-0.07821 22.91116,22.91116 0 0 0 -1.793835,0.08964 L 60.5556,12.683085 58.745062,8.231457 A 27.562316,27.562316 0 0 0 55.23913,8.907335 l 0.02988,4.8278 0.0045,0.01323 a 22.91116,22.91116 0 0 0 -3.311696,1.381627 l -0.01053,-0.02106 -3.374977,-3.418046 a 27.562316,27.562316 0 0 0 -2.977716,1.970494 l 1.871178,4.441963 0.0053,0.0063 a 22.91116,22.91116 0 0 0 -2.524201,2.550568 l -0.0202,-0.01755 -4.427026,-1.865906 a 27.562316,27.562316 0 0 0 -1.992466,2.965403 l 3.425076,3.382893 a 22.91116,22.91116 0 0 0 -1.347358,3.325762 l -0.02727,-0.009 -4.804947,-0.02988 a 27.562316,27.562316 0 0 0 -0.700483,3.503294 l 4.454269,1.813167 0.0079,9e-4 a 22.91116,22.91116 0 0 0 -0.07822,1.794716 22.91116,22.91116 0 0 0 0.08965,1.793843 l -0.01935,0.0018 -4.451632,1.81053 a 27.562316,27.562316 0 0 0 0.675873,3.505049 l 4.827802,-0.02907 0.01319,-0.0045 a 22.91116,22.91116 0 0 0 1.38163,3.310822 l -0.0211,0.01053 -3.418924,3.375864 a 27.562316,27.562316 0 0 0 1.971374,2.977706 l 4.441966,-1.871171 0.0062,-0.0054 a 22.91116,22.91116 0 0 0 2.55057,2.524198 l -0.0176,0.02025 -1.865904,4.427023 a 27.562316,27.562316 0 0 0 2.964531,1.99159 l 3.383766,-3.424194 a 22.91116,22.91116 0 0 0 3.325762,1.347356 l -0.0087,0.02637 -0.02988,4.805831 a 27.562316,27.562316 0 0 0 3.5033,0.700475 l 1.813175,-4.454265 9e-4,-0.0081 a 22.91116,22.91116 0 0 0 1.794717,0.07821 22.91116,22.91116 0 0 0 1.793834,-0.08964 l 0.0018,0.01935 1.81053,4.451628 a 27.562316,27.562316 0 0 0 3.505931,-0.67587 l -0.02988,-4.827808 -0.0045,-0.01314 a 22.91116,22.91116 0 0 0 3.311704,-1.381627 l 0.01053,0.02106 3.374982,3.418038 a 27.562316,27.562316 0 0 0 2.977715,-1.970494 l -1.87118,-4.441963 -0.0054,-0.0063 a 22.91116,22.91116 0 0 0 2.524198,-2.550568 l 0.02025,0.01755 4.427023,1.865906 a 27.562316,27.562316 0 0 0 1.992463,-2.965412 l -3.425076,-3.382884 a 22.91116,22.91116 0 0 0 1.347356,-3.325762 l 0.02718,0.009 4.804948,0.02988 a 27.562316,27.562316 0 0 0 0.700485,-3.503294 l -4.454266,-1.813167 -0.0081,-0.0018 a 22.91116,22.91116 0 0 0 0.07821,-1.794716 22.91116,22.91116 0 0 0 -0.08964,-1.793843 l 0.01935,-0.0018 4.451638,-1.81053 a 27.562316,27.562316 0 0 0 -0.675879,-3.505058 l -4.827799,0.02898 -0.01314,0.0045 a 22.91116,22.91116 0 0 0 -1.381628,-3.310822 l 0.02106,-0.01053 3.41892,-3.375855 a 27.562316,27.562316 0 0 0 -1.971376,-2.977715 l -4.441954,1.87118 -0.0063,0.0054 A 22.91116,22.91116 0 0 0 77.21488,18.122432 l 0.01764,-0.02025 1.865906,-4.42615 a 27.562316,27.562316 0 0 0 -2.96453,-1.992463 l -3.383775,3.424193 a 22.91116,22.91116 0 0 0 -3.325753,-1.347355 l 0.009,-0.02637 0.02988,-4.805831 A 27.562316,27.562316 0 0 0 65.959954,8.227722 Z m -3.624587,10.698855 a 16.597553,16.597553 0 0 1 9e-4,0 16.597553,16.597553 0 0 1 0.01494,0 16.597553,16.597553 0 0 1 16.452137,14.572174 h -6.596146 a 10.062946,10.062946 0 0 0 -9.855991,-8.037552 10.062946,10.062946 0 0 0 -3.170197,0.521188 l -3.303781,-5.722521 a 16.597553,16.597553 0 0 1 6.458156,-1.333289 z m -9.966729,3.356523 3.305547,5.726031 a 10.062946,10.062946 0 0 0 -3.385525,7.5146 10.062946,10.062946 0 0 0 3.38728,7.513718 l -3.304665,5.722521 A 16.597553,16.597553 0 0 1 45.754096,35.523749 16.597553,16.597553 0 0 1 52.368702,22.283118 Z m 9.982551,7.592819 a 5.6479773,5.6479773 0 0 1 5.647821,5.647812 5.6479773,5.6479773 0 0 1 -5.647821,5.647812 5.6479773,5.6479773 0 0 1 -5.647812,-5.647812 5.6479773,5.6479773 0 0 1 5.647812,-5.647812 z m 9.845443,7.672801 h 6.613732 A 16.597553,16.597553 0 0 1 62.351253,52.121785 16.597553,16.597553 0 0 1 55.868486,50.802554 l 3.314334,-5.740098 a 10.062946,10.062946 0 0 0 3.168433,0.524706 10.062946,10.062946 0 0 0 9.845443,-8.038424 z"
     id="path857"
     inkscape:connector-curvature="0" />
  <path
     style="opacity:1;fill:#000000;fill-opacity:1;fill-rule:evenodd;stroke:none;stroke-width:1.79998815;stroke-linecap:round;stroke-linejoin:round;stroke-miterlimit:4;stroke-dasharray:none;stroke-dashoffset:0;stroke-opacity:1"
     d="m 60.770114,64.90979 a 13.431319,13.431319 0 0 0 -0.280366,0.0097 l -0.656547,2.525071 9e-4,0.01143 a 10.936754,10.936754 0 0 0 -2.638462,0.556341 l -0.0027,-0.0072 -1.621572,-2.033773 a 13.431319,13.431319 0 0 0 -2.915315,1.680453 l 0.95097,2.423129 0.0018,0.0018 a 10.936754,10.936754 0 0 0 -1.796474,2.013569 l -0.01143,-0.0081 -2.503986,-0.692583 a 13.431319,13.431319 0 0 0 -1.380753,3.067364 l 2.200769,1.406243 0.007,0.0018 a 10.936754,10.936754 0 0 0 -0.109862,0.495699 10.936754,10.936754 0 0 0 -0.178415,2.187582 h -9e-4 l -2.441585,0.916699 a 13.431319,13.431319 0 0 0 0.706635,3.288844 l 2.596276,-0.155564 0.007,-0.0027 a 10.936754,10.936754 0 0 0 1.35175,2.333471 l -0.0097,0.0072 -1.431728,2.169133 a 13.431319,13.431319 0 0 0 2.491683,2.259654 l 2.017076,-1.658484 0.0027,-0.0045 a 10.936754,10.936754 0 0 0 2.467954,1.089831 l -0.0036,0.01233 0.116018,2.598916 a 13.431319,13.431319 0 0 0 3.064727,0.369133 13.431319,13.431319 0 0 0 0.278612,-0.0097 l 0.656537,-2.525081 -9e-4,-0.01143 a 10.936754,10.936754 0 0 0 2.640217,-0.557224 l 0.0027,0.0072 1.621567,2.034656 a 13.431319,13.431319 0 0 0 2.914436,-1.67958 l -0.951844,-2.424885 -9e-4,-0.0018 a 10.936754,10.936754 0 0 0 1.797345,-2.013568 l 0.01053,0.009 2.505748,0.6917 a 13.431319,13.431319 0 0 0 1.378991,-3.068245 l -2.200758,-1.405352 -0.0054,-0.0018 a 10.936754,10.936754 0 0 0 0.10898,-0.495699 10.936754,10.936754 0 0 0 0.178415,-2.188474 l 2.44247,-0.916681 a 13.431319,13.431319 0 0 0 -0.707522,-3.28797 l -2.595388,0.155564 -0.0072,0.0036 a 10.936754,10.936754 0 0 0 -1.351757,-2.333481 l 0.009,-0.0072 1.432612,-2.16825 a 13.431319,13.431319 0 0 0 -2.492564,-2.261409 l -2.016196,1.658484 -0.0027,0.0054 a 10.936754,10.936754 0 0 0 -2.467949,-1.089831 l 0.0036,-0.01314 -0.116018,-2.598034 a 13.431319,13.431319 0 0 0 -3.064727,-0.369133 z m 0.09843,5.51949 a 7.9229226,7.9229226 0 0 1 0.373534,0.01323 l -0.570408,3.096371 a 4.8035961,4.8035961 0 0 0 -4.625649,3.932205 4.8035961,4.8035961 0 0 0 -0.02902,1.533682 L 53.044559,80.0612 a 7.9229226,7.9229226 0 0 1 -0.06767,-3.147337 7.9229226,7.9229226 0 0 1 0.0018,-0.0072 7.9229226,7.9229226 0 0 1 7.889897,-6.4775 z m 2.274594,0.36035 a 7.9229226,7.9229226 0 0 1 5.41843,8.986758 7.9229226,7.9229226 0 0 1 -1.179489,2.929376 L 64.97389,80.653532 a 4.8035961,4.8035961 0 0 0 0.520305,-1.442278 4.8035961,4.8035961 0 0 0 -2.922338,-5.317343 z m -2.343147,4.855924 a 2.6960893,2.6960893 0 0 1 0.457909,0.04392 2.6960893,2.6960893 0 0 1 2.162976,3.140318 2.6960893,2.6960893 0 0 1 -3.139435,2.162967 2.6960893,2.6960893 0 0 1 -2.162977,-3.139435 2.6960893,2.6960893 0 0 1 2.681527,-2.207814 z M 56.664765,80.8258 a 4.8035961,4.8035961 0 0 0 3.235231,2.23944 4.8035961,4.8035961 0 0 0 3.819706,-0.940432 l 2.401151,2.046085 a 7.9229226,7.9229226 0 0 1 -6.785991,1.961702 7.9229226,7.9229226 0 0 1 -5.644297,-4.24948 z"
     id="path847"
     inkscape:connector-curvature="0" />
  <path
     style="opacity:1;fill:#000000;fill-opacity:1;fill-rule:evenodd;stroke:none;stroke-width:2.41010809;stroke-linecap:round;stroke-linejoin:round;stroke-miterlimit:4;stroke-dasharray:none;stroke-dashoffset:0;stroke-opacity:1"
     d="m 29.970801,50.709395 -1.249796,3.249298 -9e-4,0.0097 a 14.643851,14.643851 0 0 0 -3.593824,0.35332 l -0.0035,-0.01494 -1.847449,-2.948708 a 17.98397,17.98397 0 0 0 -4.138743,1.783286 l 0.902631,3.376737 0.0053,0.0063 a 14.643851,14.643851 0 0 0 -2.697345,2.402916 l -0.01407,-0.01143 -3.230839,-1.299899 a 17.98397,17.98397 0 0 0 -2.14979,3.529664 17.98397,17.98397 0 0 0 -0.14414,0.347164 l 2.713166,2.200767 0.01407,0.0054 a 14.643851,14.643851 0 0 0 -0.785738,3.52439 l -0.0097,-9e-4 -3.378493,0.848147 a 17.98397,17.98397 0 0 0 0.430666,4.485047 l 3.480445,0.185453 0.0035,-0.0018 a 14.643851,14.643851 0 0 0 1.457217,3.306421 l -0.01582,0.0097 -2.233286,2.667459 a 17.98397,17.98397 0 0 0 2.971562,3.383775 l 2.93465,-1.90106 0.0061,-0.0081 a 14.643851,14.643851 0 0 0 0.543161,0.408687 14.643851,14.643851 0 0 0 2.567267,1.430849 l -9e-4,0.0018 -0.237303,3.483953 a 17.98397,17.98397 0 0 0 4.399776,0.963283 l 1.250676,-3.25018 9e-4,-0.0096 a 14.643851,14.643851 0 0 0 3.592945,-0.35332 l 0.0035,0.01584 1.849205,2.947836 a 17.98397,17.98397 0 0 0 4.136107,-1.782414 l -0.90263,-3.378492 -0.0036,-0.0063 a 14.643851,14.643851 0 0 0 2.697345,-2.402033 l 0.01319,0.01053 3.231716,1.300772 a 17.98397,17.98397 0 0 0 2.149789,-3.530537 17.98397,17.98397 0 0 0 0.143261,-0.344537 l -2.713162,-2.200758 -0.01494,-0.0054 a 14.643851,14.643851 0 0 0 0.78574,-3.526154 h 0.01053 l 3.378496,-0.847256 a 17.98397,17.98397 0 0 0 -0.429783,-4.483272 l -3.483085,-0.185453 h -0.0018 a 14.643851,14.643851 0 0 0 -1.456339,-3.307302 l 0.01584,-0.0081 2.232409,-2.670097 a 17.98397,17.98397 0 0 0 -2.97332,-3.382884 l -2.933774,1.902815 -0.0045,0.0063 a 14.643851,14.643851 0 0 0 -0.54316,-0.407815 14.643851,14.643851 0 0 0 -2.568147,-1.43173 l 0.238184,-3.484836 a 17.98397,17.98397 0 0 0 -4.399777,-0.962401 z m -2.059264,7.293111 a 10.608459,10.608459 0 0 1 9e-4,0 10.608459,10.608459 0 0 1 6.479257,1.895786 10.608459,10.608459 0 0 1 2.91531,3.062972 l -3.837278,1.795599 a 6.4318123,6.4318123 0 0 0 -1.468664,-1.433495 6.4318123,6.4318123 0 0 0 -8.100826,0.610836 l -3.466384,-2.417846 a 10.608459,10.608459 0 0 1 7.477685,-3.513852 z m -8.955117,5.637274 3.456716,2.413463 a 6.4318123,6.4318123 0 0 0 2.225376,7.817817 6.4318123,6.4318123 0 0 0 1.853601,0.88681 l -0.362106,4.208171 a 10.608459,10.608459 0 0 1 -3.872437,-1.663758 10.608459,10.608459 0 0 1 -0.0079,-0.0063 10.608459,10.608459 0 0 1 -3.51648,-13.208114 10.608459,10.608459 0 0 1 0.22324,-0.448233 z m 9.502673,1.350865 a 3.6099498,3.6099498 0 0 1 1.927428,0.647754 3.6099498,3.6099498 0 0 1 0.893842,5.025546 3.6099498,3.6099498 0 0 1 -5.025553,0.893848 3.6099498,3.6099498 0 0 1 -1.203215,-4.492065 3.6099498,3.6099498 0 0 1 0.307616,-0.534372 3.6099498,3.6099498 0 0 1 3.099882,-1.540711 z m 9.93333,0.319922 a 10.608459,10.608459 0 0 1 -1.373719,9.357655 10.608459,10.608459 0 0 1 -8.310004,4.521063 l 0.361228,-4.210817 a 6.4318123,6.4318123 0 0 0 4.524582,-2.699976 6.4318123,6.4318123 0 0 0 0.972938,-5.176728 z"
     id="path837"
     inkscape:connector-curvature="0" />
</svg>
