<?xml version="1.0" encoding="UTF-8" standalone="no"?>
<!-- Created with Inkscape (http://www.inkscape.org/) -->

<svg
   xmlns:dc="http://purl.org/dc/elements/1.1/"
   xmlns:cc="http://creativecommons.org/ns#"
   xmlns:rdf="http://www.w3.org/1999/02/22-rdf-syntax-ns#"
   xmlns:svg="http://www.w3.org/2000/svg"
   xmlns="http://www.w3.org/2000/svg"
   xmlns:sodipodi="http://sodipodi.sourceforge.net/DTD/sodipodi-0.dtd"
   xmlns:inkscape="http://www.inkscape.org/namespaces/inkscape"
   width="100"
   height="100"
   viewBox="0 0 26.458334 26.458334"
   version="1.1"
   id="svg877"
   inkscape:version="0.92.4 (5da689c313, 2019-01-14)"
   sodipodi:docname="21-dual-sabers.svg">
  <defs
     id="defs871" />
  <sodipodi:namedview
     id="base"
     pagecolor="#ffffff"
     bordercolor="#666666"
     borderopacity="1.0"
     inkscape:pageopacity="0.0"
     inkscape:pageshadow="2"
     inkscape:zoom="3.959798"
     inkscape:cx="6.8461255"
     inkscape:cy="66.281301"
     inkscape:document-units="mm"
     inkscape:current-layer="layer1"
     showgrid="false"
     fit-margin-top="0"
     fit-margin-left="0"
     fit-margin-right="0"
     fit-margin-bottom="0"
     units="px"
     showguides="true"
     inkscape:guide-bbox="true"
     inkscape:window-width="1920"
     inkscape:window-height="1027"
     inkscape:window-x="-8"
     inkscape:window-y="-8"
     inkscape:window-maximized="1" />
  <metadata
     id="metadata874">
    <rdf:RDF>
      <cc:Work
         rdf:about="">
        <dc:format>image/svg+xml</dc:format>
        <dc:type
           rdf:resource="http://purl.org/dc/dcmitype/StillImage" />
        <dc:title></dc:title>
      </cc:Work>
    </rdf:RDF>
  </metadata>
  <g
     inkscape:label="Layer 1"
     inkscape:groupmode="layer"
     id="layer1"
     transform="translate(-273.95712,-258.14405)">
    <path
       style="opacity:1;fill:#000000;fill-opacity:1;fill-rule:evenodd;stroke:none;stroke-width:0.11906111px;stroke-linecap:butt;stroke-linejoin:miter;stroke-opacity:1"
       d="m 289.24218,274.95441 c 1.0398,-7.9119 3.46372,-12.04586 5.60225,-14.72319 0.0238,1.73033 0.23249,2.60206 0.51026,3.47616 -1.96495,2.50841 -3.0837,6.72002 -2.76391,9.75876 -0.74822,0.20377 -1.2752,0.94551 -1.48702,1.98707 z"
       id="path901"
       inkscape:connector-curvature="0" />
    <path
       style="opacity:1;fill:#000000;fill-opacity:1;fill-rule:evenodd;stroke:none;stroke-width:0.11906111px;stroke-linecap:butt;stroke-linejoin:miter;stroke-opacity:1"
       d="m 287.85756,276.4347 1.18264,-0.66175 2.28229,0.61154 0.94315,-0.23454 0.40867,0.62868 -1.71123,0.97654 -0.477,-0.0717 -0.61669,0.27936 -0.71268,2.65976 -0.89427,-0.23961 0.71399,-2.66464 -0.32954,-0.58378 -0.44464,-0.11914 z"
       id="path903"
       inkscape:connector-curvature="0" />
    <path
       style="opacity:1;fill:#000000;fill-opacity:1;fill-rule:evenodd;stroke:none;stroke-width:0.11906111px;stroke-linecap:butt;stroke-linejoin:miter;stroke-opacity:1"
       d="m 287.27338,282.03084 0.14084,-0.52561 0.62711,-0.29708 0.89427,0.23961 0.28631,0.54184 -0.14084,0.52561 z"
       id="path905"
       inkscape:connector-curvature="0" />
    <path
       style="opacity:1;fill:#000000;fill-opacity:1;fill-rule:evenodd;stroke:none;stroke-width:0.11906111px;stroke-linecap:butt;stroke-linejoin:miter;stroke-opacity:1"
       d="m 281.22499,274.70234 c 1.33217,-7.65119 3.60832,-10.83329 5.95921,-13.87611 -0.0668,1.7292 0.0747,2.54687 0.30637,3.43431 -1.95534,2.24268 -3.20061,6.44728 -2.99779,9.17968 -0.73154,0.22823 -1.37555,0.92634 -1.43488,1.85766 z"
       id="path931"
       inkscape:connector-curvature="0" />
    <path
       style="opacity:1;fill:#000000;fill-opacity:1;fill-rule:evenodd;stroke:none;stroke-width:0.11906111px;stroke-linecap:butt;stroke-linejoin:miter;stroke-opacity:1"
       d="m 279.86529,276.0279 1.16845,-0.60622 2.06496,0.67094 1.04186,-0.15635 0.31935,0.59864 -1.70543,0.90337 -0.46726,-0.10299 -0.53274,0.31096 -0.8052,2.47815 -0.8805,-0.28609 0.80676,-2.48295 -0.29853,-0.60022 -0.4378,-0.14226 z"
       id="path933"
       inkscape:connector-curvature="0" />
    <path
       style="opacity:1;fill:#000000;fill-opacity:1;fill-rule:evenodd;stroke:none;stroke-width:0.11906111px;stroke-linecap:butt;stroke-linejoin:miter;stroke-opacity:1"
       d="m 279.01789,281.3612 0.16816,-0.51752 0.6418,-0.26386 0.88049,0.28609 0.25756,0.55608 -0.16815,0.51753 z"
       id="path935"
       inkscape:connector-curvature="0" />
  </g>
</svg>
