<?xml version="1.0" encoding="UTF-8" standalone="no"?>
<!-- Created with Inkscape (http://www.inkscape.org/) -->

<svg
   xmlns:dc="http://purl.org/dc/elements/1.1/"
   xmlns:cc="http://creativecommons.org/ns#"
   xmlns:rdf="http://www.w3.org/1999/02/22-rdf-syntax-ns#"
   xmlns:svg="http://www.w3.org/2000/svg"
   xmlns="http://www.w3.org/2000/svg"
   xmlns:sodipodi="http://sodipodi.sourceforge.net/DTD/sodipodi-0.dtd"
   xmlns:inkscape="http://www.inkscape.org/namespaces/inkscape"
   version="1.1"
   id="svg1069"
   width="100"
   height="100"
   viewBox="0 0 100 100"
   sodipodi:docname="30-bazooka.svg"
   inkscape:version="0.92.4 (5da689c313, 2019-01-14)">
  <metadata
     id="metadata1075">
    <rdf:RDF>
      <cc:Work
         rdf:about="">
        <dc:format>image/svg+xml</dc:format>
        <dc:type
           rdf:resource="http://purl.org/dc/dcmitype/StillImage" />
        <dc:title></dc:title>
      </cc:Work>
    </rdf:RDF>
  </metadata>
  <defs
     id="defs1073" />
  <sodipodi:namedview
     pagecolor="#ffffff"
     bordercolor="#666666"
     borderopacity="1"
     objecttolerance="10"
     gridtolerance="10"
     guidetolerance="10"
     inkscape:pageopacity="0"
     inkscape:pageshadow="2"
     inkscape:window-width="1920"
     inkscape:window-height="1027"
     id="namedview1071"
     showgrid="false"
     showguides="true"
     inkscape:guide-bbox="true"
     inkscape:snap-bbox="true"
     inkscape:snap-intersection-paths="true"
     inkscape:object-paths="true"
     inkscape:bbox-paths="true"
     inkscape:bbox-nodes="true"
     inkscape:snap-smooth-nodes="true"
     inkscape:zoom="4"
     inkscape:cx="-31.867592"
     inkscape:cy="53.709289"
     inkscape:window-x="-8"
     inkscape:window-y="-8"
     inkscape:window-maximized="1"
     inkscape:current-layer="svg1069"
     fit-margin-top="0"
     fit-margin-left="0"
     fit-margin-right="0"
     fit-margin-bottom="0" />
  <path
     style="opacity:1;fill:#000000;fill-opacity:1;fill-rule:evenodd;stroke:none;stroke-width:0.45000044px;stroke-linecap:butt;stroke-linejoin:miter;stroke-opacity:1"
     d="m 6.4686373,74.653841 7.7449187,-1.088478 4.951178,-4.951179 2.029076,2.029077 -5.328555,5.328558 -9.0329718,1.269495 C 6.1210825,77.341268 5.3186551,77.006783 5.182594,76.038653 5.0760529,75.280574 5.7506911,74.75474 6.4686373,74.653841 Z"
     id="path1171"
     inkscape:connector-curvature="0"
     sodipodi:nodetypes="ccccccsc" />
  <path
     style="opacity:1;fill:#000000;fill-opacity:1;fill-rule:evenodd;stroke:none;stroke-width:0.45000044px;stroke-linecap:butt;stroke-linejoin:miter;stroke-opacity:1"
     d="M 20.922513,66.856402 22.95159,68.88548 41.227552,50.609521 H 38.35339 L 24.729505,64.233406 h -1.183994 z"
     id="path1173"
     inkscape:connector-curvature="0"
     sodipodi:nodetypes="ccccccc" />
  <path
     style="opacity:1;fill:#000000;fill-opacity:1;fill-rule:evenodd;stroke:none;stroke-width:0.45000044px;stroke-linecap:butt;stroke-linejoin:miter;stroke-opacity:1"
     d="m 7.7596099,84.961874 3.5315651,-2.814642 7.038843,7.038846 -2.883024,3.463182 z"
     id="path1175"
     inkscape:connector-curvature="0"
     sodipodi:nodetypes="ccccc" />
  <path
     style="opacity:1;fill:#000000;fill-opacity:1;fill-rule:evenodd;stroke:none;stroke-width:0.45000044px;stroke-linecap:butt;stroke-linejoin:miter;stroke-opacity:1"
     d="m 13.386845,80.57252 6.3063,6.3063 0.813201,-2.181168 -3.371892,-6.617709 -1.805859,1.805868 z"
     id="path1177"
     inkscape:connector-curvature="0"
     sodipodi:nodetypes="cccccc" />
  <path
     style="opacity:1;fill:#000000;fill-opacity:1;fill-rule:evenodd;stroke:none;stroke-width:0.45000044px;stroke-linecap:butt;stroke-linejoin:miter;stroke-opacity:1"
     d="m 29.607559,65.606842 32.570689,-32.570694 5.185896,5.18589 -32.570692,32.570695 z"
     id="path1179"
     inkscape:connector-curvature="0"
     sodipodi:nodetypes="ccccc" />
  <path
     style="opacity:1;fill:#000000;fill-opacity:1;fill-rule:evenodd;stroke:none;stroke-width:0.45000044px;stroke-linecap:butt;stroke-linejoin:miter;stroke-opacity:1"
     d="m 64.003369,31.211029 5.185891,5.18589 5.040008,-5.04 -5.185894,-5.18589 z"
     id="path1181"
     inkscape:connector-curvature="0"
     sodipodi:nodetypes="ccccc" />
  <path
     style="opacity:1;fill:#000000;fill-opacity:1;fill-rule:evenodd;stroke:none;stroke-width:0.45000044px;stroke-linecap:butt;stroke-linejoin:miter;stroke-opacity:1"
     d="m 70.868488,24.34591 5.1859,5.18589 12.895911,-12.895911 c 2.935512,-2.935522 5.878251,-4.633678 5.878251,-4.633678 L 88.436822,5.6104825 c 0,0 -3.061629,4.228722 -5.060412,6.2275055 L 70.868488,24.34591"
     id="path1183"
     inkscape:connector-curvature="0"
     sodipodi:nodetypes="ccsccsc" />
  <path
     style="opacity:1;fill:#000000;fill-opacity:1;fill-rule:evenodd;stroke:none;stroke-width:0.45000044px;stroke-linecap:butt;stroke-linejoin:miter;stroke-opacity:1"
     d="m 47.134388,61.882228 8.81752,-8.817516 1.94735,1.947348 -4.93506,7.534395 z"
     id="path1185"
     inkscape:connector-curvature="0"
     sodipodi:nodetypes="ccccc" />
  <path
     style="opacity:1;fill:#000000;fill-opacity:1;fill-rule:evenodd;stroke:none;stroke-width:0.45000044px;stroke-linecap:butt;stroke-linejoin:miter;stroke-opacity:1"
     d="m 64.641385,44.37523 11.303104,-11.303091 3.162834,3.162834 -3.714723,3.714723 -2.537425,0.113148 -1.648539,1.648539 3.928132,7.709382 4.296141,-4.296132 -0.385074,-1.97163 1.56015,-1.592172 5.965164,3.443994 -1.860516,2.013309 -2.867742,-0.02124 -6.438447,6.438447 h -2.399329 l -4.626549,-9.080118 -1.291762,1.29177 z"
     id="path1187"
     inkscape:connector-curvature="0"
     sodipodi:nodetypes="cccccccccccccccccc" />
  <path
     style="opacity:1;fill:#000000;fill-opacity:1;fill-rule:evenodd;stroke:none;stroke-width:0.45000044px;stroke-linecap:butt;stroke-linejoin:miter;stroke-opacity:1"
     d="m 27.88594,67.327975 -8.777644,8.777638 3.585062,7.6878 15.710459,10.596104 8.271396,-8.271396 z m 0.640724,4.538674 1.172462,1.172457 -6.128619,6.12774 -0.858693,-1.485351 z m 3.139456,3.139461 1.172462,1.172457 -6.718366,6.717483 -1.400099,-0.943947 z m 3.122756,3.122748 1.172462,1.172466 -6.111041,6.111045 -1.400098,-0.944829 z m 3.078811,3.079692 1.172463,1.171583 -5.512505,5.512501 -1.400099,-0.943939 z m 3.190431,3.189555 1.171585,1.171583 -4.891994,4.892877 -1.4001,-0.944829 z"
     id="path1189"
     inkscape:connector-curvature="0" />
</svg>
