<?xml version="1.0" encoding="UTF-8" standalone="no"?>
<!-- Created with Inkscape (http://www.inkscape.org/) -->

<svg
   xmlns:dc="http://purl.org/dc/elements/1.1/"
   xmlns:cc="http://creativecommons.org/ns#"
   xmlns:rdf="http://www.w3.org/1999/02/22-rdf-syntax-ns#"
   xmlns:svg="http://www.w3.org/2000/svg"
   xmlns="http://www.w3.org/2000/svg"
   xmlns:sodipodi="http://sodipodi.sourceforge.net/DTD/sodipodi-0.dtd"
   xmlns:inkscape="http://www.inkscape.org/namespaces/inkscape"
   width="100"
   height="100"
   viewBox="0 0 26.458333 26.458333"
   version="1.1"
   id="svg8"
   inkscape:version="0.92.4 (5da689c313, 2019-01-14)"
   sodipodi:docname="48-gear-arm-right.svg">
  <defs
     id="defs2" />
  <sodipodi:namedview
     id="base"
     pagecolor="#ffffff"
     bordercolor="#666666"
     borderopacity="1.0"
     inkscape:pageopacity="0.0"
     inkscape:pageshadow="2"
     inkscape:zoom="3.959798"
     inkscape:cx="-10.973927"
     inkscape:cy="50.487772"
     inkscape:document-units="px"
     inkscape:current-layer="layer1"
     showgrid="false"
     fit-margin-top="0"
     fit-margin-left="0"
     fit-margin-right="0"
     fit-margin-bottom="0"
     units="px"
     inkscape:window-width="1920"
     inkscape:window-height="1027"
     inkscape:window-x="-8"
     inkscape:window-y="-8"
     inkscape:window-maximized="1"
     inkscape:snap-object-midpoints="true"
     showguides="true"
     inkscape:guide-bbox="true">
    <sodipodi:guide
       position="18.443835,13.032279"
       orientation="0,1"
       id="guide842"
       inkscape:locked="false" />
    <sodipodi:guide
       position="18.443835,13.032279"
       orientation="1,0"
       id="guide844"
       inkscape:locked="false" />
  </sodipodi:namedview>
  <metadata
     id="metadata5">
    <rdf:RDF>
      <cc:Work
         rdf:about="">
        <dc:format>image/svg+xml</dc:format>
        <dc:type
           rdf:resource="http://purl.org/dc/dcmitype/StillImage" />
        <dc:title></dc:title>
      </cc:Work>
    </rdf:RDF>
  </metadata>
  <g
     inkscape:label="Layer 1"
     inkscape:groupmode="layer"
     id="layer1"
     transform="translate(69.472023,-301.46013)">
    <path
       style="opacity:1;fill:#000000;fill-opacity:1;fill-rule:evenodd;stroke:none;stroke-width:13.30575943;stroke-linecap:round;stroke-linejoin:round;stroke-miterlimit:4;stroke-dasharray:none;stroke-dashoffset:0;stroke-opacity:1"
       d="m -48.632464,303.90967 c -1.167031,7e-5 -2.112982,0.94603 -2.11305,2.11305 8.73e-4,0.31418 0.0719,0.62415 0.20774,0.90744 l 1.647444,0.60203 1.980241,-5.2e-4 v -0.57154 l 0.397909,-0.74517 -0.0072,-0.1912 c -7.1e-5,-1.16704 -0.946018,-2.1135 -2.113049,-2.11357 z m 0,1.01389 c 0.607092,-9e-5 1.099241,0.49208 1.099157,1.09916 8.4e-5,0.6071 -0.492068,1.09925 -1.099157,1.09916 -0.607091,9e-5 -1.099241,-0.49206 -1.099158,-1.09916 -8.3e-5,-0.60708 0.492067,-1.09925 1.099158,-1.09916 z"
       id="path905"
       inkscape:connector-curvature="0" />
    <path
       style="opacity:1;fill:#000000;fill-opacity:1;fill-rule:evenodd;stroke:none;stroke-width:13.30575943;stroke-linecap:round;stroke-linejoin:round;stroke-miterlimit:4;stroke-dasharray:none;stroke-dashoffset:0;stroke-opacity:1"
       d="m -50.936716,303.92879 c -0.411029,0.5778 -0.698675,1.47526 -0.761194,2.10168 l 0.528133,0.18811 c 0.07285,-0.71959 0.374064,-1.53345 0.735355,-1.95337 z"
       id="path903"
       inkscape:connector-curvature="0" />
    <path
       style="opacity:1;fill:#000000;fill-opacity:1;fill-rule:evenodd;stroke:none;stroke-width:13.30575943;stroke-linecap:round;stroke-linejoin:round;stroke-miterlimit:4;stroke-dasharray:none;stroke-dashoffset:0;stroke-opacity:1"
       d="m -48.632464,305.35145 a 0.67157554,0.67157554 0 0 0 -0.671277,0.67179 0.67157554,0.67157554 0 0 0 0.671277,0.67128 0.67157554,0.67157554 0 0 0 0.671793,-0.67128 0.67157554,0.67157554 0 0 0 -0.671793,-0.67179 z"
       id="path899"
       inkscape:connector-curvature="0" />
    <path
       style="opacity:1;fill:#000000;fill-opacity:1;fill-rule:evenodd;stroke:none;stroke-width:13.30575943;stroke-linecap:round;stroke-linejoin:round;stroke-miterlimit:4;stroke-dasharray:none;stroke-dashoffset:0;stroke-opacity:1"
       d="m -45.977329,305.76486 -0.637171,1.19476 -0.0083,0.56069 0.601513,0.0196 0.502812,-1.77508 z"
       id="path897"
       inkscape:connector-curvature="0" />
    <path
       style="opacity:1;fill:#000000;fill-opacity:1;fill-rule:evenodd;stroke:none;stroke-width:13.30575943;stroke-linecap:round;stroke-linejoin:round;stroke-miterlimit:4;stroke-dasharray:none;stroke-dashoffset:0;stroke-opacity:1"
       d="m -50.833364,307.19939 0.01137,0.6997 1.766818,0.64493 -0.01137,-0.6997 z"
       id="path895"
       inkscape:connector-curvature="0" />
    <path
       style="opacity:1;fill:#000000;fill-opacity:1;fill-rule:evenodd;stroke:none;stroke-width:13.30575943;stroke-linecap:round;stroke-linejoin:round;stroke-miterlimit:4;stroke-dasharray:none;stroke-dashoffset:0;stroke-opacity:1"
       d="m -46.19437,307.90736 -2.302702,0.0227 c 0.04356,2.04575 -2.034593,1.12656 -2.505274,3.87366 a 1.1286719,1.1286719 0 0 0 -0.04547,0.31368 1.1286719,1.1286719 0 0 0 1.128613,1.12913 1.1286719,1.1286719 0 0 0 1.128614,-1.12913 c 0.273798,-1.49927 1.373514,-1.0152 1.840197,-1.88361 0.300938,-0.55998 0.316466,-1.41433 0.756027,-2.32647 z m -3.724838,3.73621 a 0.47404141,0.47404141 0 0 1 0.47439,0.47387 0.47404141,0.47404141 0 0 1 -0.47439,0.47439 0.47404141,0.47404141 0 0 1 -0.473872,-0.47439 0.47404141,0.47404141 0 0 1 0.473872,-0.47387 z"
       id="path893"
       inkscape:connector-curvature="0" />
    <path
       style="opacity:1;fill:#000000;fill-opacity:1;fill-rule:evenodd;stroke:none;stroke-width:13.30575943;stroke-linecap:round;stroke-linejoin:round;stroke-miterlimit:4;stroke-dasharray:none;stroke-dashoffset:0;stroke-opacity:1"
       d="m -51.43126,307.99831 -0.328145,0.54777 -0.0894,2.05931 0.68833,0.12816 c 0.177337,-0.71989 0.77077,-1.39058 1.704289,-1.86604 z"
       id="path891"
       inkscape:connector-curvature="0" />
    <path
       style="opacity:1;fill:#000000;fill-opacity:1;fill-rule:evenodd;stroke:none;stroke-width:13.30575943;stroke-linecap:round;stroke-linejoin:round;stroke-miterlimit:4;stroke-dasharray:none;stroke-dashoffset:0;stroke-opacity:1"
       d="m -51.630214,311.1361 c -0.14834,-0.0174 -0.399459,0.20309 -0.399459,0.20309 l -0.270784,2.02675 0.628385,-0.18345 c -0.03755,-0.5837 0.172652,-1.09095 0.318327,-1.75338 0.03375,-0.15349 -0.161147,-0.2794 -0.276469,-0.29301 z"
       id="path889"
       inkscape:connector-curvature="0" />
    <path
       style="opacity:1;fill:#000000;fill-opacity:1;fill-rule:evenodd;stroke:none;stroke-width:13.30575943;stroke-linecap:round;stroke-linejoin:round;stroke-miterlimit:4;stroke-dasharray:none;stroke-dashoffset:0;stroke-opacity:1"
       d="m -48.688792,313.22125 -0.877466,0.27078 0.225827,0.57826 0.550353,-0.12402 z"
       id="path885"
       inkscape:connector-curvature="0" />
    <path
       style="opacity:1;fill:#000000;fill-opacity:1;fill-rule:evenodd;stroke:none;stroke-width:13.30575943;stroke-linecap:round;stroke-linejoin:round;stroke-miterlimit:4;stroke-dasharray:none;stroke-dashoffset:0;stroke-opacity:1"
       d="m -51.028184,313.53027 a 1.3559896,1.3559896 0 0 0 -1.355989,1.35599 1.3559896,1.3559896 0 0 0 1.355989,1.35599 1.3559896,1.3559896 0 0 0 1.35599,-1.35599 1.3559896,1.3559896 0 0 0 -1.35599,-1.35599 z m 0,0.52917 a 0.82682288,0.82682288 0 0 1 0.782381,0.56224 h -1.565279 a 0.82682288,0.82682288 0 0 1 0.782898,-0.56224 z m -0.782381,1.09141 h 1.565279 a 0.82682288,0.82682288 0 0 1 -0.782898,0.56224 0.82682288,0.82682288 0 0 1 -0.782381,-0.56224 z"
       id="path883"
       inkscape:connector-curvature="0" />
    <path
       style="opacity:1;fill:#000000;fill-opacity:1;fill-rule:evenodd;stroke:none;stroke-width:13.30575943;stroke-linecap:round;stroke-linejoin:round;stroke-miterlimit:4;stroke-dasharray:none;stroke-dashoffset:0;stroke-opacity:1"
       d="m -49.218992,314.47699 v 1.0945 h 1.030945 v -0.57567 l -0.591179,-0.51883 z"
       id="path879"
       inkscape:connector-curvature="0" />
    <path
       style="opacity:1;fill:#000000;fill-opacity:1;fill-rule:evenodd;stroke:none;stroke-width:13.30575943;stroke-linecap:round;stroke-linejoin:round;stroke-miterlimit:4;stroke-dasharray:none;stroke-dashoffset:0;stroke-opacity:1"
       d="m -52.718003,315.70689 -0.598413,0.19223 0.101802,1.01544 0.947746,-0.38344 z"
       id="path875"
       inkscape:connector-curvature="0" />
    <path
       style="opacity:1;fill:#000000;fill-opacity:1;fill-rule:evenodd;stroke:none;stroke-width:13.30575943;stroke-linecap:round;stroke-linejoin:round;stroke-miterlimit:4;stroke-dasharray:none;stroke-dashoffset:0;stroke-opacity:1"
       d="m -48.682074,316.01229 -0.446484,0.0176 c 0.02047,0.52937 -0.229379,0.93609 -0.666109,1.28365 l 0.278536,0.34985 c 0.510641,-0.40638 0.860537,-0.96555 0.834057,-1.65107 z"
       id="path873"
       inkscape:connector-curvature="0" />
    <path
       style="opacity:1;fill:#000000;fill-opacity:1;fill-rule:evenodd;stroke:none;stroke-width:13.30575943;stroke-linecap:round;stroke-linejoin:round;stroke-miterlimit:4;stroke-dasharray:none;stroke-dashoffset:0;stroke-opacity:1"
       d="m -51.443146,316.79674 -2.244307,0.95291 c -0.629149,0.26707 -1.275316,0.95427 -0.915706,1.80145 0.354081,0.83416 1.308322,0.85732 1.931665,0.59272 l 2.830318,-1.20096 -0.911056,-2.14612 z m -2.004012,1.6769 c 0.324268,8e-5 0.587163,0.26278 0.587045,0.58705 -7.5e-5,0.32412 -0.262914,0.58695 -0.587045,0.58704 -0.324132,-9e-5 -0.586968,-0.26292 -0.587044,-0.58704 -1.18e-4,-0.32427 0.262776,-0.58697 0.587044,-0.58705 z"
       id="path871"
       inkscape:connector-curvature="0" />
    <path
       style="opacity:1;fill:#000000;fill-opacity:1;fill-rule:evenodd;stroke:none;stroke-width:13.30575943;stroke-linecap:round;stroke-linejoin:round;stroke-miterlimit:4;stroke-dasharray:none;stroke-dashoffset:0;stroke-opacity:1"
       d="m -48.230422,318.10571 -0.916223,0.24339 0.0062,0.78445 -3.870048,1.58388 5.29e-4,0.894 5.139738,-1.64434 0.191203,-1.61179 z"
       id="path869"
       inkscape:connector-curvature="0" />
    <path
       style="opacity:1;fill:#000000;fill-opacity:1;fill-rule:evenodd;stroke:none;stroke-width:13.30575943;stroke-linecap:round;stroke-linejoin:round;stroke-miterlimit:4;stroke-dasharray:none;stroke-dashoffset:0;stroke-opacity:1"
       d="m -55.304409,318.41318 -1.949751,0.82786 0.628385,0.28732 1.249536,-0.54829 z"
       id="path867"
       inkscape:connector-curvature="0" />
    <path
       style="opacity:1;fill:#000000;fill-opacity:1;fill-rule:evenodd;stroke:none;stroke-width:13.30575943;stroke-linecap:round;stroke-linejoin:round;stroke-miterlimit:4;stroke-dasharray:none;stroke-dashoffset:0;stroke-opacity:1"
       d="m -55.261,319.60019 -0.925525,0.39894 -0.01602,1.4366 1.675867,-0.7183 z"
       id="path863"
       inkscape:connector-curvature="0" />
    <path
       style="opacity:1;fill:#000000;fill-opacity:1;fill-rule:evenodd;stroke:none;stroke-width:13.30575943;stroke-linecap:round;stroke-linejoin:round;stroke-miterlimit:4;stroke-dasharray:none;stroke-dashoffset:0;stroke-opacity:1"
       d="m -57.758522,319.71439 a 1.1722417,1.1722417 0 0 0 -1.042831,0.5855 1.1722417,1.1722417 0 0 0 0.428915,1.60145 1.1722417,1.1722417 0 0 0 1.601452,-0.42892 1.1722417,1.1722417 0 0 0 -0.429431,-1.60145 1.1722417,1.1722417 0 0 0 -0.558105,-0.15658 z m -0.02997,0.45786 a 0.7147815,0.7147815 0 0 1 0.14211,0.014 l -0.676444,1.1715 a 0.7147815,0.7147815 0 0 1 -0.08268,-0.82889 0.7147815,0.7147815 0 0 1 0.585494,-0.35605 0.7147815,0.7147815 0 0 1 5.17e-4,0 0.7147815,0.7147815 0 0 1 0.03101,-5.1e-4 z m 0.538469,0.24236 a 0.7147815,0.7147815 0 0 1 0.08268,0.82889 0.7147815,0.7147815 0 0 1 -0.759127,0.34261 z"
       id="path861"
       inkscape:connector-curvature="0" />
    <path
       style="opacity:1;fill:#000000;fill-opacity:1;fill-rule:evenodd;stroke:none;stroke-width:13.30575943;stroke-linecap:round;stroke-linejoin:round;stroke-miterlimit:4;stroke-dasharray:none;stroke-dashoffset:0;stroke-opacity:1"
       d="m -59.604404,320.09628 c -0.361399,0.0169 -0.644369,0.17038 -0.84491,0.32866 0.200611,0.77487 0.308194,1.29448 0.270784,2.0991 0.343946,0.0541 0.64266,0.2688 1.015959,0 -0.219398,-0.80479 -0.302793,-1.65118 -0.282153,-2.42621 -0.05482,-0.004 -0.108052,-0.004 -0.15968,-0.002 z"
       id="path859"
       inkscape:connector-curvature="0" />
    <path
       style="opacity:1;fill:#000000;fill-opacity:1;fill-rule:evenodd;stroke:none;stroke-width:13.30575943;stroke-linecap:round;stroke-linejoin:round;stroke-miterlimit:4;stroke-dasharray:none;stroke-dashoffset:0;stroke-opacity:1"
       d="m -64.435117,320.72673 c -0.173537,0.0133 -0.381942,0.0803 -0.466638,0.16589 v 5.2e-4 c 0,0 -0.51034,0.6256 -0.861963,0.79789 -0.326492,0.15997 -0.858627,-0.11323 -1.075904,0.17828 -0.1629,0.21855 0.103448,0.53874 0.10232,0.81132 -0.0023,0.55833 -0.274058,1.1043 -0.223759,1.66037 0.02016,0.22287 0.03824,0.71726 0.03824,0.71726 l 0.568441,-0.19068 0.499711,0.50694 c 0.282476,0.28667 0.727226,-0.14413 0.432532,-0.43253 l -0.564823,-0.55345 0.135909,-0.72192 0.22996,-0.22996 0.10542,-0.3452 0.549837,-0.12351 c -0.608333,-1.17498 0.500693,-1.41378 0.787548,-2.08411 0.05555,-0.12981 -0.0833,-0.17039 -0.256831,-0.15709 z"
       id="path853"
       inkscape:connector-curvature="0" />
    <path
       style="opacity:1;fill:#000000;fill-opacity:1;fill-rule:evenodd;stroke:none;stroke-width:13.30575943;stroke-linecap:round;stroke-linejoin:round;stroke-miterlimit:4;stroke-dasharray:none;stroke-dashoffset:0;stroke-opacity:1"
       d="m -61.017755,320.94429 -3.152262,0.77515 c -0.27513,0.0676 -0.53153,0.32228 -0.390157,0.75499 0.13394,0.41083 0.571775,0.46653 0.808219,0.41393 l 2.950724,-0.65681 z"
       id="path851"
       inkscape:connector-curvature="0" />
    <path
       style="opacity:1;fill:#000000;fill-opacity:1;fill-rule:evenodd;stroke:none;stroke-width:13.30575943;stroke-linecap:round;stroke-linejoin:round;stroke-miterlimit:4;stroke-dasharray:none;stroke-dashoffset:0;stroke-opacity:1"
       d="m -53.521055,321.05281 -3.942395,1.48415 0.0677,0.35553 3.874699,-1.36115 z"
       id="path849"
       inkscape:connector-curvature="0" />
    <path
       style="opacity:1;fill:#000000;fill-opacity:1;fill-rule:evenodd;stroke:none;stroke-width:13.30575943;stroke-linecap:round;stroke-linejoin:round;stroke-miterlimit:4;stroke-dasharray:none;stroke-dashoffset:0;stroke-opacity:1"
       d="m -60.720615,322.79534 -1.658814,0.27079 v 0.37258 l 1.658814,-0.2713 z"
       id="path847"
       inkscape:connector-curvature="0" />
    <path
       style="opacity:1;fill:#000000;fill-opacity:1;fill-rule:evenodd;stroke:none;stroke-width:13.30575943;stroke-linecap:round;stroke-linejoin:round;stroke-miterlimit:4;stroke-dasharray:none;stroke-dashoffset:0;stroke-opacity:1"
       d="m -61.0777,323.79786 -1.286226,0.0961 c -0.17261,0.35629 -0.699908,1.02145 -1.452624,0.33487 l -1.264006,-0.0155 0.753442,0.55811 -0.03204,0.59066 h 2.330607 l 0.573608,-0.29455 v -0.60669 z"
       id="rect841"
       inkscape:connector-curvature="0" />
  </g>
</svg>
