<?xml version="1.0" encoding="UTF-8" standalone="no"?>
<!-- Created with Inkscape (http://www.inkscape.org/) -->

<svg
   xmlns:dc="http://purl.org/dc/elements/1.1/"
   xmlns:cc="http://creativecommons.org/ns#"
   xmlns:rdf="http://www.w3.org/1999/02/22-rdf-syntax-ns#"
   xmlns:svg="http://www.w3.org/2000/svg"
   xmlns="http://www.w3.org/2000/svg"
   xmlns:sodipodi="http://sodipodi.sourceforge.net/DTD/sodipodi-0.dtd"
   xmlns:inkscape="http://www.inkscape.org/namespaces/inkscape"
   width="100"
   height="100"
   viewBox="0 0 26.458333 26.458334"
   version="1.1"
   id="svg1000"
   inkscape:version="0.92.4 (5da689c313, 2019-01-14)"
   sodipodi:docname="50-gear-leg-right.svg">
  <defs
     id="defs994" />
  <sodipodi:namedview
     id="base"
     pagecolor="#ffffff"
     bordercolor="#666666"
     borderopacity="1.0"
     inkscape:pageopacity="0.0"
     inkscape:pageshadow="2"
     inkscape:zoom="2.8284271"
     inkscape:cx="-74.872883"
     inkscape:cy="-10.005509"
     inkscape:document-units="px"
     inkscape:current-layer="layer1"
     showgrid="false"
     units="px"
     fit-margin-top="0"
     fit-margin-left="0"
     fit-margin-right="0"
     fit-margin-bottom="0"
     inkscape:window-width="1920"
     inkscape:window-height="1027"
     inkscape:window-x="-8"
     inkscape:window-y="-8"
     inkscape:window-maximized="1"
     showguides="true"
     inkscape:guide-bbox="true"
     inkscape:snap-smooth-nodes="true"
     inkscape:snap-object-midpoints="true"
     inkscape:snap-bbox="true"
     inkscape:snap-bbox-midpoints="true" />
  <metadata
     id="metadata997">
    <rdf:RDF>
      <cc:Work
         rdf:about="">
        <dc:format>image/svg+xml</dc:format>
        <dc:type
           rdf:resource="http://purl.org/dc/dcmitype/StillImage" />
        <dc:title></dc:title>
      </cc:Work>
    </rdf:RDF>
  </metadata>
  <g
     inkscape:label="Layer 1"
     inkscape:groupmode="layer"
     id="layer1"
     transform="translate(-119.59167,-286.41663)">
    <path
       style="opacity:1;fill:#000000;fill-opacity:1;fill-rule:evenodd;stroke:none;stroke-width:7.83950567;stroke-linecap:round;stroke-linejoin:round;stroke-miterlimit:4;stroke-dasharray:none;stroke-dashoffset:0;stroke-opacity:1"
       d="m 139.13157,287.93282 c -1.01271,0 -2.00144,0.65689 -2.39314,1.5627 l 0.66198,0.67437 v 1.16531 l 0.90279,1.47691 c 0.26616,0.0941 0.54608,0.14272 0.82837,0.14366 1.3871,9e-5 2.51157,-1.12437 2.51147,-2.51147 8e-5,-1.38709 -1.12438,-2.51157 -2.51147,-2.51148 z m 0,1.2144 a 1.2970178,1.2970178 0 0 1 1.29708,1.29708 1.2970178,1.2970178 0 0 1 -1.29708,1.29707 1.2970178,1.2970178 0 0 1 -1.29708,-1.29707 1.2970178,1.2970178 0 0 1 1.29708,-1.29708 z"
       id="path914"
       inkscape:connector-curvature="0" />
    <path
       style="opacity:1;fill:#000000;fill-opacity:1;fill-rule:evenodd;stroke:none;stroke-width:7.83950567;stroke-linecap:round;stroke-linejoin:round;stroke-miterlimit:4;stroke-dasharray:none;stroke-dashoffset:0;stroke-opacity:1"
       d="m 136.40925,289.24437 c -1.14447,0.0487 -2.11183,0.83897 -2.54971,1.26866 -0.53833,0.54313 -0.36612,1.15102 -1.22473,1.89187 l -0.60307,0.5395 c -0.0342,0.0259 -0.0669,0.0537 -0.0977,0.0837 l -0.006,0.006 c -0.19204,0.19182 -0.29999,0.45204 -0.30024,0.72347 5e-5,0.56538 0.45832,1.02368 1.02371,1.02371 0.27144,-2.3e-4 0.53165,-0.10816 0.72347,-0.30024 h 5.2e-4 c 0.2448,-0.21772 1.20716,-0.98909 1.20716,-0.98909 l 0.37052,-1.16995 2.10013,-0.89245 -0.0212,-0.92346 -0.55604,-0.63356 z m -3.75739,4.19613 a 0.31729333,0.31729333 0 0 1 0.31729,0.31729 0.31729333,0.31729333 0 0 1 -0.31729,0.31729 0.31729333,0.31729333 0 0 1 -0.31729,-0.31729 0.31729333,0.31729333 0 0 1 0.31729,-0.31729 z"
       id="path910"
       inkscape:connector-curvature="0" />
    <path
       style="opacity:1;fill:#000000;fill-opacity:1;fill-rule:evenodd;stroke:none;stroke-width:7.83950567;stroke-linecap:round;stroke-linejoin:round;stroke-miterlimit:4;stroke-dasharray:none;stroke-dashoffset:0;stroke-opacity:1"
       d="m 139.13157,289.50844 a 0.93594551,0.93594551 0 0 0 -0.93586,0.93586 0.93594551,0.93594551 0 0 0 0.93586,0.93586 0.93594551,0.93594551 0 0 0 0.93586,-0.93586 0.93594551,0.93594551 0 0 0 -0.93586,-0.93586 z"
       id="path908"
       inkscape:connector-curvature="0" />
    <path
       style="opacity:1;fill:#000000;fill-opacity:1;fill-rule:evenodd;stroke:none;stroke-width:7.83950567;stroke-linecap:round;stroke-linejoin:round;stroke-miterlimit:4;stroke-dasharray:none;stroke-dashoffset:0;stroke-opacity:1"
       d="m 130.73467,291.48971 -0.23255,0.27182 -0.17777,1.65571 c 0.19052,-1.3e-4 0.41846,0.0435 0.58136,0.14004 l 0.12041,-1.80247 z"
       id="path906"
       inkscape:connector-curvature="0" />
    <path
       style="opacity:1;fill:#000000;fill-opacity:1;fill-rule:evenodd;stroke:none;stroke-width:7.83950567;stroke-linecap:round;stroke-linejoin:round;stroke-miterlimit:4;stroke-dasharray:none;stroke-dashoffset:0;stroke-opacity:1"
       d="m 136.57669,291.84369 v 1.01028 c 0.62558,0 1.00252,0.16713 1.00252,0.56224 l 0.51366,-0.22221 -0.76688,-1.35031 z"
       id="path904"
       inkscape:connector-curvature="0" />
    <path
       style="opacity:1;fill:#000000;fill-opacity:1;fill-rule:evenodd;stroke:none;stroke-width:7.83950567;stroke-linecap:round;stroke-linejoin:round;stroke-miterlimit:4;stroke-dasharray:none;stroke-dashoffset:0;stroke-opacity:1"
       d="m 136.23562,292.08864 -1.22473,0.87333 -0.009,0.91622 1.22628,-0.88108 z"
       id="path902"
       inkscape:connector-curvature="0" />
    <path
       style="opacity:1;fill:#000000;fill-opacity:1;fill-rule:evenodd;stroke:none;stroke-width:7.83950567;stroke-linecap:round;stroke-linejoin:round;stroke-miterlimit:4;stroke-dasharray:none;stroke-dashoffset:0;stroke-opacity:1"
       d="m 136.82887,293.14852 c -0.0358,0.005 -0.0716,0.018 -0.10594,0.0408 l -2.29702,1.52807 0.29818,0.48989 2.35231,-1.56993 c 0.25367,-0.16928 0.003,-0.52494 -0.24753,-0.48886 z"
       id="path900"
       inkscape:connector-curvature="0" />
    <path
       style="opacity:1;fill:#000000;fill-opacity:1;fill-rule:evenodd;stroke:none;stroke-width:7.83950567;stroke-linecap:round;stroke-linejoin:round;stroke-miterlimit:4;stroke-dasharray:none;stroke-dashoffset:0;stroke-opacity:1"
       d="m 130.16416,293.69113 a 1.4699074,1.4699074 0 0 0 -1.4702,1.47019 1.4699074,1.4699074 0 0 0 1.4702,1.46968 1.4699074,1.4699074 0 0 0 1.46968,-1.46968 1.4699074,1.4699074 0 0 0 -1.46968,-1.47019 z m 0,0.60306 a 0.86693673,0.86693673 0 0 1 0.86713,0.86713 0.86693673,0.86693673 0 0 1 -0.86713,0.86713 0.86693673,0.86693673 0 0 1 -0.86713,-0.86713 0.86693673,0.86693673 0 0 1 0.86713,-0.86713 z"
       id="path896"
       inkscape:connector-curvature="0" />
    <path
       style="opacity:1;fill:#000000;fill-opacity:1;fill-rule:evenodd;stroke:none;stroke-width:7.83950567;stroke-linecap:round;stroke-linejoin:round;stroke-miterlimit:4;stroke-dasharray:none;stroke-dashoffset:0;stroke-opacity:1"
       d="m 130.16416,294.64301 a 0.51837693,0.51837693 0 0 0 -0.51832,0.51831 0.51837693,0.51837693 0 0 0 0.51832,0.51831 0.51837693,0.51837693 0 0 0 0.51831,-0.51831 0.51837693,0.51837693 0 0 0 -0.51831,-0.51831 z"
       id="path892"
       inkscape:connector-curvature="0" />
    <path
       style="opacity:1;fill:#000000;fill-opacity:1;fill-rule:evenodd;stroke:none;stroke-width:7.83950567;stroke-linecap:round;stroke-linejoin:round;stroke-miterlimit:4;stroke-dasharray:none;stroke-dashoffset:0;stroke-opacity:1"
       d="m 134.05539,294.89622 -0.97823,0.19482 -0.0579,0.51573 1.33739,-0.18913 z"
       id="path890"
       inkscape:connector-curvature="0" />
    <path
       style="opacity:1;fill:#000000;fill-opacity:1;fill-rule:evenodd;stroke:none;stroke-width:7.83950567;stroke-linecap:round;stroke-linejoin:round;stroke-miterlimit:4;stroke-dasharray:none;stroke-dashoffset:0;stroke-opacity:1"
       d="m 132.36041,295.00371 c -0.13491,-0.0169 -0.26976,0.0581 -0.26976,0.24288 0,0.34249 -0.078,0.8813 -0.45785,1.02371 -0.27643,0.10363 -0.12112,0.57196 0.2372,0.42478 0.61926,-0.25438 0.76016,-0.82282 0.76016,-1.38183 0,-0.18386 -0.13485,-0.29268 -0.26975,-0.30954 z"
       id="path888"
       inkscape:connector-curvature="0" />
    <path
       style="opacity:1;fill:#000000;fill-opacity:1;fill-rule:evenodd;stroke:none;stroke-width:7.83950567;stroke-linecap:round;stroke-linejoin:round;stroke-miterlimit:4;stroke-dasharray:none;stroke-dashoffset:0;stroke-opacity:1"
       d="m 126.66824,295.35821 -0.92501,0.7214 v 0.64699 c 0.93985,1.63793 2.8771,3.32951 4.8147,3.32951 l -0.39636,-1.11052 c -1.6501,0 -1.58662,-1.3628 -1.71772,-2.40399 z"
       id="path886"
       inkscape:connector-curvature="0" />
    <path
       style="opacity:1;fill:#000000;fill-opacity:1;fill-rule:evenodd;stroke:none;stroke-width:7.83950567;stroke-linecap:round;stroke-linejoin:round;stroke-miterlimit:4;stroke-dasharray:none;stroke-dashoffset:0;stroke-opacity:1"
       d="m 128.93219,296.59999 c 0,0.77082 0.0215,1.21636 0.59015,1.95751 h 0.52038 c -0.20714,-0.75029 0.0353,-1.06909 0.19947,-1.46296 l -0.65319,-0.0274 -0.39378,-0.46716 z"
       id="path884"
       inkscape:connector-curvature="0" />
    <path
       style="opacity:1;fill:#000000;fill-opacity:1;fill-rule:evenodd;stroke:none;stroke-width:7.83950567;stroke-linecap:round;stroke-linejoin:round;stroke-miterlimit:4;stroke-dasharray:none;stroke-dashoffset:0;stroke-opacity:1"
       d="m 131.79352,296.96844 v 0.001 a 1.3930311,1.3930311 0 0 0 -0.1261,0.007 c -0.0165,10e-4 -0.0327,0.004 -0.0491,0.006 a 1.3930311,1.3930311 0 0 0 -0.0904,0.0139 c -0.0166,0.003 -0.0328,0.007 -0.0491,0.0109 a 1.3930311,1.3930311 0 0 0 -0.0817,0.0207 c -0.0187,0.006 -0.0369,0.0123 -0.0553,0.0186 a 1.3930311,1.3930311 0 0 0 -0.076,0.0279 c -0.009,0.004 -0.0182,0.008 -0.0274,0.0119 a 1.3930311,1.3930311 0 0 0 -0.21549,0.1173 c -0.007,0.004 -0.013,0.009 -0.0196,0.014 a 1.3930311,1.3930311 0 0 0 -0.1943,0.16071 1.3930311,1.3930311 0 0 0 -0.17002,0.20567 1.3930311,1.3930311 0 0 0 -0.17518,0.36484 1.3930311,1.3930311 0 0 0 -0.063,0.41393 1.3930311,1.3930311 0 0 0 0.0305,0.28215 c 0.11782,0.7654 0.65764,1.3101 0.59532,2.235 0.0707,0.24792 0.4712,0.39305 0.4594,0.65629 l 0.58446,3.28921 c 0.3745,-0.21449 0.82154,-0.32355 1.35237,-0.34675 l -0.77153,-4.10879 0.53537,-0.94671 -5.2e-4,-1.05059 a 1.3930311,1.3930311 0 0 0 5.2e-4,-0.01 1.3930311,1.3930311 0 0 0 -0.007,-0.1261 c -0.002,-0.0169 -0.004,-0.0334 -0.006,-0.0501 a 1.3930311,1.3930311 0 0 0 -0.0139,-0.0894 c -0.003,-0.0166 -0.007,-0.0327 -0.0109,-0.0491 a 1.3930311,1.3930311 0 0 0 -0.0207,-0.0816 c -0.006,-0.0187 -0.0123,-0.0369 -0.0186,-0.0553 a 1.3930311,1.3930311 0 0 0 -0.0279,-0.0765 c -0.004,-0.009 -0.008,-0.0171 -0.0119,-0.0258 a 1.3930311,1.3930311 0 0 0 -0.11834,-0.2191 c -0.003,-0.005 -0.007,-0.01 -0.0103,-0.0145 a 1.3930311,1.3930311 0 0 0 -0.15916,-0.19327 c -0.004,-0.004 -0.008,-0.007 -0.0124,-0.0114 a 1.3930311,1.3930311 0 0 0 -0.19533,-0.16123 1.3930311,1.3930311 0 0 0 -0.002,-0.002 c -0.002,-10e-4 -0.004,-0.002 -0.005,-0.003 a 1.3930311,1.3930311 0 0 0 -0.231,-0.12506 1.3930311,1.3930311 0 0 0 -5.1e-4,0 c -0.0185,-0.008 -0.038,-0.0136 -0.0569,-0.0207 a 1.3930311,1.3930311 0 0 0 -0.0713,-0.0264 c -6.6e-4,-2.1e-4 -0.001,-3.1e-4 -0.002,-5.2e-4 a 1.3930311,1.3930311 0 0 0 -0.0134,-0.004 c -0.0387,-0.0115 -0.0778,-0.0218 -0.11782,-0.03 a 1.3930311,1.3930311 0 0 0 -0.13126,-0.0202 1.3930311,1.3930311 0 0 0 -0.007,-0.001 1.3930311,1.3930311 0 0 0 -0.14262,-0.008 z m 0,1.07694 a 0.31729333,0.31729333 0 0 1 0.31729,0.3173 0.31729333,0.31729333 0 0 1 -0.31729,0.31729 0.31729333,0.31729333 0 0 1 -0.3173,-0.31729 0.31729333,0.31729333 0 0 1 0.3173,-0.3173 z"
       id="path882"
       inkscape:connector-curvature="0" />
    <path
       style="opacity:1;fill:#000000;fill-opacity:1;fill-rule:evenodd;stroke:none;stroke-width:7.83950567;stroke-linecap:round;stroke-linejoin:round;stroke-miterlimit:4;stroke-dasharray:none;stroke-dashoffset:0;stroke-opacity:1"
       d="m 132.95727,300.51862 1.92081,3.73517 c 0.21127,0.4109 0.86703,0.25572 0.58653,-0.31678 l -1.67483,-3.41839 z"
       id="path878"
       inkscape:connector-curvature="0" />
    <path
       style="opacity:1;fill:#000000;fill-opacity:1;fill-rule:evenodd;stroke:none;stroke-width:7.83950567;stroke-linecap:round;stroke-linejoin:round;stroke-miterlimit:4;stroke-dasharray:none;stroke-dashoffset:0;stroke-opacity:1"
       d="m 130.54501,301.58367 c -0.14273,-0.002 -0.27965,0.0658 -0.26923,0.22996 l 0.0796,1.2578 h 0.63097 l -0.13798,-1.29501 c -0.0125,-0.11771 -0.1606,-0.19047 -0.30334,-0.19275 z"
       id="path876"
       inkscape:connector-curvature="0" />
    <path
       style="opacity:1;fill:#000000;fill-opacity:1;fill-rule:evenodd;stroke:none;stroke-width:7.83950567;stroke-linecap:round;stroke-linejoin:round;stroke-miterlimit:4;stroke-dasharray:none;stroke-dashoffset:0;stroke-opacity:1"
       d="m 130.3781,303.44143 0.0822,1.25781 0.7028,0.0372 -0.13746,-1.29502 z"
       id="path874"
       inkscape:connector-curvature="0" />
    <path
       style="opacity:1;fill:#000000;fill-opacity:1;fill-rule:evenodd;stroke:none;stroke-width:7.83950567;stroke-linecap:round;stroke-linejoin:round;stroke-miterlimit:4;stroke-dasharray:none;stroke-dashoffset:0;stroke-opacity:1"
       d="m 136.0284,304.43982 c -0.25095,0.36139 -0.51615,0.72763 -1.10071,0.56483 l -0.0119,0.36638 a 2.2559197,2.2559197 0 0 1 0.56275,1.4857 2.2559197,2.2559197 0 0 1 -0.004,0.093 c 0.004,0.0379 0.0139,0.0812 0.017,0.1173 l 1.14411,-0.69298 0.12971,-1.24075 0.28009,-0.29559 -0.34262,-0.39791 z"
       id="path872"
       inkscape:connector-curvature="0" />
    <path
       style="opacity:1;fill:#000000;fill-opacity:1;fill-rule:evenodd;stroke:none;stroke-width:7.83950567;stroke-linecap:round;stroke-linejoin:round;stroke-miterlimit:4;stroke-dasharray:none;stroke-dashoffset:0;stroke-opacity:1"
       d="m 129.55386,305.01343 -0.11421,0.84595 1.22629,0.78548 0.69246,-1.01131 -0.18087,-0.49609 z"
       id="path870"
       inkscape:connector-curvature="0" />
    <path
       style="opacity:1;fill:#000000;fill-opacity:1;fill-rule:evenodd;stroke:none;stroke-width:7.83950567;stroke-linecap:round;stroke-linejoin:round;stroke-miterlimit:4;stroke-dasharray:none;stroke-dashoffset:0;stroke-opacity:1"
       d="m 133.22289,305.09301 a 1.7635356,1.7635356 0 0 0 -1.76372,1.76372 1.7635356,1.7635356 0 0 0 1.76372,1.76372 1.7635356,1.7635356 0 0 0 1.7632,-1.76372 1.7635356,1.7635356 0 0 0 -1.7632,-1.76372 z m 0,0.69402 a 1.0698314,1.0698314 0 0 1 0.9927,0.67283 h -1.98541 a 1.0698314,1.0698314 0 0 1 0.99271,-0.67283 z m -0.99323,1.46658 h 1.98541 a 1.0698314,1.0698314 0 0 1 -0.99218,0.67282 1.0698314,1.0698314 0 0 1 -0.99323,-0.67282 z"
       id="path868"
       inkscape:connector-curvature="0" />
    <path
       style="opacity:1;fill:#000000;fill-opacity:1;fill-rule:evenodd;stroke:none;stroke-width:7.83950567;stroke-linecap:round;stroke-linejoin:round;stroke-miterlimit:4;stroke-dasharray:none;stroke-dashoffset:0;stroke-opacity:1"
       d="m 130.01533,307.08824 -0.17002,0.4253 -0.56844,0.2682 0.13643,0.29817 c 0.41014,0.10108 0.60348,0.33317 0.81132,0.67645 l 1.15962,-0.12558 0.0114,-0.42788 c -0.24228,-0.23866 -0.50494,-0.82767 -0.54984,-1.11466 z"
       id="path864"
       inkscape:connector-curvature="0" />
    <path
       style="opacity:1;fill:#000000;fill-opacity:1;fill-rule:evenodd;stroke:none;stroke-width:7.83950567;stroke-linecap:round;stroke-linejoin:round;stroke-miterlimit:4;stroke-dasharray:none;stroke-dashoffset:0;stroke-opacity:1"
       d="m 136.48987,308.04942 -0.8599,0.86507 -0.57929,2.30011 1.57613,0.0202 0.51625,-1.34721 v -0.93379 z"
       id="path860"
       inkscape:connector-curvature="0" />
    <path
       style="opacity:1;fill:#000000;fill-opacity:1;fill-rule:evenodd;stroke:none;stroke-width:7.83950567;stroke-linecap:round;stroke-linejoin:round;stroke-miterlimit:4;stroke-dasharray:none;stroke-dashoffset:0;stroke-opacity:1"
       d="m 128.84382,308.43441 c -0.29969,0.003 -0.60133,0.0849 -0.82889,0.23823 -0.20419,0.13753 -0.26458,0.339 -0.26458,0.339 v 0.18965 h 2.12752 v -0.18965 c 0,0 -0.0263,-0.19668 -0.21704,-0.339 -0.21993,-0.16405 -0.51731,-0.24092 -0.81701,-0.23823 z"
       id="path858"
       inkscape:connector-curvature="0" />
    <path
       style="opacity:1;fill:#000000;fill-opacity:1;fill-rule:evenodd;stroke:none;stroke-width:7.83950567;stroke-linecap:round;stroke-linejoin:round;stroke-miterlimit:4;stroke-dasharray:none;stroke-dashoffset:0;stroke-opacity:1"
       d="m 134.77111,308.49487 a 2.2559197,2.2559197 0 0 1 -0.72399,0.46147 l 0.75965,1.37046 0.46302,-1.44694 z"
       id="path856"
       inkscape:connector-curvature="0" />
    <path
       style="opacity:1;fill:#000000;fill-opacity:1;fill-rule:evenodd;stroke:none;stroke-width:7.83950567;stroke-linecap:round;stroke-linejoin:round;stroke-miterlimit:4;stroke-dasharray:none;stroke-dashoffset:0;stroke-opacity:1"
       d="m 126.36594,309.47518 -1.05937,1.8836 h 5.8074 v -1.0728 l -0.64079,-0.8108 z"
       id="path854"
       inkscape:connector-curvature="0" />
    <path
       style="opacity:1;fill:#000000;fill-opacity:1;fill-rule:evenodd;stroke:none;stroke-width:7.83950567;stroke-linecap:round;stroke-linejoin:round;stroke-miterlimit:4;stroke-dasharray:none;stroke-dashoffset:0;stroke-opacity:1"
       d="m 137.50428,310.09012 -0.47749,1.15084 1.56218,-0.0129 -0.51108,-1.13792 z"
       id="path852"
       inkscape:connector-curvature="0" />
    <path
       style="opacity:1;fill:#000000;fill-opacity:1;fill-rule:evenodd;stroke:none;stroke-width:7.83950567;stroke-linecap:round;stroke-linejoin:round;stroke-miterlimit:4;stroke-dasharray:none;stroke-dashoffset:0;stroke-opacity:1"
       d="m 125.56237,310.19709 -1.2051,0.1757 -0.35863,0.98599 h 0.96325 z"
       id="rect844"
       inkscape:connector-curvature="0" />
  </g>
</svg>
