<?xml version="1.0" encoding="UTF-8" standalone="no"?>
<!-- Created with Inkscape (http://www.inkscape.org/) -->

<svg
   xmlns:dc="http://purl.org/dc/elements/1.1/"
   xmlns:cc="http://creativecommons.org/ns#"
   xmlns:rdf="http://www.w3.org/1999/02/22-rdf-syntax-ns#"
   xmlns:svg="http://www.w3.org/2000/svg"
   xmlns="http://www.w3.org/2000/svg"
   xmlns:sodipodi="http://sodipodi.sourceforge.net/DTD/sodipodi-0.dtd"
   xmlns:inkscape="http://www.inkscape.org/namespaces/inkscape"
   width="100"
   height="100"
   viewBox="0 0 26.458333 26.458334"
   version="1.1"
   id="svg1000"
   inkscape:version="0.92.4 (5da689c313, 2019-01-14)"
   sodipodi:docname="51-gear-leg-left.svg">
  <defs
     id="defs994" />
  <sodipodi:namedview
     id="base"
     pagecolor="#ffffff"
     bordercolor="#666666"
     borderopacity="1.0"
     inkscape:pageopacity="0.0"
     inkscape:pageshadow="2"
     inkscape:zoom="0.99999999"
     inkscape:cx="-190.31489"
     inkscape:cy="-5.4849496"
     inkscape:document-units="px"
     inkscape:current-layer="layer1"
     showgrid="false"
     units="px"
     fit-margin-top="0"
     fit-margin-left="0"
     fit-margin-right="0"
     fit-margin-bottom="0"
     inkscape:window-width="1920"
     inkscape:window-height="1027"
     inkscape:window-x="-8"
     inkscape:window-y="-8"
     inkscape:window-maximized="1"
     showguides="true"
     inkscape:guide-bbox="true"
     inkscape:snap-smooth-nodes="true"
     inkscape:snap-object-midpoints="true"
     inkscape:snap-bbox="true"
     inkscape:snap-bbox-midpoints="true" />
  <metadata
     id="metadata997">
    <rdf:RDF>
      <cc:Work
         rdf:about="">
        <dc:format>image/svg+xml</dc:format>
        <dc:type
           rdf:resource="http://purl.org/dc/dcmitype/StillImage" />
        <dc:title></dc:title>
      </cc:Work>
    </rdf:RDF>
  </metadata>
  <g
     inkscape:label="Layer 1"
     inkscape:groupmode="layer"
     id="layer1"
     transform="translate(-119.59167,-286.41663)">
    <path
       style="opacity:1;fill:#000000;fill-opacity:1;fill-rule:evenodd;stroke:none;stroke-width:4.36727905;stroke-linecap:round;stroke-linejoin:round;stroke-miterlimit:4;stroke-dasharray:none;stroke-dashoffset:0;stroke-opacity:1"
       d="m 126.51011,287.93282 c -1.38709,-9e-5 -2.51155,1.12438 -2.51147,2.51147 -10e-5,1.3871 1.12437,2.51157 2.51147,2.51148 0.28229,-9.5e-4 0.56221,-0.0496 0.82837,-0.14366 l 0.90279,-1.47691 v -1.16531 l 0.66198,-0.67438 c -0.3917,-0.90581 -1.38043,-1.56269 -2.39314,-1.56269 z m 0,1.21439 a 1.2970178,1.2970178 0 0 1 1.29708,1.29708 1.2970178,1.2970178 0 0 1 -1.29708,1.29708 1.2970178,1.2970178 0 0 1 -1.29708,-1.29708 1.2970178,1.2970178 0 0 1 1.29708,-1.29708 z"
       id="path912"
       inkscape:connector-curvature="0" />
    <path
       style="opacity:1;fill:#000000;fill-opacity:1;fill-rule:evenodd;stroke:none;stroke-width:4.36727905;stroke-linecap:round;stroke-linejoin:round;stroke-miterlimit:4;stroke-dasharray:none;stroke-dashoffset:0;stroke-opacity:1"
       d="m 129.23243,289.24437 -0.0667,0.62838 -0.55604,0.63356 -0.0212,0.92345 2.10013,0.89245 0.37052,1.16996 c 0,0 0.96236,0.77137 1.20716,0.98909 h 5.2e-4 c 0.19182,0.19208 0.45203,0.30001 0.72347,0.30024 0.56539,-3e-5 1.02366,-0.45833 1.02371,-1.02371 -2.6e-4,-0.27143 -0.1082,-0.53165 -0.30024,-0.72347 l -0.006,-0.006 c -0.0308,-0.03 -0.0635,-0.0578 -0.0977,-0.0837 l -0.60306,-0.5395 c -0.85861,-0.74085 -0.68641,-1.34875 -1.22474,-1.89188 -0.43788,-0.42969 -1.40524,-1.21995 -2.54971,-1.26865 z m 3.75739,4.19612 a 0.31729333,0.31729333 0 0 1 0.3173,0.3173 0.31729333,0.31729333 0 0 1 -0.3173,0.31729 0.31729333,0.31729333 0 0 1 -0.31729,-0.31729 0.31729333,0.31729333 0 0 1 0.31729,-0.3173 z"
       id="path908"
       inkscape:connector-curvature="0" />
    <path
       style="opacity:1;fill:#000000;fill-opacity:1;fill-rule:evenodd;stroke:none;stroke-width:4.36727905;stroke-linecap:round;stroke-linejoin:round;stroke-miterlimit:4;stroke-dasharray:none;stroke-dashoffset:0;stroke-opacity:1"
       d="m 126.51011,289.50843 a 0.93594551,0.93594551 0 0 0 -0.93586,0.93586 0.93594551,0.93594551 0 0 0 0.93586,0.93586 0.93594551,0.93594551 0 0 0 0.93586,-0.93586 0.93594551,0.93594551 0 0 0 -0.93586,-0.93586 z"
       id="path906"
       inkscape:connector-curvature="0" />
    <path
       style="opacity:1;fill:#000000;fill-opacity:1;fill-rule:evenodd;stroke:none;stroke-width:4.36727905;stroke-linecap:round;stroke-linejoin:round;stroke-miterlimit:4;stroke-dasharray:none;stroke-dashoffset:0;stroke-opacity:1"
       d="m 134.90702,291.48971 -0.29146,0.2651 0.12041,1.80247 c 0.1629,-0.0965 0.39084,-0.14017 0.58136,-0.14004 l -0.17777,-1.65571 z"
       id="path904"
       inkscape:connector-curvature="0" />
    <path
       style="opacity:1;fill:#000000;fill-opacity:1;fill-rule:evenodd;stroke:none;stroke-width:4.36727905;stroke-linecap:round;stroke-linejoin:round;stroke-miterlimit:4;stroke-dasharray:none;stroke-dashoffset:0;stroke-opacity:1"
       d="m 128.31569,291.84369 -0.76688,1.35031 0.51366,0.22221 c 0,-0.39511 0.37694,-0.56224 1.00252,-0.56224 v -1.01028 z"
       id="path902"
       inkscape:connector-curvature="0" />
    <path
       style="opacity:1;fill:#000000;fill-opacity:1;fill-rule:evenodd;stroke:none;stroke-width:4.36727905;stroke-linecap:round;stroke-linejoin:round;stroke-miterlimit:4;stroke-dasharray:none;stroke-dashoffset:0;stroke-opacity:1"
       d="m 129.40606,292.08864 0.007,0.90847 1.22628,0.88108 -0.009,-0.91622 z"
       id="path900"
       inkscape:connector-curvature="0" />
    <path
       style="opacity:1;fill:#000000;fill-opacity:1;fill-rule:evenodd;stroke:none;stroke-width:4.36727905;stroke-linecap:round;stroke-linejoin:round;stroke-miterlimit:4;stroke-dasharray:none;stroke-dashoffset:0;stroke-opacity:1"
       d="m 128.81281,293.14852 c -0.25063,-0.0361 -0.5012,0.31958 -0.24753,0.48886 l 2.35231,1.56993 0.29818,-0.48989 -2.29702,-1.52807 c -0.0343,-0.0229 -0.0701,-0.0357 -0.10594,-0.0408 z"
       id="path898"
       inkscape:connector-curvature="0" />
    <path
       style="opacity:1;fill:#000000;fill-opacity:1;fill-rule:evenodd;stroke:none;stroke-width:4.36727905;stroke-linecap:round;stroke-linejoin:round;stroke-miterlimit:4;stroke-dasharray:none;stroke-dashoffset:0;stroke-opacity:1"
       d="m 135.47753,293.69112 a 1.4699074,1.4699074 0 0 0 -1.46968,1.4702 1.4699074,1.4699074 0 0 0 1.46968,1.46968 1.4699074,1.4699074 0 0 0 1.47019,-1.46968 1.4699074,1.4699074 0 0 0 -1.47019,-1.4702 z m 0,0.60307 a 0.86693673,0.86693673 0 0 1 0.86713,0.86713 0.86693673,0.86693673 0 0 1 -0.86713,0.86713 0.86693673,0.86693673 0 0 1 -0.86713,-0.86713 0.86693673,0.86693673 0 0 1 0.86713,-0.86713 z"
       id="path894"
       inkscape:connector-curvature="0" />
    <path
       style="opacity:1;fill:#000000;fill-opacity:1;fill-rule:evenodd;stroke:none;stroke-width:4.36727905;stroke-linecap:round;stroke-linejoin:round;stroke-miterlimit:4;stroke-dasharray:none;stroke-dashoffset:0;stroke-opacity:1"
       d="m 135.47753,294.643 a 0.51837693,0.51837693 0 0 0 -0.51832,0.51832 0.51837693,0.51837693 0 0 0 0.51832,0.51831 0.51837693,0.51837693 0 0 0 0.51831,-0.51831 0.51837693,0.51837693 0 0 0 -0.51831,-0.51832 z"
       id="path890"
       inkscape:connector-curvature="0" />
    <path
       style="opacity:1;fill:#000000;fill-opacity:1;fill-rule:evenodd;stroke:none;stroke-width:4.36727905;stroke-linecap:round;stroke-linejoin:round;stroke-miterlimit:4;stroke-dasharray:none;stroke-dashoffset:0;stroke-opacity:1"
       d="m 131.58629,294.89622 -0.30128,0.52141 1.33739,0.18914 -0.0579,-0.51573 z"
       id="path888"
       inkscape:connector-curvature="0" />
    <path
       style="opacity:1;fill:#000000;fill-opacity:1;fill-rule:evenodd;stroke:none;stroke-width:4.36727905;stroke-linecap:round;stroke-linejoin:round;stroke-miterlimit:4;stroke-dasharray:none;stroke-dashoffset:0;stroke-opacity:1"
       d="m 133.28128,295.0037 c -0.13491,0.0169 -0.26975,0.12569 -0.26975,0.30955 0,0.55901 0.1409,1.12744 0.76016,1.38182 0.35832,0.14718 0.51362,-0.32115 0.23719,-0.42478 -0.37989,-0.14241 -0.45785,-0.68122 -0.45785,-1.02371 0,-0.1848 -0.13485,-0.25974 -0.26975,-0.24288 z"
       id="path886"
       inkscape:connector-curvature="0" />
    <path
       style="opacity:1;fill:#000000;fill-opacity:1;fill-rule:evenodd;stroke:none;stroke-width:4.36727905;stroke-linecap:round;stroke-linejoin:round;stroke-miterlimit:4;stroke-dasharray:none;stroke-dashoffset:0;stroke-opacity:1"
       d="m 138.97344,295.35821 -1.77561,1.18339 c -0.1311,1.04119 -0.0676,2.40398 -1.71772,2.40398 l -0.39636,1.11053 c 1.9376,0 3.87485,-1.69158 4.8147,-3.32951 v -0.64699 z"
       id="path884"
       inkscape:connector-curvature="0" />
    <path
       style="opacity:1;fill:#000000;fill-opacity:1;fill-rule:evenodd;stroke:none;stroke-width:4.36727905;stroke-linecap:round;stroke-linejoin:round;stroke-miterlimit:4;stroke-dasharray:none;stroke-dashoffset:0;stroke-opacity:1"
       d="m 136.44646,296.59999 -0.39377,0.46715 -0.6532,0.0274 c 0.16414,0.39387 0.40662,0.71267 0.19948,1.46296 h 0.52038 c 0.56869,-0.74115 0.59014,-1.18668 0.59014,-1.9575 z"
       id="path882"
       inkscape:connector-curvature="0" />
    <path
       style="opacity:1;fill:#000000;fill-opacity:1;fill-rule:evenodd;stroke:none;stroke-width:4.36727905;stroke-linecap:round;stroke-linejoin:round;stroke-miterlimit:4;stroke-dasharray:none;stroke-dashoffset:0;stroke-opacity:1"
       d="m 133.84455,296.96844 a 1.3930311,1.3930311 0 0 0 -0.13901,0.008 1.3930311,1.3930311 0 0 0 -0.007,10e-4 1.3930311,1.3930311 0 0 0 -0.13126,0.0202 c -0.04,0.008 -0.0791,0.0185 -0.11782,0.03 a 1.3930311,1.3930311 0 0 0 -0.0134,0.004 c -0.001,2.1e-4 -0.001,3e-4 -0.002,5.2e-4 a 1.3930311,1.3930311 0 0 0 -0.0713,0.0263 c -0.0188,0.007 -0.0383,0.0127 -0.0568,0.0207 a 1.3930311,1.3930311 0 0 1 -5.2e-4,0 1.3930311,1.3930311 0 0 0 -0.23099,0.12506 c -0.001,10e-4 -0.003,0.002 -0.005,0.003 a 1.3930311,1.3930311 0 0 0 -0.002,0.002 1.3930311,1.3930311 0 0 0 -0.19534,0.16123 c -0.004,0.004 -0.008,0.007 -0.0124,0.0114 a 1.3930311,1.3930311 0 0 0 -0.15917,0.19327 c -0.003,0.005 -0.007,0.009 -0.0103,0.0145 a 1.3930311,1.3930311 0 0 0 -0.11834,0.21911 c -0.004,0.009 -0.008,0.0168 -0.0119,0.0258 a 1.3930311,1.3930311 0 0 0 -0.0279,0.0765 c -0.006,0.0184 -0.0126,0.0366 -0.0186,0.0553 a 1.3930311,1.3930311 0 0 0 -0.0207,0.0817 c -0.004,0.0164 -0.008,0.0325 -0.0109,0.0491 a 1.3930311,1.3930311 0 0 0 -0.0139,0.0894 c -0.002,0.0167 -0.004,0.0332 -0.006,0.0501 a 1.3930311,1.3930311 0 0 0 -0.007,0.12609 1.3930311,1.3930311 0 0 0 5.2e-4,0.01 l -5.2e-4,1.05058 0.53537,0.94672 -0.77153,4.10879 c 0.53083,0.0232 0.97787,0.13226 1.35237,0.34675 l 0.58446,-3.28921 c -0.0118,-0.26324 0.38871,-0.40837 0.45941,-0.65629 -0.0623,-0.92491 0.47749,-1.4696 0.59531,-2.235 a 1.3930311,1.3930311 0 0 0 0.0305,-0.28216 1.3930311,1.3930311 0 0 0 -0.0631,-0.41392 1.3930311,1.3930311 0 0 0 -0.17518,-0.36484 1.3930311,1.3930311 0 0 0 -0.17002,-0.20567 1.3930311,1.3930311 0 0 0 -0.1943,-0.16072 c -0.007,-0.005 -0.0126,-0.01 -0.0196,-0.014 a 1.3930311,1.3930311 0 0 0 -0.21549,-0.1173 c -0.009,-0.004 -0.0184,-0.008 -0.0274,-0.0119 a 1.3930311,1.3930311 0 0 0 -0.076,-0.0279 c -0.0184,-0.006 -0.0366,-0.0126 -0.0553,-0.0186 a 1.3930311,1.3930311 0 0 0 -0.0817,-0.0207 c -0.0163,-0.004 -0.0325,-0.008 -0.0491,-0.0109 a 1.3930311,1.3930311 0 0 0 -0.0904,-0.0139 c -0.0164,-0.002 -0.0326,-0.005 -0.0491,-0.006 a 1.3930311,1.3930311 0 0 0 -0.12609,-0.007 v -0.001 a 1.3930311,1.3930311 0 0 0 -0.004,0 z m 0.004,1.07694 a 0.31729333,0.31729333 0 0 1 0.31729,0.31729 0.31729333,0.31729333 0 0 1 -0.31729,0.3173 0.31729333,0.31729333 0 0 1 -0.31729,-0.3173 0.31729333,0.31729333 0 0 1 0.31729,-0.31729 z"
       id="path880"
       inkscape:connector-curvature="0" />
    <path
       style="opacity:1;fill:#000000;fill-opacity:1;fill-rule:evenodd;stroke:none;stroke-width:4.36727905;stroke-linecap:round;stroke-linejoin:round;stroke-miterlimit:4;stroke-dasharray:none;stroke-dashoffset:0;stroke-opacity:1"
       d="m 131.85191,300.51861 -1.67484,3.4184 c -0.2805,0.5725 0.37526,0.72768 0.58653,0.31678 l 1.92082,-3.73518 z"
       id="path876"
       inkscape:connector-curvature="0" />
    <path
       style="opacity:1;fill:#000000;fill-opacity:1;fill-rule:evenodd;stroke:none;stroke-width:4.36727905;stroke-linecap:round;stroke-linejoin:round;stroke-miterlimit:4;stroke-dasharray:none;stroke-dashoffset:0;stroke-opacity:1"
       d="m 135.09667,301.58367 c -0.14273,0.002 -0.29084,0.075 -0.30334,0.19275 l -0.13798,1.29501 h 0.63097 l 0.0801,-1.2578 c 0.0104,-0.16416 -0.12701,-0.23225 -0.26975,-0.22996 z"
       id="path874"
       inkscape:connector-curvature="0" />
    <path
       style="opacity:1;fill:#000000;fill-opacity:1;fill-rule:evenodd;stroke:none;stroke-width:4.36727905;stroke-linecap:round;stroke-linejoin:round;stroke-miterlimit:4;stroke-dasharray:none;stroke-dashoffset:0;stroke-opacity:1"
       d="m 134.61608,303.44143 -0.13746,1.29501 0.7028,-0.0372 0.0822,-1.25781 z"
       id="path872"
       inkscape:connector-curvature="0" />
    <path
       style="opacity:1;fill:#000000;fill-opacity:1;fill-rule:evenodd;stroke:none;stroke-width:4.36727905;stroke-linecap:round;stroke-linejoin:round;stroke-miterlimit:4;stroke-dasharray:none;stroke-dashoffset:0;stroke-opacity:1"
       d="m 128.93839,304.43982 -0.34262,0.39791 0.28009,0.29559 0.12971,1.24075 1.14411,0.69298 c 0.003,-0.0361 0.0131,-0.0794 0.0171,-0.1173 a 2.2559197,2.2559197 0 0 1 -0.004,-0.093 2.2559197,2.2559197 0 0 1 0.56276,-1.4857 l -0.0115,-0.36639 c -0.58456,0.1628 -0.84976,-0.20343 -1.10071,-0.56482 z"
       id="path870"
       inkscape:connector-curvature="0" />
    <path
       style="opacity:1;fill:#000000;fill-opacity:1;fill-rule:evenodd;stroke:none;stroke-width:4.36727905;stroke-linecap:round;stroke-linejoin:round;stroke-miterlimit:4;stroke-dasharray:none;stroke-dashoffset:0;stroke-opacity:1"
       d="m 136.08782,305.01343 -1.62367,0.12402 -0.18087,0.4961 0.69247,1.0113 1.22628,-0.78548 z"
       id="path868"
       inkscape:connector-curvature="0" />
    <path
       style="opacity:1;fill:#000000;fill-opacity:1;fill-rule:evenodd;stroke:none;stroke-width:4.36727905;stroke-linecap:round;stroke-linejoin:round;stroke-miterlimit:4;stroke-dasharray:none;stroke-dashoffset:0;stroke-opacity:1"
       d="m 132.4188,305.09301 a 1.7635356,1.7635356 0 0 0 -1.76321,1.76372 1.7635356,1.7635356 0 0 0 1.76321,1.76371 1.7635356,1.7635356 0 0 0 1.76371,-1.76371 1.7635356,1.7635356 0 0 0 -1.76371,-1.76372 z m 0,0.69402 a 1.0698314,1.0698314 0 0 1 0.9927,0.67282 h -1.98541 a 1.0698314,1.0698314 0 0 1 0.99271,-0.67282 z m -0.99219,1.46657 h 1.98541 a 1.0698314,1.0698314 0 0 1 -0.99322,0.67283 1.0698314,1.0698314 0 0 1 -0.99219,-0.67283 z"
       id="path866"
       inkscape:connector-curvature="0" />
    <path
       style="opacity:1;fill:#000000;fill-opacity:1;fill-rule:evenodd;stroke:none;stroke-width:4.36727905;stroke-linecap:round;stroke-linejoin:round;stroke-miterlimit:4;stroke-dasharray:none;stroke-dashoffset:0;stroke-opacity:1"
       d="m 134.79591,307.08824 c -0.0449,0.28699 -0.30755,0.876 -0.54983,1.11466 l 0.0114,0.42788 1.15962,0.12557 c 0.20784,-0.34328 0.40118,-0.57536 0.81132,-0.67644 l 0.13642,-0.29817 -0.56844,-0.2682 -0.17002,-0.4253 z"
       id="path862"
       inkscape:connector-curvature="0" />
    <path
       style="opacity:1;fill:#000000;fill-opacity:1;fill-rule:evenodd;stroke:none;stroke-width:4.36727905;stroke-linecap:round;stroke-linejoin:round;stroke-miterlimit:4;stroke-dasharray:none;stroke-dashoffset:0;stroke-opacity:1"
       d="m 129.15181,308.04942 -0.65319,0.90434 v 0.93379 l 0.51625,1.34721 1.57613,-0.0202 -0.57929,-2.30012 z"
       id="path858"
       inkscape:connector-curvature="0" />
    <path
       style="opacity:1;fill:#000000;fill-opacity:1;fill-rule:evenodd;stroke:none;stroke-width:4.36727905;stroke-linecap:round;stroke-linejoin:round;stroke-miterlimit:4;stroke-dasharray:none;stroke-dashoffset:0;stroke-opacity:1"
       d="m 136.79786,308.43441 c -0.29969,-0.003 -0.59708,0.0742 -0.81701,0.23823 -0.19078,0.14232 -0.21704,0.339 -0.21704,0.339 v 0.18965 h 2.12752 v -0.18965 c 0,0 -0.0604,-0.20147 -0.26458,-0.339 -0.22756,-0.1533 -0.5292,-0.23554 -0.82889,-0.23823 z"
       id="path856"
       inkscape:connector-curvature="0" />
    <path
       style="opacity:1;fill:#000000;fill-opacity:1;fill-rule:evenodd;stroke:none;stroke-width:4.36727905;stroke-linecap:round;stroke-linejoin:round;stroke-miterlimit:4;stroke-dasharray:none;stroke-dashoffset:0;stroke-opacity:1"
       d="m 130.87057,308.49487 -0.49868,0.38499 0.46302,1.44694 0.75965,-1.37046 a 2.2559197,2.2559197 0 0 1 -0.72399,-0.46147 z"
       id="path854"
       inkscape:connector-curvature="0" />
    <path
       style="opacity:1;fill:#000000;fill-opacity:1;fill-rule:evenodd;stroke:none;stroke-width:4.36727905;stroke-linecap:round;stroke-linejoin:round;stroke-miterlimit:4;stroke-dasharray:none;stroke-dashoffset:0;stroke-opacity:1"
       d="m 135.1685,309.47517 -0.64079,0.81081 v 1.0728 h 5.8074 l -1.05937,-1.88361 z"
       id="path852"
       inkscape:connector-curvature="0" />
    <path
       style="opacity:1;fill:#000000;fill-opacity:1;fill-rule:evenodd;stroke:none;stroke-width:4.36727905;stroke-linecap:round;stroke-linejoin:round;stroke-miterlimit:4;stroke-dasharray:none;stroke-dashoffset:0;stroke-opacity:1"
       d="m 127.56379,310.09012 -0.51108,1.13792 1.56218,0.0129 -0.47749,-1.15084 z"
       id="path850"
       inkscape:connector-curvature="0" />
    <path
       style="opacity:1;fill:#000000;fill-opacity:1;fill-rule:evenodd;stroke:none;stroke-width:4.36727905;stroke-linecap:round;stroke-linejoin:round;stroke-miterlimit:4;stroke-dasharray:none;stroke-dashoffset:0;stroke-opacity:1"
       d="m 140.07931,310.19709 0.60048,1.16169 h 0.96325 l -0.35863,-0.98599 z"
       id="rect842"
       inkscape:connector-curvature="0" />
  </g>
</svg>
