<?xml version="1.0" encoding="UTF-8" standalone="no"?>
<svg
   xmlns:dc="http://purl.org/dc/elements/1.1/"
   xmlns:cc="http://creativecommons.org/ns#"
   xmlns:rdf="http://www.w3.org/1999/02/22-rdf-syntax-ns#"
   xmlns:svg="http://www.w3.org/2000/svg"
   xmlns="http://www.w3.org/2000/svg"
   xmlns:sodipodi="http://sodipodi.sourceforge.net/DTD/sodipodi-0.dtd"
   xmlns:inkscape="http://www.inkscape.org/namespaces/inkscape"
   width="512"
   height="512"
   viewBox="0 0 1599.9968 1599.9968"
   version="1.1"
   id="svg4528"
   sodipodi:docname="favicon.svg"
   inkscape:version="0.92.4 (5da689c313, 2019-01-14)"
   inkscape:export-filename="D:\Ampps\www\gbgwcalculator.github.io\assets\favicon-96x96.png"
   inkscape:export-xdpi="18"
   inkscape:export-ydpi="18">
  <metadata
     id="metadata4534">
    <rdf:RDF>
      <cc:Work
         rdf:about="">
        <dc:format>image/svg+xml</dc:format>
        <dc:type
           rdf:resource="http://purl.org/dc/dcmitype/StillImage" />
        <dc:title />
      </cc:Work>
    </rdf:RDF>
  </metadata>
  <defs
     id="defs4532" />
  <sodipodi:namedview
     pagecolor="#ffffff"
     bordercolor="#666666"
     borderopacity="1"
     objecttolerance="10"
     gridtolerance="10"
     guidetolerance="10"
     inkscape:pageopacity="0"
     inkscape:pageshadow="2"
     inkscape:window-width="1920"
     inkscape:window-height="1027"
     id="namedview4530"
     showgrid="false"
     units="px"
     showguides="true"
     inkscape:guide-bbox="true"
     inkscape:snap-bbox="true"
     inkscape:bbox-nodes="true"
     inkscape:snap-bbox-midpoints="true"
     inkscape:zoom="1.3122533"
     inkscape:cx="58.152846"
     inkscape:cy="224.06309"
     inkscape:window-x="-8"
     inkscape:window-y="-8"
     inkscape:window-maximized="1"
     inkscape:current-layer="svg4528">
    <sodipodi:guide
       position="799.9984,799.9984"
       orientation="1,0"
       id="guide4554"
       inkscape:locked="false"
       inkscape:label=""
       inkscape:color="rgb(0,0,255)" />
    <sodipodi:guide
       position="799.9984,799.9984"
       orientation="0,1"
       id="guide4556"
       inkscape:locked="false"
       inkscape:label=""
       inkscape:color="rgb(0,0,255)" />
    <sodipodi:guide
       position="399.9992,799.9984"
       orientation="1,0"
       id="guide4558"
       inkscape:locked="false"
       inkscape:label=""
       inkscape:color="rgb(0,0,255)" />
    <sodipodi:guide
       position="1199.9976,799.9984"
       orientation="1,0"
       id="guide4560"
       inkscape:locked="false"
       inkscape:label=""
       inkscape:color="rgb(0,0,255)" />
    <sodipodi:guide
       position="799.9984,1199.9976"
       orientation="0,1"
       id="guide4562"
       inkscape:locked="false"
       inkscape:label=""
       inkscape:color="rgb(0,0,255)" />
    <sodipodi:guide
       position="799.9984,399.9992"
       orientation="0,1"
       id="guide4564"
       inkscape:locked="false"
       inkscape:label=""
       inkscape:color="rgb(0,0,255)" />
  </sodipodi:namedview>
  <rect
     style="opacity:1;fill:#58d5f6;fill-opacity:1;fill-rule:evenodd;stroke:none;stroke-width:37.40946579;stroke-linecap:round;stroke-linejoin:round;stroke-miterlimit:4;stroke-dasharray:none;stroke-dashoffset:0;stroke-opacity:1"
     id="rect4552"
     width="1599.9968"
     height="1599.9968"
     x="0"
     y="5.435878e-09"
     ry="199.9996"
     rx="199.9996" />
  <path
     style="fill:#000000;fill-opacity:1;stroke:none;stroke-width:3.12532926"
     d="m 18.749962,799.82659 c 0,0 1562.496838,0 1562.496838,0"
     id="path4548" />
  <path
     style="fill:#000000;fill-opacity:1;stroke:none;stroke-width:3.12532926"
     d="m 799.9984,18.41037 c 0,0 0,1562.83243 0,1562.83243"
     id="path4546" />
  <path
     style="fill:#ffffff;fill-opacity:1;stroke:#044e6c;stroke-width:12.499975;stroke-opacity:1;stroke-miterlimit:4;stroke-dasharray:none"
     d="m 349.9993,174.95132 c 0,0 0,175.03724 0,175.03724 0,0 -174.99965,0 -174.99965,0 0,0 0,100.02127 0,100.02127 0,0 174.99965,0 174.99965,0 0,0 0,175.03724 0,175.03724 0,0 99.9998,0 99.9998,0 0,0 0,-175.03724 0,-175.03724 0,0 174.99965,0 174.99965,0 0,0 0,-100.02127 0,-100.02127 0,0 -174.99965,0 -174.99965,0 0,0 0,-175.03724 0,-175.03724 0,0 -99.9998,0 -99.9998,0 z"
     id="path4542"
     inkscape:connector-curvature="0" />
  <path
     style="fill:#ffffff;fill-opacity:1;stroke:#044e6c;stroke-width:12.499975;stroke-miterlimit:4;stroke-dasharray:none;stroke-opacity:1"
     d="m 974.99807,349.98856 c 0,0 0,100.02127 0,100.02127 0,0 449.99903,0 449.99903,0 0,0 0,-100.02127 0,-100.02127 0,0 -449.99903,0 -449.99903,0 z"
     id="path4540"
     inkscape:connector-curvature="0" />
  <path
     style="fill:#ffffff;fill-opacity:1;stroke:#044e6c;stroke-width:12.499975;stroke-opacity:1;stroke-miterlimit:4;stroke-dasharray:none"
     d="m 276.43695,1004.7216 c 0,0 -71.68736,71.8278 -71.68736,71.8278 0,0 123.3435,123.4325 123.3435,123.4325 0,0 -123.43725,123.4325 -123.43725,123.4325 0,0 71.84361,71.8903 71.84361,71.8903 0,0 123.4685,-123.4325 123.4685,-123.4325 0,0 123.531,123.4012 123.531,123.4012 0,0 71.84361,-71.7652 71.84361,-71.7652 0,0 -123.49975,-123.5263 -123.49975,-123.5263 0,0 123.406,-123.4013 123.406,-123.4013 0,0 -71.87486,-71.8902 -71.87486,-71.8902 0,0 -123.406,123.4012 -123.406,123.4012 0,0 -123.531,-123.37 -123.531,-123.37 z"
     id="path4538"
     inkscape:connector-curvature="0" />
  <rect
     style="opacity:1;fill:#ffffff;fill-opacity:1;fill-rule:evenodd;stroke:none;stroke-width:37.49992371;stroke-linecap:round;stroke-linejoin:round;stroke-miterlimit:4;stroke-dasharray:none;stroke-dashoffset:0;stroke-opacity:1"
     id="rect4566"
     width="799.99841"
     height="799.99841"
     x="799.99841"
     y="799.99841"
     rx="199.9996"
     ry="199.9996" />
  <path
     style="opacity:1;fill:#ffffff;fill-opacity:1;fill-rule:evenodd;stroke:none;stroke-width:12;stroke-linecap:round;stroke-linejoin:round;stroke-miterlimit:4;stroke-dasharray:none;stroke-dashoffset:0;stroke-opacity:1"
     d="M 256 256 L 256 384 L 256 512 L 384 512 L 384 384 L 512 384 L 512 256 L 384 256 L 256 256 z "
     transform="scale(3.1249937)"
     id="rect4568" />
  <path
     style="fill:#58d5f6;fill-opacity:1;stroke:#044e6c;stroke-width:12.499975;stroke-opacity:1;stroke-miterlimit:4;stroke-dasharray:none"
     d="m 1222.8956,1419.498 c 0,0 -5.9375,40.1959 -5.9375,40.1959 0,0 101.781,-0.2813 101.781,-0.2813 0,0 47.3749,-281.3098 47.3749,-281.3098 0,0 -166.8434,0.062 -166.8434,0.062 0,0 -11.4687,77.0789 -11.4687,77.0789 0,0 61.2186,0 61.2186,0 -1.3437,14.0967 -3.6562,40.1023 -5.1875,51.5735 -1.5312,11.4712 -22.7499,32.4756 -38.8124,33.6009 0,0 -83.0623,0.4063 -83.0623,0.4063 -11.4063,-0.031 -14.2188,-5.3761 -14.9063,-16.0659 -0.2812,-4.4697 44.9374,-274.4334 44.9374,-274.4334 4.3438,-12.2839 13.2813,-19.0978 26.25,-19.0978 0,0 86.2811,0.062 86.2811,0.062 4.7812,0.125 19.6874,-0.8439 19.4687,13.4091 0.6875,10.6898 -2.4375,55.2618 -2.4375,55.2618 0,0 98.7185,0 98.7185,0 0,0 12.4375,-75.6099 12.4375,-75.6099 3.1875,-19.004 7.75,-31.06903 -0.5312,-49.66673 -7.2813,-16.40974 -25.0937,-34.35106 -44.0312,-34.38232 0,0 -218.1246,0 -218.1246,0 -25.0624,0 -57.7811,33.44462 -65.2811,55.76186 0,0 -34.4062,193.85369 -54.3124,309.59709 -4.8437,28.2247 -9.75,36.8516 -5.9375,61.7006 3.8438,24.8178 35.9687,76.3912 69.2812,77.3289 0,0 102.531,1.5316 102.531,1.5316 12.5625,-0.031 22.5625,-6.3763 32.1562,-13.9092 4.2187,-3.3445 14.4375,-12.8152 14.4375,-12.8152 z"
     id="Unnamed"
     inkscape:connector-curvature="0" />
  <rect
     style="opacity:1;fill:#044e6c;fill-opacity:1;fill-rule:evenodd;stroke:none;stroke-width:132.93586731;stroke-linecap:round;stroke-linejoin:round;stroke-miterlimit:4;stroke-dasharray:none;stroke-dashoffset:0;stroke-opacity:1"
     id="rect4573"
     width="1574.9968"
     height="12.499975"
     x="12.499975"
     y="793.74841" />
  <rect
     y="-806.24835"
     x="12.499988"
     height="12.499975"
     width="1574.9968"
     id="rect4586"
     style="opacity:1;fill:#044e6c;fill-opacity:1;fill-rule:evenodd;stroke:none;stroke-width:132.93586731;stroke-linecap:round;stroke-linejoin:round;stroke-miterlimit:4;stroke-dasharray:none;stroke-dashoffset:0;stroke-opacity:1"
     transform="rotate(90)" />
</svg>
