<?xml version="1.0" encoding="UTF-8" standalone="no"?>
<!-- Created with Inkscape (http://www.inkscape.org/) -->

<svg
   xmlns:dc="http://purl.org/dc/elements/1.1/"
   xmlns:cc="http://creativecommons.org/ns#"
   xmlns:rdf="http://www.w3.org/1999/02/22-rdf-syntax-ns#"
   xmlns:svg="http://www.w3.org/2000/svg"
   xmlns="http://www.w3.org/2000/svg"
   xmlns:sodipodi="http://sodipodi.sourceforge.net/DTD/sodipodi-0.dtd"
   xmlns:inkscape="http://www.inkscape.org/namespaces/inkscape"
   width="377.95276"
   height="377.95276"
   viewBox="0 0 99.999998 100"
   version="1.1"
   id="svg2475"
   inkscape:version="0.92.4 (5da689c313, 2019-01-14)"
   sodipodi:docname="40-stat-melee-defense.svg">
  <defs
     id="defs2469" />
  <sodipodi:namedview
     id="base"
     pagecolor="#ffffff"
     bordercolor="#666666"
     borderopacity="1.0"
     inkscape:pageopacity="0.0"
     inkscape:pageshadow="2"
     inkscape:zoom="0.7"
     inkscape:cx="-7.7906162"
     inkscape:cy="145.61107"
     inkscape:document-units="mm"
     inkscape:current-layer="layer1"
     showgrid="false"
     units="px"
     fit-margin-top="0"
     fit-margin-left="0"
     fit-margin-right="0"
     fit-margin-bottom="0"
     inkscape:window-width="1920"
     inkscape:window-height="1027"
     inkscape:window-x="-8"
     inkscape:window-y="-8"
     inkscape:window-maximized="1" />
  <metadata
     id="metadata2472">
    <rdf:RDF>
      <cc:Work
         rdf:about="">
        <dc:format>image/svg+xml</dc:format>
        <dc:type
           rdf:resource="http://purl.org/dc/dcmitype/StillImage" />
        <dc:title></dc:title>
      </cc:Work>
    </rdf:RDF>
  </metadata>
  <g
     inkscape:label="Layer 1"
     inkscape:groupmode="layer"
     id="layer1"
     transform="translate(-251.54315,-38.061012)">
    <path
       style="opacity:1;fill:#000000;fill-opacity:1;fill-rule:evenodd;stroke:none;stroke-width:14.08059311;stroke-linecap:round;stroke-linejoin:round;stroke-miterlimit:4;stroke-dasharray:none;stroke-dashoffset:0;stroke-opacity:1"
       d="M 48.400391 24.738281 L 48.400391 272.04688 L 188.96875 353.21484 L 329.55273 272.04688 L 329.55273 24.738281 L 48.400391 24.738281 z M 178.46875 61.482422 L 199.4668 61.482422 L 199.4668 120.27539 L 178.46875 120.27539 L 178.46875 61.482422 z M 188.96875 152.77148 A 16.7979 16.7979 0 0 1 205.76562 169.57031 A 16.7979 16.7979 0 0 1 188.96875 186.36719 A 16.7979 16.7979 0 0 1 172.16992 169.57031 A 16.7979 16.7979 0 0 1 188.96875 152.77148 z M 80.896484 159.07227 L 139.68945 159.07227 L 139.68945 180.06836 L 80.896484 180.06836 L 80.896484 159.07227 z M 238.26367 159.07227 L 297.05469 159.07227 L 297.05469 180.06836 L 238.26367 180.06836 L 238.26367 159.07227 z M 178.46875 218.86523 L 199.4668 218.86523 L 199.4668 277.6582 L 178.46875 277.6582 L 178.46875 218.86523 z "
       transform="matrix(0.26458333,0,0,0.26458333,251.54315,38.061012)"
       id="path3071" />
  </g>
</svg>
