<?xml version="1.0" encoding="UTF-8" standalone="no"?>
<!-- Created with Inkscape (http://www.inkscape.org/) -->

<svg
   xmlns:dc="http://purl.org/dc/elements/1.1/"
   xmlns:cc="http://creativecommons.org/ns#"
   xmlns:rdf="http://www.w3.org/1999/02/22-rdf-syntax-ns#"
   xmlns:svg="http://www.w3.org/2000/svg"
   xmlns="http://www.w3.org/2000/svg"
   xmlns:sodipodi="http://sodipodi.sourceforge.net/DTD/sodipodi-0.dtd"
   xmlns:inkscape="http://www.inkscape.org/namespaces/inkscape"
   width="100"
   height="100"
   viewBox="0 0 26.458333 26.458334"
   version="1.1"
   id="svg5070"
   inkscape:version="0.92.4 (5da689c313, 2019-01-14)"
   sodipodi:docname="15-awakening.svg">
  <defs
     id="defs5064" />
  <sodipodi:namedview
     id="base"
     pagecolor="#ffffff"
     bordercolor="#666666"
     borderopacity="1.0"
     inkscape:pageopacity="0.0"
     inkscape:pageshadow="2"
     inkscape:zoom="3.959798"
     inkscape:cx="-17.50137"
     inkscape:cy="7.0861571"
     inkscape:document-units="px"
     inkscape:current-layer="layer7"
     showgrid="false"
     units="px"
     showguides="true"
     inkscape:guide-bbox="true"
     inkscape:snap-bbox="true"
     inkscape:snap-bbox-midpoints="true"
     fit-margin-top="0"
     fit-margin-left="0"
     fit-margin-right="0"
     fit-margin-bottom="0"
     inkscape:window-width="1920"
     inkscape:window-height="1027"
     inkscape:window-x="-8"
     inkscape:window-y="-8"
     inkscape:window-maximized="1" />
  <metadata
     id="metadata5067">
    <rdf:RDF>
      <cc:Work
         rdf:about="">
        <dc:format>image/svg+xml</dc:format>
        <dc:type
           rdf:resource="http://purl.org/dc/dcmitype/StillImage" />
        <dc:title></dc:title>
      </cc:Work>
    </rdf:RDF>
  </metadata>
  <g
     inkscape:groupmode="layer"
     id="layer7"
     inkscape:label="Awakening"
     style="display:inline"
     transform="translate(0,-2.2827148e-6)">
    <path
       style="display:inline;opacity:1;fill:#000000;stroke-width:0.19843727"
       d="M 5.8092477,22.085693 C 4.9280007,21.434485 4.9312018,21.13476 4.1407859,20.245671 3.5345198,19.563702 3.9035868,19.128369 3.5973048,18.674399 3.4051119,18.389502 3.2140559,18.183021 2.7253439,17.809901 c 0.597403,-0.464885 1.1839309,-0.435971 2.1947988,0.07973 0.604493,0.308391 0.773509,0.290672 1.1908361,0.275169 0.2895068,-1.46148 -0.4654281,-2.471817 -0.4719371,-3.907142 0.00741,-1.315046 0.5026289,-4.173924 0.71972,-4.3909985 0.054741,-0.05475 1.2956909,1.3416495 1.6505759,2.2329775 0.1965859,0.493785 0.1757629,-1.321476 0.5726379,-1.71436 0.89916,-0.8900894 0.16211,-1.7321128 0.666194,-2.3544799 0.646298,-0.7979328 0.1379547,-1.0087812 0.5044019,-1.6886656 0.5661816,-1.050464 0.3419206,0.4507156 0.5307276,0.6609109 0.189441,0.2109234 0.476911,0.3461969 0.602456,0.6004062 0.101944,0.2064282 0.08811,0.3200469 0.08977,0.684825 0.0048,1.0505875 0.39026,1.483364 0.81116,0.841 0.243945,-0.3723188 0.503236,-0.8417062 0.514746,-1.7715921 0.009,-0.7387234 0.244157,-1.2862375 0.366368,-1.4393906 0.286173,-0.3717984 0.402934,-0.5951046 0.35253,-1.1501421 0.0042,-0.4821578 0.174334,-1.1267671 0.317157,-1.1267671 0.265694,0 1.218221,2.0513561 1.218221,2.4697842 0,0.1274219 0.759592,1.0153281 1.080135,1.5014624 0.26572,0.4029719 0.346867,1.447475 0.460666,1.2847015 0.245982,-0.3518718 0.07961,-0.288714 0.509878,-0.718964 0.272839,-0.2728515 0.498422,-0.3205078 0.575601,-1.148289 0.107344,-1.1511671 0.771445,0.3318281 0.813117,1.0886421 0,0.1124688 0.486675,0.8778187 0.446618,1.5944265 -0.0403,0.7212136 0.615209,0.7112606 0.548243,2.1609746 -0.0348,0.753458 -0.02117,1.502183 0.04595,1.569352 0.06717,0.06717 0.573935,-0.129844 0.905669,-0.532305 0.399467,-0.484637 0.708739,-1.000423 0.915828,-0.920953 0.262467,0.100719 0.32557,0.586695 0.32557,2.757428 0,2.580439 -0.384545,2.766286 0.07881,2.766286 0.255931,0 0.768667,-0.01109 0.966231,-0.229389 0.740384,-0.563861 0.778591,-0.306263 1.489552,-0.812445 0.106593,1.201943 -0.366447,1.395487 -0.619761,2.329637 -0.2259,0.833087 -0.407352,1.174686 -0.756231,1.66392 -0.955041,1.33922 -3.466757,2.910078 -5.187421,2.124344 1.20388,-0.759966 1.561994,-0.946627 1.910636,-1.612444 -0.575654,-0.283581 -1.314767,-0.07394 -1.881506,-0.350109 0.353272,-0.482949 0.346181,-1.047614 0.667995,-1.597108 0.614389,-1.048989 0.751283,-1.771833 0.5883,-2.235436 -0.721915,0.547255 -1.398587,0.839655 -2.220225,0.780183 0.166661,-0.524884 0.04667,-0.909683 0.06724,-1.569442 0.02594,-0.829622 0.554328,-2.240883 0.256805,-2.917686 -0.698288,1.167223 -0.776499,0.73528 -1.888966,1.803883 0.0077,-1.107408 -0.225786,-0.791144 -0.31929,-1.891406 -0.267469,-1.811385 0.22074,-1.425786 -0.161451,-2.608413 -0.41439,-1.2822075 -0.255111,0.749888 -0.484002,1.236827 -0.228891,0.48694 -0.59063,1.197779 -0.930116,1.772036 -0.143775,0.243189 -0.394335,0.45742 -0.467651,0.706842 -0.101865,0.346673 -0.04048,0.439201 -0.0468,0.696828 -0.279638,-0.05667 -0.603461,-0.166908 -0.925936,-0.698267 -0.365019,-0.601505 -0.573722,-0.669163 -0.907203,-0.976567 l -0.124989,1.811557 c -0.05358,0.776758 0.03254,2.165966 -0.285486,1.750541 -0.8319285,-0.983155 -0.6744745,-0.495647 -1.4954244,-0.948055 -0.3311261,1.397094 0.5139539,1.729359 0.5617639,2.722811 0.061541,1.279001 0.4514579,1.34475 0.699611,2.138655 -0.766022,0.163265 -1.623219,0.05091 -2.3950349,0.221959 0,0.09159 0.7072309,0.819175 1.099265,1.175922 0.3920329,0.356742 0.5216518,0.553175 0.4297618,0.641222 -1.3580788,0.34277 -2.1113217,0.184354 -3.0921317,-0.558639 z"
       id="path4633"
       inkscape:connector-curvature="0"
       sodipodi:nodetypes="csscccccssssaacccccsssscscsccccssccsscccsccscccscascscsccscccccc" />
  </g>
</svg>
