<?xml version="1.0" encoding="UTF-8" standalone="no"?>
<!-- Created with Inkscape (http://www.inkscape.org/) -->

<svg
   xmlns:dc="http://purl.org/dc/elements/1.1/"
   xmlns:cc="http://creativecommons.org/ns#"
   xmlns:rdf="http://www.w3.org/1999/02/22-rdf-syntax-ns#"
   xmlns:svg="http://www.w3.org/2000/svg"
   xmlns="http://www.w3.org/2000/svg"
   xmlns:sodipodi="http://sodipodi.sourceforge.net/DTD/sodipodi-0.dtd"
   xmlns:inkscape="http://www.inkscape.org/namespaces/inkscape"
   width="100"
   height="100"
   viewBox="0 0 26.458333 26.458334"
   version="1.1"
   id="svg2317"
   inkscape:version="0.92.4 (5da689c313, 2019-01-14)"
   sodipodi:docname="01-all-rounder.svg">
  <defs
     id="defs2311" />
  <sodipodi:namedview
     id="base"
     pagecolor="#ffffff"
     bordercolor="#666666"
     borderopacity="1.0"
     inkscape:pageopacity="0.0"
     inkscape:pageshadow="2"
     inkscape:zoom="1.4"
     inkscape:cx="-21.193981"
     inkscape:cy="43.84328"
     inkscape:document-units="px"
     inkscape:current-layer="layer1"
     showgrid="false"
     units="px"
     inkscape:window-width="1920"
     inkscape:window-height="1027"
     inkscape:window-x="-8"
     inkscape:window-y="-8"
     inkscape:window-maximized="1" />
  <metadata
     id="metadata2314">
    <rdf:RDF>
      <cc:Work
         rdf:about="">
        <dc:format>image/svg+xml</dc:format>
        <dc:type
           rdf:resource="http://purl.org/dc/dcmitype/StillImage" />
        <dc:title></dc:title>
      </cc:Work>
    </rdf:RDF>
  </metadata>
  <g
     inkscape:label="Layer 1"
     inkscape:groupmode="layer"
     id="layer1"
     transform="translate(0,-270.54165)">
    <path
       inkscape:connector-curvature="0"
       style="fill:#000000;fill-opacity:1;stroke:none;stroke-width:0.01214035"
       d="m 10.465591,287.98197 c -0.117397,0.36214 -0.25094,0.78305 -0.8319861,1.64504 -0.075404,0.12157 -0.1326798,0.19956 -0.1732067,0.33992 -0.1602999,0.46945 -0.3221192,1.44068 -0.3272017,1.80889 l -0.063755,0.0516 0.5584725,0.22762 c 0.072355,0.16034 0.2759707,1.00766 0.2759707,1.00766 l 0.1411643,0.0286 0.08035,0.82118 -0.5703062,0.54084 -1.570139,0.55181 -1.0157638,0.29951 -0.8177699,0.0425 -1.0257664,-0.42517 c -0.040973,-0.0304 -0.042248,-0.068 -0.021733,-0.11121 l 0.7752781,-1.22472 0.1639052,0.044 0.5471195,-0.86996 -0.6312802,-0.24063 -0.077328,-0.0772 0.3344462,-0.99442 0.5220833,0.0971 c 0.051579,-0.10629 0.1851338,-0.26406 0.2701173,-0.28832 l 0.1699324,0.01 c 0,0 0.6096923,-1.26366 0.6341894,-1.35968 l 0.2186544,-1.11087 c 0,-0.0181 0.00406,-0.44309 0.00406,-0.44309 -0.1305154,-0.20956 -0.1080569,-1.51768 -0.1080569,-1.51768 l 0.6441459,-1.72501 0.2384455,-0.26055 c 0.098592,-1.14265 1.4050462,-2.07223 1.6478732,-2.95846 l -0.218533,0.34395 -0.2589729,-0.24684 -0.1946728,-0.32423 0.080845,-0.32776 0.3264947,-0.72368 0.571548,-1.30254 0.190581,-0.0416 0.279256,0.11647 0.304531,-0.18775 0.03976,-0.60397 -0.145303,-0.15968 -0.103673,-0.671 c -0.114893,-0.0728 -0.25389,-0.2031 -0.33994,-0.34429 l -0.04422,-0.23844 -0.09494,0.0793 -0.21181,-0.0641 -0.604854,1.50105 0.06179,0.0575 c 0.02904,0.17436 -0.06179,0.41046 -0.1346508,0.48115 l -0.1620971,0.84224 -0.6902484,1.76219 -0.3417482,0.2143 -0.099333,-0.0286 -0.046363,0.0994 -0.2627398,-0.0861 0.1324776,0.24284 0.026659,0.10152 0.1478344,0.0222 0.064131,0.0926 0.059589,0.50993 -0.309097,0.47238 -0.1964349,0.0222 -0.5562123,-0.22741 -0.3653472,0.008 c -0.038075,-0.01 -0.1975068,-0.15163 -0.1975068,-0.15163 l 0.017617,-0.66883 0.2820036,-0.69757 0.3734549,0.0486 -0.3973435,-0.18549 -0.00406,-0.11466 -0.055114,-0.031 -0.057432,-0.0662 0.00406,-0.11696 c 0.092773,-0.26709 0.8840692,-2.13283 1.0979598,-2.42114 l 0.08499,-0.091 0.1381732,0.0455 c 0,0 -0.057954,-0.0598 -0.066543,-0.10924 -0.010727,-0.0611 0.015935,-0.11418 0.033613,-0.16998 0.044045,-0.13964 0.098713,-0.37099 0.2999925,-0.31565 0.00406,-0.25492 0.3899311,-1.45089 0.4142717,-1.44468 l -0.045436,-0.038 c 0,0 -0.5158533,-1.51621 -0.5171688,-1.55248 -0.00406,-0.0527 0.149446,-0.3466 0.149446,-0.3466 l 2.1815471,-0.0455 0.02011,-2.07422 c 0,-0.081 0.03483,-0.32578 0.155178,-0.40647 0.103303,-0.0692 0.272412,-0.0636 0.372933,0.01 0.110757,0.0807 0.135177,0.28028 0.136244,0.38782 l 0.02092,2.07705 0.204184,-0.002 0.217541,-0.24377 c -0.06376,-0.33996 -0.06241,-0.85481 0.05593,-1.24026 0,0 0.02255,-0.12255 0.03361,-0.13881 0.02707,-0.0407 0.146775,-0.0467 0.187093,-0.0836 0.02382,-0.0215 0.0481,-0.10153 0.06884,-0.13865 0.03402,-0.0608 0.134035,-0.18868 0.18427,-0.2376 0.02538,-0.0246 0.115595,-0.0849 0.115595,-0.11565 0,-0.0261 -0.641034,-0.57038 -0.641034,-0.57038 -0.05732,-0.0527 -0.135709,-0.0946 -0.157801,-0.16899 0.07552,0.0197 0.167921,0.0813 0.246437,0.13109 0.02005,0.0131 0.797602,0.46376 0.797602,0.46376 0,-0.0688 0.0052,-0.17142 0.04358,-0.23066 0.01924,-0.0297 0.213572,-0.24098 0.308471,-0.24282 h 0.121419 c 0.04312,0 0.0849,0.003 0.114157,0.0406 0.02052,0.0258 0.06348,0.38436 0.06348,0.38436 0.01066,0.0568 0,0.15606 0.08945,0.15278 0.04602,0 0.76487,-0.40515 0.76487,-0.40515 0.08678,-0.0473 0.153456,-0.10497 0.254956,-0.12386 -0.02173,0.0741 -0.112077,0.13241 -0.172018,0.18208 0,0 -0.638252,0.51464 -0.645172,0.54304 -0.009,0.0366 0.07187,0.12584 0.09203,0.16116 l 0.130268,0.37633 c 0.07002,0.003 0.155623,0.0608 0.189637,0.12025 0.04602,0.0838 0.05645,0.9955 0.0098,1.19582 l -0.08585,0.0557 0.105349,0.11976 1.421603,-0.0371 0.474584,-2.14648 c 0.02011,-0.0902 0.08265,-0.24108 0.186896,-0.28872 0.141738,-0.0647 0.356572,-0.0489 0.462953,0.0649 0.07916,0.0848 0.04694,0.24198 0.02457,0.34707 l -0.424512,2.00228 1.106977,3e-4 0.171034,0.32003 -0.506349,1.58029 -0.05315,0.0774 c 0.05854,0.10152 0.43812,1.19861 0.449183,1.44447 0.03112,-0.003 0.05366,-0.003 0.08499,0 0.169967,0.0169 0.182016,0.16066 0.227625,0.2916 0.02005,0.0578 0.07039,0.12912 0.06728,0.19424 0,0.0245 -0.02011,0.0697 -0.02788,0.0971 0.132563,-0.0202 0.12867,0.0609 0.188495,0.1577 l 1.053098,2.39946 -0.01188,0.16436 -0.09601,0.0409 -0.004,0.11696 -0.341093,0.16001 0.0098,0.0388 0.277784,-0.079 0.293879,0.68373 0.01309,0.71143 -0.200544,0.14292 -0.152349,0.003 -0.064,-0.0374 -0.695372,0.26928 -0.130182,-0.0307 c 0,0 -0.02417,-0.0953 -0.06626,-0.14801 l -0.103668,-0.0905 -0.12408,-0.0623 c -0.01391,-0.0283 -0.0127,-0.24233 -0.0127,-0.24233 l 0.02666,-0.13684 -0.01762,-0.30459 0.125875,-0.0971 c 0,0 0.01639,-0.089 0.03605,-0.12814 0.03935,-0.0774 0.07867,-0.10136 0.0908,-0.19424 -0.110599,0.0457 -0.09068,-0.005 -0.158296,-0.0266 -0.04126,-0.0131 -0.06207,0.0115 -0.12092,-0.024 -0.03402,-0.0202 -0.064,-0.0503 -0.0854,-0.0831 0,0 -0.959914,-2.26855 -1.043668,-2.64054 0,0 0.01924,-0.0421 0.02289,-0.0471 -0.11243,-0.0148 -0.255571,-0.43533 -0.225446,-0.52953 0.01518,-0.0478 0.05668,-0.0892 0.09334,-0.1214 -0.0543,-0.0858 -0.51204,-1.34239 -0.51204,-1.34239 l -0.315681,0.10152 -0.216359,-0.21415 -0.04184,-0.0794 -0.01107,0.46347 c -0.02863,0.22289 -0.272076,0.23164 -0.273762,0.22289 l -0.101744,0.78354 -0.138006,0.15492 0.02127,0.46546 0.397559,0.0233 0.01843,-0.12748 0.279257,-0.13356 0.245817,0.0394 c 0,0 0.169921,0.83079 0.376897,1.33339 l 0.004,0.0751 0.178822,0.39297 0.110349,0.33778 -0.112639,0.2758 c 0,0 -0.299992,0.30364 -0.343226,0.30364 -0.03935,0 -0.294621,-0.49121 -0.294621,-0.49121 l -0.17218,0.23613 0.02666,0.0861 0.1678,-0.003 c 0.455575,0.81164 1.406883,2.21487 1.449381,3.17398 l 0.525398,0.6457 1.004248,2.55473 -0.38624,0.94978 c 0.04857,0.54631 0.205911,1.17832 0.962128,2.5616 0.02498,0.0322 0.273148,-0.0148 0.273148,-0.0148 l 0.197263,0.20032 0.03935,0.11533 0.361204,-0.0698 c 0,0 0.329369,1.0052 0.313223,1.04088 -0.004,0.01 -0.100151,0.0882 -0.100151,0.0882 0,0 -0.671025,0.18988 -0.671152,0.18988 l 0.496682,0.96236 0.167799,-0.0353 0.673773,1.32331 c 0.05158,0.088 0.0061,0.10399 -0.03031,0.11532 l -1.18365,0.34905 -0.118376,0.0212 -0.758802,-0.1214 c 0,0 -2.210843,-1.01189 -2.251903,-1.05876 -0.04926,-0.0562 -0.303881,-0.56829 -0.310076,-0.61661 0,0 0.05907,-0.78945 0.07224,-0.80659 0.01843,-0.0233 0.122352,-0.0218 0.122352,-0.0218 l 0.115393,-0.52508 c -0.05164,-0.21245 0.03031,-0.43399 0.194186,-0.48561 l 0.412799,-0.1214 -0.04544,-0.11533 -0.07904,-0.88319 c 0,0 -0.253971,-0.90836 -0.28409,-0.97427 -0.04109,-0.0904 -0.886237,-1.00586 -0.886237,-1.00586 -0.278891,-0.65558 -0.667391,-1.08654 -0.485288,-2.6284 l 0.04857,-0.18816 -0.14084,-0.13356 c -0.03529,-0.0532 -0.109938,-0.25219 -0.117965,-0.31566 -0.0069,-0.0552 -0.0164,-0.14293 0.0061,-0.19375 0.02214,-0.0504 0.06302,-0.0603 0.07433,-0.10991 0.0086,-0.0378 -0.0086,-0.0848 -0.01594,-0.12123 l -0.02625,-0.16998 -0.660704,-0.23298 -0.956181,-2.13265 c 0,0 -0.164931,0.37452 -0.22332,0.4216 -0.02422,0.0199 -0.887436,0.0202 -0.913944,0 -0.03726,-0.0286 -0.270158,-0.34429 -0.270158,-0.34429 l -1.422298,2.06945 -0.541748,0.21533 -0.06773,0.42491 c 0.113011,0.0552 0.07888,0.25802 0.04248,0.40064 -0.03646,0.1426 -0.103221,0.22763 -0.194267,0.28228 0.123459,0.29234 0.13563,1.43766 0.01803,1.79979 z m 8.012787,-5.00191 c 0.03529,0.0222 0.148501,-0.044 0.158949,-0.0774 0,0 -0.05424,-0.21513 -0.07064,-0.25388 -0.05291,0.0596 -0.117073,0.23189 -0.08831,0.3312 z"
       id="Selection"
       sodipodi:nodetypes="cccccccccccccccccccccccccccccccccccccccccccccccccccccccccccccccccccccccccccccccccccccsaasccccccccsccccccsccccccccccccccsaascccccccccccccccccccccccccccccccccccccccccccccccccccccccccccscccccccccccccccccccccccccccccccccccccccccccccccccccccccccc" />
  </g>
</svg>
