<?xml version="1.0" encoding="UTF-8" standalone="no"?>
<!-- Created with Inkscape (http://www.inkscape.org/) -->

<svg
   xmlns:dc="http://purl.org/dc/elements/1.1/"
   xmlns:cc="http://creativecommons.org/ns#"
   xmlns:rdf="http://www.w3.org/1999/02/22-rdf-syntax-ns#"
   xmlns:svg="http://www.w3.org/2000/svg"
   xmlns="http://www.w3.org/2000/svg"
   xmlns:sodipodi="http://sodipodi.sourceforge.net/DTD/sodipodi-0.dtd"
   xmlns:inkscape="http://www.inkscape.org/namespaces/inkscape"
   width="100"
   height="100"
   viewBox="0 0 26.458333 26.458334"
   version="1.1"
   id="svg2317"
   inkscape:version="0.92.4 (5da689c313, 2019-01-14)"
   sodipodi:docname="04-out-fighter.svg">
  <defs
     id="defs2311" />
  <sodipodi:namedview
     id="base"
     pagecolor="#ffffff"
     bordercolor="#666666"
     borderopacity="1.0"
     inkscape:pageopacity="0.0"
     inkscape:pageshadow="2"
     inkscape:zoom="1.4"
     inkscape:cx="-141.52092"
     inkscape:cy="80.575822"
     inkscape:document-units="px"
     inkscape:current-layer="layer1"
     showgrid="false"
     units="px"
     inkscape:window-width="1920"
     inkscape:window-height="1027"
     inkscape:window-x="-8"
     inkscape:window-y="-8"
     inkscape:window-maximized="1"
     showguides="true"
     inkscape:guide-bbox="true" />
  <metadata
     id="metadata2314">
    <rdf:RDF>
      <cc:Work
         rdf:about="">
        <dc:format>image/svg+xml</dc:format>
        <dc:type
           rdf:resource="http://purl.org/dc/dcmitype/StillImage" />
        <dc:title></dc:title>
      </cc:Work>
    </rdf:RDF>
  </metadata>
  <g
     inkscape:label="Layer 1"
     inkscape:groupmode="layer"
     id="layer1"
     transform="translate(0,-270.54165)">
    <path
       style="fill:#000000;fill-opacity:1;stroke:none;stroke-width:0.32137147"
       d="m 12.131636,276.04235 c 0,0 -0.408137,-0.26032 -0.408137,-0.26032 0,0 -1.638994,0 -1.638994,0 0,0 -0.7295194,0.72951 -0.7295194,0.72951 0,0 0,0.99304 0,0.99304 0,0 -0.906264,0.11577 -0.906264,0.11577 0,0 -1.899303,2.19175 -1.899303,2.19175 0,0 -0.231393,1.60687 -0.231393,1.60687 0,0 2.423147,-0.75844 2.423147,-0.75844 0,0 -0.144632,-0.81951 -0.144632,-0.81951 0,0 1.108734,-1.16658 1.108734,-1.16658 0,0 0.7905704,0 0.7905704,0 0,0 0.08675,0.92555 0.08675,0.92555 0,0 1.105523,-0.0257 1.076593,-0.0257 -0.02894,0 5.726841,-1.59399 5.726841,-1.59399 0,0 -0.755225,-2.05356 -0.755225,-2.05356 0,0 0.408145,-2.22068 0.437062,-2.22068 0.02894,0 -0.700583,-0.11576 -0.700583,-0.11576 0,0 -0.292451,1.95714 -0.292451,1.95714 0,0 -1.16015,0.0868 -1.16015,0.0868 0,0 -0.183182,-0.40815 -0.183182,-0.40815 0,0 0.758436,-0.76164 0.758436,-0.76164 0,0 -0.993034,0.49814 -0.993034,0.49814 0,0 -0.350303,-0.84843 -0.350303,-0.84843 0,0 -0.787353,0 -0.787353,0 0,0 -0.469209,0.73272 -0.469209,0.73272 0,0 -0.758429,-2.98232 -0.758429,-2.98232 0,0 -0.848424,0.20566 -0.848424,0.20566 0,0 0.935194,2.92129 0.935194,2.92129 0,0 -0.08675,1.05087 -0.08675,1.05087 z"
       id="path843"
       inkscape:connector-curvature="0" />
    <path
       style="fill:#000000;fill-opacity:1;stroke:none;stroke-width:0.32137147"
       d="m 18.308398,277.72954 1.82861,-3.23299 2.435987,0.97146 v 1.21707 z"
       id="path841"
       inkscape:connector-curvature="0"
       sodipodi:nodetypes="ccccc" />
    <path
       style="fill:#000000;fill-opacity:1;stroke:none;stroke-width:0.32137147"
       d="m 7.2467886,282.86506 c 0,0 -2.088913,0.11247 -2.088913,0.11247 0,0 1.147297,-0.92556 1.147297,-0.92556 0,0 2.651316,-0.88377 2.651316,-0.88377 0,0 10.9169844,-3.18799 10.9169844,-3.18799 0,0 3.856461,-0.97378 3.856461,-0.97378 0,0 -3.339047,1.5201 -3.339047,1.5201 0,0 -13.1440984,4.33852 -13.1440984,4.33852 z"
       id="path839"
       inkscape:connector-curvature="0" />
    <path
       style="fill:#000000;fill-opacity:1;stroke:none;stroke-width:0.32137147"
       d="m 22.572995,278.43976 v 3.75363 l -3.213712,6.1864 -1.526511,-0.24101 c 0.983392,0.5431 1.465447,1.58756 1.446165,2.55168 l 1.166586,1.14408 1.606853,0.0996 -0.06107,1.04446 -0.841993,0.17987 -0.08351,0.40492 0.864488,0.842 0.02249,0.6813 -0.944827,0.56562 c 0,0 -2.008582,0.0386 -2.050358,0.0194 -0.03858,-0.0194 -0.883768,-0.28279 -0.883768,-0.28279 l 0.04182,-1.04448 0.803428,-0.42098 0.03857,-0.54312 h -0.723082 l 0.04182,-1.38512 0.401716,-0.0192 c 0,0 -0.298869,-0.39849 -0.298869,-0.38565 -1.786834,-0.69736 -2.79272,-2.19495 -4.283885,-6.33744 l -0.771295,-0.0128 -0.176741,0.64275 -0.970541,-0.0165 -0.237816,-0.63311 -0.353509,-0.0256 -1.8253924,1.88646 c -0.263523,1.32725 -0.340651,2.77342 -2.169261,3.25549 l -1.124798,1.56507 -0.04182,0.7038 0.964109,-0.0804 0.80343,1.86715 -1.324049,0.76487 -3.515802,0.32137 -0.623461,-0.80342 1.436531,-1.04767 0.0033,-0.62668 -0.347079,-0.33423 -0.559179,-0.0835 -0.07067,-1.24371 0.723088,-0.0387 v 0.60097 c 0,0.0192 0.581678,-0.061 0.581678,-0.061 l 0.08038,-0.35995 2.005356,-2.36208 -0.03211,-1.8993 1.375466,-1.5201 0.49492,0.032 1.433313,-1.98929 v -0.99304 l 6.1349784,-1.87038 v 0.87736 l 0.993034,0.55596 0.205681,-1.92823 z"
       id="path837"
       inkscape:connector-curvature="0"
       sodipodi:nodetypes="cccccccccccccccccccccccccccccccccccccccccccsccccccccccccc" />
  </g>
</svg>
