<?xml version="1.0" encoding="UTF-8" standalone="no"?>
<!-- Created with Inkscape (http://www.inkscape.org/) -->

<svg
   xmlns:dc="http://purl.org/dc/elements/1.1/"
   xmlns:cc="http://creativecommons.org/ns#"
   xmlns:rdf="http://www.w3.org/1999/02/22-rdf-syntax-ns#"
   xmlns:svg="http://www.w3.org/2000/svg"
   xmlns="http://www.w3.org/2000/svg"
   xmlns:sodipodi="http://sodipodi.sourceforge.net/DTD/sodipodi-0.dtd"
   xmlns:inkscape="http://www.inkscape.org/namespaces/inkscape"
   version="1.1"
   id="svg2"
   width="100"
   height="100"
   viewBox="0 0 100 99.999996"
   sodipodi:docname="09-pilot.svg"
   inkscape:version="0.92.4 (5da689c313, 2019-01-14)">
  <metadata
     id="metadata8">
    <rdf:RDF>
      <cc:Work
         rdf:about="">
        <dc:format>image/svg+xml</dc:format>
        <dc:type
           rdf:resource="http://purl.org/dc/dcmitype/StillImage" />
        <dc:title></dc:title>
      </cc:Work>
    </rdf:RDF>
  </metadata>
  <defs
     id="defs6" />
  <sodipodi:namedview
     pagecolor="#ffffff"
     bordercolor="#666666"
     borderopacity="1"
     objecttolerance="10"
     gridtolerance="10"
     guidetolerance="10"
     inkscape:pageopacity="0"
     inkscape:pageshadow="2"
     inkscape:window-width="1920"
     inkscape:window-height="1027"
     id="namedview4"
     showgrid="false"
     showguides="true"
     inkscape:guide-bbox="true"
     inkscape:snap-bbox="true"
     inkscape:snap-intersection-paths="true"
     fit-margin-top="0"
     fit-margin-left="0"
     fit-margin-right="0"
     fit-margin-bottom="0"
     inkscape:zoom="3.9111844"
     inkscape:cx="16.45089"
     inkscape:cy="46.500967"
     inkscape:window-x="-8"
     inkscape:window-y="-8"
     inkscape:window-maximized="1"
     inkscape:current-layer="svg2" />
  <path
     style="fill:#000000;fill-opacity:1;fill-rule:evenodd;stroke:none;stroke-width:0.33656284px;stroke-linecap:butt;stroke-linejoin:miter;stroke-opacity:1"
     d="m 46.036994,30.548055 -7.088856,15.942032 -10.188252,1.3239 3.652235,2.853547 h 9.492119 l 8.095914,3.207867 8.095256,-3.207867 h 9.492775 l 3.651582,-2.853547 -10.187598,-1.3239 -7.088856,-15.942032 z"
     id="path821"
     inkscape:connector-curvature="0"
     sodipodi:nodetypes="cccccccccccc" />
  <path
     style="fill:#000000;fill-opacity:1;fill-rule:evenodd;stroke:none;stroke-width:0.33656284px;stroke-linecap:butt;stroke-linejoin:miter;stroke-opacity:1"
     d="m 30.368421,21.245898 c -6.795927,6.193569 -10.708877,14.626484 -10.708877,19.828287 5.642509,11.420445 6.218207,15.750333 7.636425,23.700069 0.32712,1.833639 0.383585,4.333939 0.334591,6.248756 -0.100541,3.929824 2.074855,3.755513 4.343107,5.280489 1.737866,1.168408 2.407584,3.078564 3.90071,4.510077 1.710198,1.91615 2.961753,2.969331 4.80785,4.070969 0.852283,0.508586 3.072453,0.425958 3.072453,0.425958 v -5.93258 H 41.914099 C 38.908736,76.683333 36.894372,74.896512 34.901504,72.441581 32.2244,69.14376 31.787713,67.497312 31.585173,64.561271 31.303831,60.482849 30.845001,52.460133 30.845001,52.460133 L 24.831569,46.726074 36.765084,44.245898 44.320657,27.44142 h 5.679497 5.679493 l 7.555583,16.804478 11.933514,2.480176 -6.013426,5.734059 c 0,0 -0.459492,8.022716 -0.740839,12.101138 -0.202535,2.936041 -0.63923,4.582489 -3.316325,7.88031 -1.992874,2.454931 -4.00724,4.241752 -7.012599,6.936342 h -1.840586 v 5.93258 c 0,0 2.220825,0.08262 3.073119,-0.425958 1.846094,-1.101638 3.097644,-2.154819 4.807848,-4.070969 1.493126,-1.431513 2.162181,-3.341669 3.900051,-4.510077 2.268255,-1.524976 4.444305,-1.350665 4.343767,-5.280489 -0.04896,-1.914817 0.0072,-4.415117 0.334591,-6.248756 1.418219,-7.949736 1.993918,-12.279624 7.636429,-23.700069 0,-5.201803 -3.913614,-13.634718 -10.709539,-19.828287 -5.13973,-4.684162 -11.495154,-7.43133 -19.631081,-7.43133 -8.875999,0 -15.357636,3.652436 -19.631733,7.43133 z"
     id="path823"
     inkscape:connector-curvature="0"
     sodipodi:nodetypes="ccscscscccsccccccccccsscccscssscssc" />
  <path
     style="opacity:1;fill:#000000;fill-opacity:1;fill-rule:evenodd;stroke:none;stroke-width:1.34625137;stroke-linecap:round;stroke-linejoin:round;stroke-miterlimit:4;stroke-dasharray:none;stroke-dashoffset:0;stroke-opacity:1"
     d="m 79.488786,48.376087 c 1.536803,-3.980583 2.535571,-4.885626 3.164073,0.121697 0.956477,7.620347 -1.251118,14.427118 -4.441875,19.166971 -1.197919,1.779495 -3.312445,4.570025 -3.164063,-0.547628 0.09091,-3.135533 2.973489,-14.937711 4.441865,-18.74104 z"
     id="rect825"
     inkscape:connector-curvature="0"
     sodipodi:nodetypes="sssss" />
  <path
     style="opacity:1;fill:#000000;fill-opacity:1;fill-rule:evenodd;stroke:none;stroke-width:1.3469727;stroke-linecap:round;stroke-linejoin:round;stroke-miterlimit:4;stroke-dasharray:none;stroke-dashoffset:0;stroke-opacity:1"
     d="m 47.048661,78.769222 -1.087257,1.087255 v 6.328955 h 8.077509 v -6.328955 l -1.087265,-1.087255 z"
     id="rect828"
     inkscape:connector-curvature="0"
     sodipodi:nodetypes="ccccccc" />
  <path
     sodipodi:nodetypes="sssss"
     inkscape:connector-curvature="0"
     id="path843"
     d="m 20.511218,48.376087 c -1.536807,-3.980583 -2.535575,-4.885626 -3.164075,0.121697 -0.956481,7.620347 1.251112,14.427118 4.441872,19.166971 1.19792,1.779495 3.312447,4.570025 3.164066,-0.547628 -0.09091,-3.135533 -2.973495,-14.937711 -4.441863,-18.74104 z"
     style="opacity:1;fill:#000000;fill-opacity:1;fill-rule:evenodd;stroke:none;stroke-width:1.34625137;stroke-linecap:round;stroke-linejoin:round;stroke-miterlimit:4;stroke-dasharray:none;stroke-dashoffset:0;stroke-opacity:1" />
</svg>
