<?xml version="1.0" encoding="UTF-8" standalone="no"?>
<!-- Created with Inkscape (http://www.inkscape.org/) -->

<svg
   xmlns:dc="http://purl.org/dc/elements/1.1/"
   xmlns:cc="http://creativecommons.org/ns#"
   xmlns:rdf="http://www.w3.org/1999/02/22-rdf-syntax-ns#"
   xmlns:svg="http://www.w3.org/2000/svg"
   xmlns="http://www.w3.org/2000/svg"
   xmlns:sodipodi="http://sodipodi.sourceforge.net/DTD/sodipodi-0.dtd"
   xmlns:inkscape="http://www.inkscape.org/namespaces/inkscape"
   width="100"
   height="100"
   viewBox="0 0 26.458333 26.458334"
   version="1.1"
   id="svg828"
   inkscape:version="0.92.4 (5da689c313, 2019-01-14)"
   sodipodi:docname="40-short-range-daibo.svg">
  <defs
     id="defs822" />
  <sodipodi:namedview
     id="base"
     pagecolor="#ffffff"
     bordercolor="#666666"
     borderopacity="1.0"
     inkscape:pageopacity="0.0"
     inkscape:pageshadow="2"
     inkscape:zoom="3.959798"
     inkscape:cx="0.30923385"
     inkscape:cy="22.888212"
     inkscape:document-units="px"
     inkscape:current-layer="layer1"
     showgrid="false"
     units="px"
     inkscape:window-width="1920"
     inkscape:window-height="1027"
     inkscape:window-x="-8"
     inkscape:window-y="-8"
     inkscape:window-maximized="1" />
  <metadata
     id="metadata825">
    <rdf:RDF>
      <cc:Work
         rdf:about="">
        <dc:format>image/svg+xml</dc:format>
        <dc:type
           rdf:resource="http://purl.org/dc/dcmitype/StillImage" />
        <dc:title></dc:title>
      </cc:Work>
    </rdf:RDF>
  </metadata>
  <g
     inkscape:label="Layer 1"
     inkscape:groupmode="layer"
     id="layer1"
     transform="translate(0,-270.54165)">
    <path
       style="opacity:1;fill:#000000;fill-opacity:1;fill-rule:evenodd;stroke:none;stroke-width:3.51559186;stroke-linecap:round;stroke-linejoin:round;stroke-miterlimit:4;stroke-dasharray:none;stroke-dashoffset:0;stroke-opacity:1"
       d="m 23.076111,273.49066 c -2.389199,0.0519 -3.525497,3.26318 -7.064168,6.66885 -0.52466,0.50491 0.244352,1.32971 0.787032,0.78703 3.969618,-3.96963 6.192123,-6.03061 8.658903,-6.69158 -0.945674,-0.54598 -1.712792,-0.77884 -2.381767,-0.7643 z m -8.416541,7.15977 c -0.06058,0 -0.121016,0.0233 -0.167431,0.0698 l -0.33538,0.33538 c -0.09283,0.0928 -0.09283,0.24203 0,0.33486 l 1.452624,1.45211 c 0.09283,0.0928 0.24203,0.0928 0.334864,0 l 0.33538,-0.33487 c 0.09283,-0.0928 0.09283,-0.24254 0,-0.33538 l -1.452108,-1.4521 c -0.04642,-0.0464 -0.107373,-0.0698 -0.167949,-0.0698 z m -0.86868,1.3162 c -0.06058,0 -0.121016,0.0228 -0.167432,0.0693 l -0.223759,0.22376 c -0.09283,0.0928 -0.09283,0.24203 0,0.33486 l 1.005623,1.00562 c 0.09283,0.0928 0.24203,0.0928 0.334864,0 l 0.223759,-0.22375 c 0.09283,-0.0928 0.09283,-0.24203 0,-0.33487 l -1.005624,-1.00562 c -0.04642,-0.0464 -0.106855,-0.0693 -0.167431,-0.0693 z m -0.778764,1.19269 c -0.03635,-0.004 -0.07085,0.006 -0.0956,0.0305 l -0.2682,0.2682 c -0.04951,0.0495 -0.03967,0.13914 0.02222,0.20103 l 0.670243,0.67024 c 0.06189,0.0619 0.15151,0.0717 0.201021,0.0222 l 0.268201,-0.2682 c 0.04951,-0.0495 0.03967,-0.13913 -0.02222,-0.20102 l -0.670243,-0.67025 c -0.03095,-0.0309 -0.06908,-0.0487 -0.10542,-0.0527 z m -1.126546,0.71262 c -0.06058,0 -0.121016,0.0228 -0.167432,0.0693 l -0.223759,0.22376 c -0.09283,0.0928 -0.09283,0.24203 0,0.33486 l 1.005623,1.00562 c 0.09283,0.0928 0.24203,0.0928 0.334864,0 l 0.223759,-0.22375 c 0.09283,-0.0928 0.09283,-0.24203 0,-0.33487 l -1.005624,-1.00562 c -0.04642,-0.0464 -0.106855,-0.0693 -0.167431,-0.0693 z m -1.204061,0.75706 c -0.06058,0 -0.121015,0.0228 -0.167432,0.0693 l -0.33538,0.33538 c -0.09283,0.0928 -0.09283,0.24255 0,0.33538 l 1.452108,1.45211 c 0.09283,0.0928 0.242547,0.0928 0.33538,0 l 0.334863,-0.33538 c 0.09283,-0.0928 0.09283,-0.24203 0,-0.33487 L 10.84895,284.6983 c -0.04642,-0.0464 -0.106855,-0.0693 -0.167431,-0.0693 z m -0.596346,1.78852 c -0.1402191,-0.009 -0.2901442,0.0416 -0.4258143,0.17725 -3.9696098,3.96963 -6.1921328,6.03061 -8.6589027,6.69158 4.3230699,2.49593 4.9164244,-1.54528 9.445935,-5.90454 0.393495,-0.37869 0.05944,-0.93757 -0.361218,-0.96429 z"
       id="rect822"
       inkscape:connector-curvature="0" />
  </g>
</svg>
