<?xml version="1.0" encoding="UTF-8" standalone="no"?>
<!-- Created with Inkscape (http://www.inkscape.org/) -->

<svg
   xmlns:dc="http://purl.org/dc/elements/1.1/"
   xmlns:cc="http://creativecommons.org/ns#"
   xmlns:rdf="http://www.w3.org/1999/02/22-rdf-syntax-ns#"
   xmlns:svg="http://www.w3.org/2000/svg"
   xmlns="http://www.w3.org/2000/svg"
   xmlns:sodipodi="http://sodipodi.sourceforge.net/DTD/sodipodi-0.dtd"
   xmlns:inkscape="http://www.inkscape.org/namespaces/inkscape"
   version="1.1"
   id="svg1244"
   width="100"
   height="100"
   viewBox="0 0 100 100"
   sodipodi:docname="27-machine-gun.svg"
   inkscape:version="0.92.4 (5da689c313, 2019-01-14)">
  <metadata
     id="metadata1250">
    <rdf:RDF>
      <cc:Work
         rdf:about="">
        <dc:format>image/svg+xml</dc:format>
        <dc:type
           rdf:resource="http://purl.org/dc/dcmitype/StillImage" />
        <dc:title></dc:title>
      </cc:Work>
    </rdf:RDF>
  </metadata>
  <defs
     id="defs1248" />
  <sodipodi:namedview
     pagecolor="#ffffff"
     bordercolor="#666666"
     borderopacity="1"
     objecttolerance="10"
     gridtolerance="10"
     guidetolerance="10"
     inkscape:pageopacity="0"
     inkscape:pageshadow="2"
     inkscape:window-width="1920"
     inkscape:window-height="1027"
     id="namedview1246"
     showgrid="false"
     showguides="true"
     inkscape:guide-bbox="true"
     inkscape:snap-bbox="true"
     inkscape:object-paths="true"
     inkscape:snap-intersection-paths="true"
     inkscape:bbox-paths="true"
     inkscape:bbox-nodes="true"
     inkscape:snap-bbox-edge-midpoints="true"
     inkscape:snap-bbox-midpoints="true"
     inkscape:snap-smooth-nodes="true"
     inkscape:zoom="4.0000002"
     inkscape:cx="-28.581657"
     inkscape:cy="50.524224"
     inkscape:window-x="-8"
     inkscape:window-y="-8"
     inkscape:window-maximized="1"
     inkscape:current-layer="svg1244"
     fit-margin-top="0"
     fit-margin-left="0"
     fit-margin-right="0"
     fit-margin-bottom="0" />
  <path
     style="opacity:1;fill:#000000;fill-opacity:1;fill-rule:evenodd;stroke:none;stroke-width:0.44999996px;stroke-linecap:butt;stroke-linejoin:miter;stroke-opacity:1"
     d="m 8.6434455,78.949181 5.9033085,1.945782 c 1.401737,-0.32535 2.876764,-0.553266 4.446061,-0.718524 1.69025,-2.779326 5.007977,-7.108011 9.197564,-11.794869 l 3.833079,3.833073 c -2.190852,2.224512 -3.339906,3.676698 -4.619618,5.787414 -1.122289,1.851066 -2.346675,3.41163 -3.602674,4.765825 -0.0339,2.394405 -0.473942,3.894129 -1.0018,5.586759 l 1.126296,1.179153 -1.3412,1.341198 -6.01166,-6.011658 -8.8786523,-3.286225 z"
     id="path1376"
     inkscape:connector-curvature="0" />
  <path
     style="opacity:1;fill:#000000;fill-opacity:1;fill-rule:evenodd;stroke:none;stroke-width:0.44999996px;stroke-linecap:butt;stroke-linejoin:miter;stroke-opacity:1"
     d="m 68.964519,42.970185 -12.724808,12.724804 2.394482,0.334863 5.673915,-5.673915 2.984814,2.984814 -6.504152,18.138556 -5.362412,5.362416 -6.219143,-8.303976 0.368374,-2.109762 3.08093,-3.080935 -1.50255,-1.50255 -3.080933,3.080934 -2.181168,-2.181168 11.655259,-11.655261 -7.074418,-7.074415 -16.280759,16.280758 -2.275965,-2.217645 -2.445118,2.44512 2.247051,2.246553 -2.272917,2.272923 7.074694,7.074172 2.272852,-2.272851 3.448826,3.449214 v 2.453526 l 1.148728,1.148724 3.746759,-3.746754 1.04063,1.040625 -3.851555,3.85155 v 0.699885 l 0.962703,0.962703 3.789751,-3.788865 1.017774,1.017774 -3.78931,3.789306 v 0.722655 l 0.97461,0.974611 3.893116,-3.893113 0.979983,0.979974 -4.307966,4.307959 0.300528,0.307566 h 3.995959 l 11.095585,-11.095588 6.377118,-18.818371 5.292774,-5.292774 -1.289349,-1.28935 -4.570317,4.570309 -3.289743,-3.289743 4.570308,-4.570318 z"
     id="path1378"
     inkscape:connector-curvature="0" />
  <path
     style="opacity:1;fill:#000000;fill-opacity:1;fill-rule:evenodd;stroke:none;stroke-width:0.44999996px;stroke-linecap:butt;stroke-linejoin:miter;stroke-opacity:1"
     d="m 52.047422,42.439878 3.102057,-3.102066 7.074418,7.074423 -3.102057,3.102058 z"
     id="path1383"
     inkscape:connector-curvature="0" />
  <path
     style="opacity:1;fill:#000000;fill-opacity:1;fill-rule:evenodd;stroke:none;stroke-width:0.44999996px;stroke-linecap:butt;stroke-linejoin:miter;stroke-opacity:1"
     d="m 67.564551,48.627145 3.528298,-3.528298 1.429658,1.429659 -3.528296,3.528298 z"
     id="path1385"
     inkscape:connector-curvature="0" />
  <path
     style="opacity:1;fill:#000000;fill-opacity:1;fill-rule:evenodd;stroke:none;stroke-width:0.44999996px;stroke-linecap:butt;stroke-linejoin:miter;stroke-opacity:1"
     d="m 42.317482,39.316896 -13.01572,13.016602 4.865625,4.865625 13.015721,-13.01572 z m -0.306738,2.239452 2.863481,2.863476 -1.113575,1.113579 -2.864357,-2.863476 z m -2.3291,2.328228 2.863475,2.863476 -1.113573,1.114452 -2.863477,-2.864358 z m -2.299218,2.299212 2.863477,2.863477 -1.113575,1.114461 -2.863476,-2.864359 z m -2.37217,2.381842 2.864358,2.863476 -1.113575,1.114452 -2.864355,-2.864358 z m -2.315916,2.30625 2.864353,2.863476 -1.114451,1.114452 -2.863477,-2.864358 z"
     id="path843"
     inkscape:connector-curvature="0" />
  <path
     style="opacity:1;fill:#000000;fill-opacity:1;fill-rule:evenodd;stroke:none;stroke-width:0.44999996px;stroke-linecap:butt;stroke-linejoin:miter;stroke-opacity:1"
     d="m 48.675729,35.350452 2.519563,2.519559 -3.634856,3.634857 -2.519568,-2.519559 z"
     id="path1389"
     inkscape:connector-curvature="0" />
  <path
     style="opacity:1;fill:#000000;fill-opacity:1;fill-rule:evenodd;stroke:none;stroke-width:0.44999996px;stroke-linecap:butt;stroke-linejoin:miter;stroke-opacity:1"
     d="m 53.340659,28.293857 4.784345,4.784338 -4.818851,4.818852 -4.784347,-4.784346 4.818853,-4.818844"
     id="path1391"
     inkscape:connector-curvature="0" />
  <path
     style="opacity:1;fill:#000000;fill-opacity:1;fill-rule:evenodd;stroke:none;stroke-width:0.44999996px;stroke-linecap:butt;stroke-linejoin:miter;stroke-opacity:1"
     d="m 57.875349,38.937942 4.688608,4.688613 11.279742,-11.279736 1.131948,0.199494 1.68966,-1.718731 -5.949558,-5.949549 -1.663506,1.639827 0.118404,1.124793 z"
     id="path1393"
     inkscape:connector-curvature="0" />
  <path
     style="opacity:1;fill:#000000;fill-opacity:1;fill-rule:evenodd;stroke:none;stroke-width:0.44999996px;stroke-linecap:butt;stroke-linejoin:miter;stroke-opacity:1"
     d="m 78.213226,20.754935 2.462706,2.462706 -4.31163,4.31163 -2.462707,-2.462706 z"
     id="path1395"
     inkscape:connector-curvature="0" />
  <path
     style="opacity:1;fill:#000000;fill-opacity:1;fill-rule:evenodd;stroke:none;stroke-width:0.44999996px;stroke-linecap:butt;stroke-linejoin:miter;stroke-opacity:1"
     d="m 78.616633,17.955323 1.337904,-1.337913 4.809285,4.809285 -1.337913,1.337913 z"
     id="path1397"
     inkscape:connector-curvature="0" />
  <path
     style="opacity:1;fill:#000000;fill-opacity:1;fill-rule:evenodd;stroke:none;stroke-width:0.44999996px;stroke-linecap:butt;stroke-linejoin:miter;stroke-opacity:1"
     d="m 82.421473,15.816527 3.195864,3.195855 6.688513,-7.424668 -0.911664,-0.911673 -2.367981,2.367981 -0.746307,-0.746298 2.36799,-2.367981 -0.804735,-0.804735 z"
     id="path1399"
     inkscape:connector-curvature="0" />
</svg>
