<?xml version="1.0" encoding="UTF-8" standalone="no"?>
<!-- Created with Inkscape (http://www.inkscape.org/) -->

<svg
   xmlns:dc="http://purl.org/dc/elements/1.1/"
   xmlns:cc="http://creativecommons.org/ns#"
   xmlns:rdf="http://www.w3.org/1999/02/22-rdf-syntax-ns#"
   xmlns:svg="http://www.w3.org/2000/svg"
   xmlns="http://www.w3.org/2000/svg"
   xmlns:sodipodi="http://sodipodi.sourceforge.net/DTD/sodipodi-0.dtd"
   xmlns:inkscape="http://www.inkscape.org/namespaces/inkscape"
   version="1.1"
   id="svg2"
   width="100"
   height="100"
   viewBox="0 0 100 100"
   sodipodi:docname="28-long-rifle.svg"
   inkscape:version="0.92.4 (5da689c313, 2019-01-14)">
  <metadata
     id="metadata8">
    <rdf:RDF>
      <cc:Work
         rdf:about="">
        <dc:format>image/svg+xml</dc:format>
        <dc:type
           rdf:resource="http://purl.org/dc/dcmitype/StillImage" />
        <dc:title></dc:title>
      </cc:Work>
    </rdf:RDF>
  </metadata>
  <defs
     id="defs6" />
  <sodipodi:namedview
     pagecolor="#ffffff"
     bordercolor="#666666"
     borderopacity="1"
     objecttolerance="10"
     gridtolerance="10"
     guidetolerance="10"
     inkscape:pageopacity="0"
     inkscape:pageshadow="2"
     inkscape:window-width="1920"
     inkscape:window-height="1027"
     id="namedview4"
     showgrid="false"
     showguides="true"
     inkscape:guide-bbox="true"
     inkscape:snap-bbox="true"
     inkscape:bbox-paths="true"
     inkscape:bbox-nodes="true"
     inkscape:snap-bbox-edge-midpoints="true"
     inkscape:snap-bbox-midpoints="true"
     inkscape:object-paths="true"
     inkscape:snap-intersection-paths="true"
     inkscape:snap-smooth-nodes="true"
     inkscape:snap-midpoints="true"
     inkscape:zoom="3.9111844"
     inkscape:cx="-34.899885"
     inkscape:cy="56.969139"
     inkscape:window-x="-8"
     inkscape:window-y="-8"
     inkscape:window-maximized="1"
     inkscape:current-layer="svg2"
     fit-margin-top="0"
     fit-margin-left="0"
     fit-margin-right="0"
     fit-margin-bottom="0" />
  <path
     style="opacity:1;fill:#000000;fill-opacity:1;fill-rule:evenodd;stroke:none;stroke-width:1.34938765;stroke-linecap:round;stroke-linejoin:round;stroke-miterlimit:4;stroke-dasharray:none;stroke-dashoffset:0;stroke-opacity:1"
     d="m 22.87708,61.237361 0.476146,9.085964 -1.069704,1.069698 4.8789,4.878891 5.258598,-5.258599 1.265847,3.42e-4 6.720594,-6.720605 -3.37e-4,-1.265844 16.884174,-16.884168 -4.878892,-4.87891 -7.005255,7.005265 -6.305947,0.05454 -5.809287,5.809288 -2.225607,-0.07776 z m 3.950215,0.808349 5.346401,-5.346403 2.206279,0.07704 4.873045,-4.873051 2.542248,-0.02223 -14.247965,14.247958 z"
     id="rect817"
     inkscape:connector-curvature="0"
     sodipodi:nodetypes="cccccccccccccccccccccc" />
  <path
     style="opacity:1;fill:#000000;fill-opacity:1;fill-rule:evenodd;stroke:none;stroke-width:1.34938765;stroke-linecap:round;stroke-linejoin:round;stroke-miterlimit:4;stroke-dasharray:none;stroke-dashoffset:0;stroke-opacity:1"
     d="m 64.825238,22.027959 1.37648,1.376471 1.542691,-1.542691 4.552013,-0.481785 -17.841269,17.841268 4.848705,4.848697 4.698289,-2.412626 16.10561,-18.232406 v -2.58538 l -3.442409,-3.442418 -9.373206,2.163975 z"
     id="rect819"
     inkscape:connector-curvature="0"
     sodipodi:nodetypes="cccccccccccc" />
  <path
     style="opacity:1;fill:#000000;fill-opacity:1;fill-rule:evenodd;stroke:none;stroke-width:1.34938765;stroke-linecap:round;stroke-linejoin:round;stroke-miterlimit:4;stroke-dasharray:none;stroke-dashoffset:0;stroke-opacity:1"
     d="m 78.14332,15.950112 1.364528,-1.364527 3.410081,3.410081 -1.364528,1.364519 z"
     id="rect821"
     inkscape:connector-curvature="0"
     sodipodi:nodetypes="ccccc" />
  <path
     style="opacity:1;fill:#000000;fill-opacity:1;fill-rule:evenodd;stroke:none;stroke-width:1.34938765;stroke-linecap:round;stroke-linejoin:round;stroke-miterlimit:4;stroke-dasharray:none;stroke-dashoffset:0;stroke-opacity:1"
     d="M 81.717659,12.731334 88.951397,6.661506 90.842,8.552117 84.772172,15.785854 H 83.914836 L 81.717669,13.57417 Z"
     id="rect823"
     inkscape:connector-curvature="0"
     sodipodi:nodetypes="ccccccc" />
  <path
     style="opacity:1;fill:#000000;fill-opacity:1;fill-rule:evenodd;stroke:none;stroke-width:1.34938765;stroke-linecap:round;stroke-linejoin:round;stroke-miterlimit:4;stroke-dasharray:none;stroke-dashoffset:0;stroke-opacity:1"
     d="m 14.863122,78.813257 4.040472,-4.040474 h 2.614287 l 3.557889,3.557888 -3.34226,3.342267 -2.47974,11.665556 -3.920721,-0.874246 -0.849038,-8.104708 -1.323104,-1.323101 -4.0029073,-0.525786 0.4983786,-3.034225 c 1.4048897,-0.282932 2.9522347,-0.449935 5.2067437,-0.663171 z"
     id="rect829"
     inkscape:connector-curvature="0"
     sodipodi:nodetypes="cccccccccccc" />
  <path
     style="opacity:1;fill:#000000;fill-opacity:1;fill-rule:evenodd;stroke:none;stroke-width:1.34938765;stroke-linecap:round;stroke-linejoin:round;stroke-miterlimit:4;stroke-dasharray:none;stroke-dashoffset:0;stroke-opacity:1"
     d="m 46.801036,58.310829 4.482714,-4.482713 0.761683,0.959952 -2.31692,3.522761 z"
     id="rect866"
     inkscape:connector-curvature="0"
     sodipodi:nodetypes="ccccc" />
  <path
     style="opacity:1;fill:#000000;fill-opacity:1;fill-rule:evenodd;stroke:none;stroke-width:1.34938765;stroke-linecap:round;stroke-linejoin:round;stroke-miterlimit:4;stroke-dasharray:none;stroke-dashoffset:0;stroke-opacity:1"
     d="m 41.924424,63.187147 1.014732,5.970018 -2.531699,2.76186 -0.735651,5.472915 2.630464,0.775247 c 1.082311,0.318976 1.388575,1.777499 2.240508,1.352512 1.243919,-0.620528 1.202727,-1.372573 1.323155,-2.227928 l 2.455286,-17.434867 -3.066077,-3.42e-4 -0.82651,0.826501 a 1.1861908,1.1861908 0 0 1 0,1.678176 1.1861908,1.1861908 0 0 1 -1.677696,-3.42e-4 z"
     id="rect869"
     inkscape:connector-curvature="0" />
  <path
     style="opacity:1;fill:#000000;fill-opacity:1;fill-rule:evenodd;stroke:none;stroke-width:1.34938765;stroke-linecap:round;stroke-linejoin:round;stroke-miterlimit:4;stroke-dasharray:none;stroke-dashoffset:0;stroke-opacity:1"
     d="m 30.339089,74.772783 1.115876,-1.115877 h 1.946743 l 3.984515,7.820022 -2.781361,1.671219 z"
     id="rect864"
     inkscape:connector-curvature="0"
     sodipodi:nodetypes="cccccc" />
</svg>
